<svg width="328" height="120" viewBox="0 0 328 120" fill="none" xmlns="http://www.w3.org/2000/svg">
<path d="M193.468 48.0673C194.277 48.0673 194.932 47.4118 194.932 46.6032C194.932 45.7946 194.277 45.139 193.468 45.139C192.66 45.139 192.004 45.7946 192.004 46.6032C192.004 47.4118 192.66 48.0673 193.468 48.0673Z" fill="white"/>
<path opacity="0.1" d="M116.821 38.0381C117.427 38.0381 117.919 37.5465 117.919 36.94C117.919 36.3336 117.427 35.8419 116.821 35.8419C116.215 35.8419 115.723 36.3336 115.723 36.94C115.723 37.5465 116.215 38.0381 116.821 38.0381Z" fill="white"/>
<path opacity="0.1" d="M124.8 59.1216C125.407 59.1216 125.899 58.63 125.899 58.0235C125.899 57.417 125.407 56.9254 124.8 56.9254C124.194 56.9254 123.702 57.417 123.702 58.0235C123.702 58.63 124.194 59.1216 124.8 59.1216Z" fill="white"/>
<path opacity="0.1" d="M216.748 48.7995C217.354 48.7995 217.846 48.3078 217.846 47.7014C217.846 47.0949 217.354 46.6033 216.748 46.6033C216.141 46.6033 215.65 47.0949 215.65 47.7014C215.65 48.3078 216.141 48.7995 216.748 48.7995Z" fill="white"/>
<path opacity="0.1" d="M241.565 73.7628C242.171 73.7628 242.663 73.2712 242.663 72.6647C242.663 72.0583 242.171 71.5667 241.565 71.5667C240.958 71.5667 240.467 72.0583 240.467 72.6647C240.467 73.2712 240.958 73.7628 241.565 73.7628Z" fill="white"/>
<path opacity="0.1" d="M174.947 64.4655C175.553 64.4655 176.045 63.9738 176.045 63.3674C176.045 62.7609 175.553 62.2693 174.947 62.2693C174.34 62.2693 173.849 62.7609 173.849 63.3674C173.849 63.9738 174.34 64.4655 174.947 64.4655Z" fill="white"/>
<path opacity="0.1" d="M171.945 69.8098C172.552 69.8098 173.043 69.3182 173.043 68.7117C173.043 68.1053 172.552 67.6136 171.945 67.6136C171.339 67.6136 170.847 68.1053 170.847 68.7117C170.847 69.3182 171.339 69.8098 171.945 69.8098Z" fill="white"/>
<path opacity="0.1" d="M147.787 77.3499C148.394 77.3499 148.885 76.8582 148.885 76.2518C148.885 75.6453 148.394 75.1537 147.787 75.1537C147.181 75.1537 146.689 75.6453 146.689 76.2518C146.689 76.8582 147.181 77.3499 147.787 77.3499Z" fill="white"/>
<path opacity="0.1" d="M230.876 31.4495C231.483 31.4495 231.975 30.9579 231.975 30.3514C231.975 29.7449 231.483 29.2533 230.876 29.2533C230.27 29.2533 229.778 29.7449 229.778 30.3514C229.778 30.9579 230.27 31.4495 230.876 31.4495Z" fill="white"/>
<path opacity="0.1" d="M180.877 28.8874C181.483 28.8874 181.975 28.3957 181.975 27.7893C181.975 27.1828 181.483 26.6912 180.877 26.6912C180.27 26.6912 179.779 27.1828 179.779 27.7893C179.779 28.3957 180.27 28.8874 180.877 28.8874Z" fill="white"/>
<path opacity="0.1" d="M161.696 35.1829C162.303 35.1829 162.794 34.6913 162.794 34.0848C162.794 33.4783 162.303 32.9867 161.696 32.9867C161.09 32.9867 160.598 33.4783 160.598 34.0848C160.598 34.6913 161.09 35.1829 161.696 35.1829Z" fill="white"/>
<path opacity="0.1" d="M135.635 35.1829C136.242 35.1829 136.733 34.6913 136.733 34.0848C136.733 33.4783 136.242 32.9867 135.635 32.9867C135.029 32.9867 134.537 33.4783 134.537 34.0848C134.537 34.6913 135.029 35.1829 135.635 35.1829Z" fill="white"/>
<path opacity="0.52" d="M123.922 110C124.852 110 125.606 109.246 125.606 108.316C125.606 107.386 124.852 106.632 123.922 106.632C122.992 106.632 122.238 107.386 122.238 108.316C122.238 109.246 122.992 110 123.922 110Z" fill="#B05AFF"/>
<path d="M133.219 31.5225C134.149 31.5225 134.903 30.7687 134.903 29.8388C134.903 28.9089 134.149 28.155 133.219 28.155C132.289 28.155 131.536 28.9089 131.536 29.8388C131.536 30.7687 132.289 31.5225 133.219 31.5225Z" fill="#C38BFF"/>
<path opacity="0.52" d="M174.874 103.778C178.027 103.778 180.584 101.221 180.584 98.0674C180.584 94.9138 178.027 92.3573 174.874 92.3573C171.72 92.3573 169.164 94.9138 169.164 98.0674C169.164 101.221 171.72 103.778 174.874 103.778Z" fill="#B05AFF"/>
<path d="M173.483 99.5314C174.575 99.5314 175.46 98.6465 175.46 97.5548C175.46 96.4632 174.575 95.5782 173.483 95.5782C172.391 95.5782 171.506 96.4632 171.506 97.5548C171.506 98.6465 172.391 99.5314 173.483 99.5314Z" fill="#D6B0FF"/>
<path opacity="0.52" d="M223.117 73.8358C224.208 73.8358 225.093 72.9509 225.093 71.8593C225.093 70.7676 224.208 69.8827 223.117 69.8827C222.025 69.8827 221.14 70.7676 221.14 71.8593C221.14 72.9509 222.025 73.8358 223.117 73.8358Z" fill="#B05AFF"/>
<path opacity="0.16" d="M193.468 70.688C196.015 70.688 198.08 68.6231 198.08 66.076C198.08 63.5288 196.015 61.464 193.468 61.464C190.921 61.464 188.856 63.5288 188.856 66.076C188.856 68.6231 190.921 70.688 193.468 70.688Z" fill="#B05AFF"/>
<path opacity="0.74" d="M128.022 47.3351L169.237 14.5386C170.701 13.3673 172.677 12.8548 174.508 13.1477L205.401 18.4185C209.793 19.1506 212.209 23.8358 210.379 27.8621L190.906 70.1023C190.32 71.2736 189.442 72.2984 188.344 73.0305L150.35 96.3102C148.593 97.4082 146.47 97.5547 144.566 96.8958L120.701 88.3307C117.333 87.0861 115.503 83.4258 116.601 79.9851L125.825 50.7026C126.191 49.3116 126.997 48.2135 128.022 47.3351Z" fill="#99B6FF"/>
<path opacity="0.88" d="M121.067 79.912L129.706 52.3131C129.925 51.5811 130.364 50.9222 131.023 50.4098L171.433 18.2722C172.312 17.6133 173.41 17.3205 174.508 17.4669L202.912 22.2985C205.401 22.7377 206.865 25.4464 205.767 27.7158L187.246 67.9061C186.953 68.565 186.441 69.1506 185.782 69.5899L148.739 92.2839C147.714 92.8695 146.543 93.0159 145.372 92.6499L123.483 84.7436C121.506 84.0115 120.482 81.8885 121.067 79.912Z" fill="#99B6FF"/>
<path opacity="0.7" d="M176.411 26.3249L196.836 29.8388L195.811 31.9618L201.374 27.0569L174.361 22.3717L176.411 26.3249Z" fill="#5EADE7"/>
<path opacity="0.7" d="M135.489 55.7539L147.86 46.8959L133.219 54.4362L134.903 57.6572L135.489 55.7539Z" fill="#5EADE7"/>
<path opacity="0.7" d="M176.411 26.325L184.464 41.7715L195.811 31.9618L196.835 29.8389L176.411 26.325Z" fill="#5EADE7"/>
<path opacity="0.7" d="M176.411 26.325L184.464 41.7715L195.811 31.9618L196.835 29.8389L176.411 26.325Z" fill="#69C6FF"/>
<path opacity="0.7" d="M165.576 37.6719L147.86 46.8959L135.488 55.7539L134.903 57.6572L146.25 79.1799L165.576 37.6719Z" fill="#5EADE7"/>
<path opacity="0.7" d="M165.576 37.6719L147.86 46.8959L135.488 55.7539L134.903 57.6572L146.25 79.1799L165.576 37.6719Z" fill="#69C6FF"/>
<path opacity="0.7" d="M183.366 56.5592L146.177 85.0365L146.104 88.8432L182.707 65.8564L183.366 56.5592Z" fill="#5EADE7"/>
<path d="M183.366 56.5592L146.177 85.0365L146.104 88.8432L182.707 65.8564L183.366 56.5592Z" fill="url(#paint0_linear_10642_6217)"/>
<path opacity="0.7" d="M146.25 79.18L146.177 85.0365L183.366 56.5592L184.464 41.7715L146.25 79.18Z" fill="#5EADE7"/>
<path opacity="0.7" d="M146.25 79.18L146.177 85.0365L183.366 56.5592L184.464 41.7715L146.25 79.18Z" fill="#69C6FF"/>
<path d="M146.25 79.18L146.177 85.0365L183.366 56.5592L184.464 41.7715L146.25 79.18Z" fill="url(#paint1_linear_10642_6217)"/>
<path opacity="0.7" d="M128.461 79.3996L134.903 57.6572L133.219 54.4362L124.8 81.5225L132.267 80.7173L128.461 79.3996Z" fill="#5EADE7"/>
<path d="M128.461 79.3996L134.903 57.6572L133.219 54.4362L124.8 81.5225L132.267 80.7173L128.461 79.3996Z" fill="url(#paint2_linear_10642_6217)"/>
<path opacity="0.7" d="M134.903 57.6572L128.461 79.3995L132.267 80.7173L146.25 79.1799L134.903 57.6572Z" fill="#5EADE7"/>
<path opacity="0.7" d="M134.903 57.6572L128.461 79.3995L132.267 80.7173L146.25 79.1799L134.903 57.6572Z" fill="#69C6FF"/>
<path d="M134.903 57.6572L128.461 79.3995L132.267 80.7173L146.25 79.1799L134.903 57.6572Z" fill="url(#paint3_linear_10642_6217)"/>
<path opacity="0.7" d="M145.591 85.4757L132.267 80.7173L124.8 81.5226L146.103 88.8432L146.177 85.0365L145.591 85.4757Z" fill="#5EADE7"/>
<path d="M145.591 85.4757L132.267 80.7173L124.8 81.5226L146.103 88.8432L146.177 85.0365L145.591 85.4757Z" fill="url(#paint4_linear_10642_6217)"/>
<path d="M145.591 85.4757L132.267 80.7173L124.8 81.5226L146.103 88.8432L146.177 85.0365L145.591 85.4757Z" fill="url(#paint5_linear_10642_6217)"/>
<path opacity="0.7" d="M132.268 80.7173L145.591 85.4757L146.177 85.0364L146.25 79.1799L132.268 80.7173Z" fill="#5EADE7"/>
<path opacity="0.7" d="M132.268 80.7173L145.591 85.4757L146.177 85.0364L146.25 79.1799L132.268 80.7173Z" fill="#69C6FF"/>
<path d="M132.268 80.7173L145.591 85.4757L146.177 85.0364L146.25 79.1799L132.268 80.7173Z" fill="url(#paint6_linear_10642_6217)"/>
<path d="M132.268 80.7173L145.591 85.4757L146.177 85.0364L146.25 79.1799L132.268 80.7173Z" fill="url(#paint7_linear_10642_6217)"/>
<path opacity="0.7" d="M176.411 26.3249L174.361 22.3717L133.219 54.4361L147.86 46.8959L176.411 26.3249Z" fill="#5EADE7"/>
<path d="M176.411 26.3249L174.361 22.3717L133.219 54.4361L147.86 46.8959L176.411 26.3249Z" fill="url(#paint8_linear_10642_6217)"/>
<path opacity="0.7" d="M146.25 79.18L184.463 41.7715L176.411 26.325L147.86 46.8959L165.576 37.6719L146.25 79.18Z" fill="#5EADE7"/>
<path opacity="0.7" d="M146.25 79.18L184.463 41.7715L176.411 26.325L147.86 46.8959L165.576 37.6719L146.25 79.18Z" fill="#69C6FF"/>
<path d="M146.25 79.18L184.463 41.7715L176.411 26.325L147.86 46.8959L165.576 37.6719L146.25 79.18Z" fill="url(#paint9_linear_10642_6217)"/>
<path opacity="0.7" d="M195.811 31.9618L183.366 56.5592L182.707 65.8564L201.374 27.057L195.811 31.9618Z" fill="#5EADE7"/>
<path d="M195.811 31.9618L183.366 56.5592L182.707 65.8564L201.374 27.057L195.811 31.9618Z" fill="url(#paint10_linear_10642_6217)"/>
<path opacity="0.7" d="M183.366 56.5592L195.811 31.9618L184.464 41.7715L183.366 56.5592Z" fill="#5EADE7"/>
<path opacity="0.7" d="M183.366 56.5592L195.811 31.9618L184.464 41.7715L183.366 56.5592Z" fill="#69C6FF"/>
<path d="M183.366 56.5592L195.811 31.9618L184.464 41.7715L183.366 56.5592Z" fill="url(#paint11_linear_10642_6217)"/>
<path d="M201.374 27.057C195.664 40.3074 189.515 53.4113 183.293 66.4421C174.068 72.2254 164.844 77.9355 155.474 83.426C152.326 85.2561 149.252 87.0863 146.104 88.8432C149.032 86.7935 152.033 84.8169 155.035 82.7671C164.039 76.7642 173.117 70.9809 182.268 65.1975L181.975 65.4904C185.123 59.0482 188.271 52.606 191.492 46.1639C194.713 39.7949 197.934 33.426 201.374 27.057Z" fill="#E4F2FF"/>
<path d="M133.219 54.4361C146.47 43.1624 160.086 32.401 173.922 21.8593L174.215 21.6396C181.023 22.8842 187.904 24.2019 194.639 25.666C196.909 26.1052 199.105 26.6177 201.301 27.1301C196.762 26.5445 192.224 25.9588 187.758 25.3C183.219 24.6411 178.754 23.9091 174.215 23.177L174.8 23.0306C171.433 25.7392 167.992 28.3747 164.552 31.0833C154.303 38.9896 143.907 46.8959 133.219 54.4361Z" fill="#E4F2FF"/>
<path d="M153.717 71.8593C160.745 63.8066 168.139 56.1931 175.606 48.6529C178.095 46.1638 180.657 43.6748 183.219 41.1858L183.073 41.9179C181.243 37.8915 179.193 33.3527 177.436 29.1799C176.85 27.789 176.191 26.3249 175.606 24.934C176.338 26.2517 177.07 27.6426 177.802 29.0335C179.998 33.1331 182.341 37.5987 184.391 41.7714C181.828 44.4801 179.266 47.1155 176.704 49.751C169.31 57.3644 161.697 64.8315 153.717 71.8593Z" fill="#E4F2FF"/>
<path opacity="0.71" d="M243.834 27.716C248.726 27.716 252.692 23.7501 252.692 18.858C252.692 13.9659 248.726 10 243.834 10C238.942 10 234.976 13.9659 234.976 18.858C234.976 23.7501 238.942 27.716 243.834 27.716Z" fill="#B05AFF"/>
<path d="M237.246 27.8624C238.822 27.8624 240.101 26.5842 240.101 25.0074C240.101 23.4306 238.822 22.1523 237.246 22.1523C235.669 22.1523 234.391 23.4306 234.391 25.0074C234.391 26.5842 235.669 27.8624 237.246 27.8624Z" fill="#C38BFF"/>
<path opacity="0.45" d="M81.6079 85.8999C85.0873 85.8999 87.9079 83.0793 87.9079 79.5999C87.9079 76.1206 85.0873 73.2999 81.6079 73.2999C78.1285 73.2999 75.3079 76.1206 75.3079 79.5999C75.3079 83.0793 78.1285 85.8999 81.6079 85.8999Z" fill="#B05AFF"/>
<path opacity="0.45" d="M87.5078 81.3999C90.9872 81.3999 93.8078 78.5793 93.8078 75.0999C93.8078 71.6206 90.9872 68.7999 87.5078 68.7999C84.0284 68.7999 81.2078 71.6206 81.2078 75.0999C81.2078 78.5793 84.0284 81.3999 87.5078 81.3999Z" fill="#B05AFF"/>
<path d="M82.708 81.6C84.2544 81.6 85.508 80.3464 85.508 78.8C85.508 77.2536 84.2544 76 82.708 76C81.1616 76 79.908 77.2536 79.908 78.8C79.908 80.3464 81.1616 81.6 82.708 81.6Z" fill="#D6B0FF"/>
<defs>
<linearGradient id="paint0_linear_10642_6217" x1="167.382" y1="72.0573" x2="123.302" y2="82.7329" gradientUnits="userSpaceOnUse">
<stop offset="0.00558659" stop-color="#0B669E"/>
<stop offset="1" stop-color="#0B669E" stop-opacity="0"/>
</linearGradient>
<linearGradient id="paint1_linear_10642_6217" x1="165.289" y1="63.4158" x2="121.209" y2="74.0913" gradientUnits="userSpaceOnUse">
<stop offset="0.00558659" stop-color="#0B669E"/>
<stop offset="1" stop-color="#0B669E" stop-opacity="0"/>
</linearGradient>
<linearGradient id="paint2_linear_10642_6217" x1="116.684" y1="60.6796" x2="150.843" y2="80.8373" gradientUnits="userSpaceOnUse">
<stop stop-color="#1AA8FF"/>
<stop offset="1" stop-color="#1383D2" stop-opacity="0"/>
</linearGradient>
<linearGradient id="paint3_linear_10642_6217" x1="117.143" y1="59.9013" x2="151.303" y2="80.059" gradientUnits="userSpaceOnUse">
<stop stop-color="#1AA8FF"/>
<stop offset="1" stop-color="#1383D2" stop-opacity="0"/>
</linearGradient>
<linearGradient id="paint4_linear_10642_6217" x1="168.619" y1="77.167" x2="124.539" y2="87.8425" gradientUnits="userSpaceOnUse">
<stop offset="0.00558659" stop-color="#0B669E"/>
<stop offset="1" stop-color="#0B669E" stop-opacity="0"/>
</linearGradient>
<linearGradient id="paint5_linear_10642_6217" x1="111.653" y1="69.2055" x2="145.812" y2="89.3633" gradientUnits="userSpaceOnUse">
<stop stop-color="#1AA8FF"/>
<stop offset="1" stop-color="#1383D2" stop-opacity="0"/>
</linearGradient>
<linearGradient id="paint6_linear_10642_6217" x1="168.329" y1="75.9681" x2="124.249" y2="86.6437" gradientUnits="userSpaceOnUse">
<stop offset="0.00558659" stop-color="#0B669E"/>
<stop offset="1" stop-color="#0B669E" stop-opacity="0"/>
</linearGradient>
<linearGradient id="paint7_linear_10642_6217" x1="114.086" y1="65.0816" x2="148.246" y2="85.2393" gradientUnits="userSpaceOnUse">
<stop stop-color="#1AA8FF"/>
<stop offset="1" stop-color="#1383D2" stop-opacity="0"/>
</linearGradient>
<linearGradient id="paint8_linear_10642_6217" x1="169.28" y1="26.541" x2="133.764" y2="60.536" gradientUnits="userSpaceOnUse">
<stop stop-color="#1AA8FF"/>
<stop offset="1" stop-color="#1383D2" stop-opacity="0"/>
</linearGradient>
<linearGradient id="paint9_linear_10642_6217" x1="176.883" y1="34.4844" x2="141.367" y2="68.4794" gradientUnits="userSpaceOnUse">
<stop stop-color="#1AA8FF"/>
<stop offset="1" stop-color="#1383D2" stop-opacity="0"/>
</linearGradient>
<linearGradient id="paint10_linear_10642_6217" x1="200.949" y1="32.7537" x2="179.01" y2="63.0522" gradientUnits="userSpaceOnUse">
<stop stop-color="#1383D2"/>
<stop offset="1" stop-color="#1383D2" stop-opacity="0"/>
</linearGradient>
<linearGradient id="paint11_linear_10642_6217" x1="197.592" y1="30.3234" x2="175.654" y2="60.6219" gradientUnits="userSpaceOnUse">
<stop stop-color="#1383D2"/>
<stop offset="1" stop-color="#1383D2" stop-opacity="0"/>
</linearGradient>
</defs>
</svg>
