<svg width="92" height="120" viewBox="0 0 92 120" fill="none" xmlns="http://www.w3.org/2000/svg">
<path d="M22.1656 66.51C20.8257 69.7178 19.5669 73.0067 18.5112 76.2957C17.7397 78.7319 15.9125 82.7518 18.1864 84.8632C18.9985 85.6347 20.1354 85.9595 21.2723 85.8783C22.7747 85.7971 25.0891 85.3098 26.3478 84.3759" stroke="#1C222B" stroke-width="8.8697" stroke-miterlimit="10"/>
<path d="M68.7792 66.51C70.1191 69.7178 71.3779 73.0067 72.4336 76.2957C73.205 78.7319 75.0322 82.7518 72.7584 84.8632C71.9463 85.6347 70.8094 85.9595 69.6725 85.8783C68.1701 85.7971 65.8557 85.3098 64.5969 84.3759" stroke="#1C222B" stroke-width="8.8697" stroke-miterlimit="10"/>
<path d="M21.0285 87.7055C19.4856 87.7055 17.9832 87.1776 16.9681 86.2031C14.0852 83.5232 15.5064 79.4222 16.4403 76.7017C16.5621 76.3768 16.6839 76.052 16.7651 75.7678C17.7396 72.7224 18.9577 69.4741 20.5007 65.8197L23.8302 67.2003C22.3685 70.7328 21.1504 73.8594 20.2165 76.8235C20.0946 77.1483 20.0134 77.4732 19.851 77.8386C19.1608 79.7876 18.2675 82.4675 19.4044 83.5232C19.8104 83.8886 20.4601 84.1323 21.191 84.0917C22.4903 84.0511 24.3987 83.5638 25.2514 82.9547L27.3628 85.8783C25.5762 87.1776 22.7339 87.6648 21.3128 87.7055C21.2316 87.7055 21.1504 87.7055 21.0285 87.7055Z" fill="#1C222B"/>
<path d="M21.0287 86.9339C19.6888 86.9339 18.3895 86.4467 17.4556 85.6346C14.9381 83.3202 16.1968 79.6252 17.1307 76.9453V76.9047C17.2525 76.5798 17.3337 76.255 17.4556 75.9708C18.3488 73.1285 19.4858 70.1237 20.8663 66.7942L22.7747 67.6063C21.4348 70.8546 20.3385 73.8187 19.4452 76.6204C19.364 76.9453 19.2421 77.2701 19.1203 77.6355C18.3895 79.7876 17.3743 82.7111 18.8767 84.1322C19.4046 84.6195 20.176 84.9037 21.0287 84.9037C21.0693 84.9037 21.1505 84.9037 21.1911 84.9037C22.3687 84.8631 23.9522 84.4977 25.008 84.0104L26.2667 85.7158C24.6019 86.6091 22.3687 86.9339 21.2724 87.0151C21.1912 86.9339 21.1099 86.9339 21.0287 86.9339Z" fill="#13171C"/>
<path d="M69.8753 87.7055C69.7941 87.7055 69.6723 87.7055 69.5911 87.7055C68.1699 87.6242 65.3276 87.1776 63.541 85.8783L65.6524 82.9547C66.5051 83.6044 68.4541 84.0511 69.7129 84.0917C70.4031 84.1323 71.0528 83.9292 71.4995 83.5232C72.6364 82.4675 71.7431 79.7876 71.0528 77.8386C70.931 77.4732 70.8092 77.1483 70.6874 76.8235C69.7535 73.8594 68.5353 70.6922 67.0736 67.2003L70.4032 65.8197C71.9055 69.4335 73.1236 72.6818 74.1387 75.7678C74.22 76.052 74.3418 76.3768 74.4636 76.7017C75.3975 79.4222 76.8592 83.5232 73.9357 86.2031C72.9206 87.137 71.4589 87.7055 69.8753 87.7055Z" fill="#1C222B"/>
<path d="M69.8754 86.934C69.7942 86.934 69.713 86.934 69.6318 86.934C68.5355 86.8934 66.3022 86.5685 64.6375 85.6346L65.8962 83.9293C66.9925 84.4571 68.5761 84.7819 69.713 84.8226C69.7536 84.8226 69.8348 84.8226 69.8754 84.8226C70.7281 84.8226 71.4996 84.5383 72.0274 84.0511C73.5298 82.6299 72.5147 79.7064 71.7838 77.5544C71.662 77.1889 71.5402 76.8641 71.459 76.5393C70.5657 73.7376 69.4694 70.8141 68.1294 67.5251L70.0378 66.713C71.4184 70.0426 72.5147 73.0473 73.4486 75.8896C73.5298 76.1738 73.6516 76.4987 73.7734 76.8235V76.8641C74.7073 79.544 75.9661 83.239 73.4486 85.5534C72.5553 86.4467 71.256 86.934 69.8754 86.934Z" fill="#13171C"/>
<path d="M25.6979 75.8084L17.9019 73.1691C16.2777 72.6007 15.1814 71.0983 15.1814 69.3929C15.1814 65.1295 18.6328 61.6781 22.8962 61.6781H32.0728C33.8188 61.6781 35.2805 63.0992 35.2805 64.8858V68.9869C35.3212 73.9 30.408 77.4326 25.6979 75.8084Z" fill="#8392A9"/>
<path d="M25.6985 75.8083C23.5464 75.2399 21.1914 74.5496 19.0393 73.8999L17.943 73.5751C15.8316 73.0066 14.4917 70.8952 14.7353 68.7432C14.9383 64.6015 18.7145 61.1096 22.8968 61.2314C26.7542 61.3126 30.571 61.4344 34.3878 61.678C31.3018 61.881 28.2565 62.0029 25.1706 62.0841C23.8713 62.1247 21.9629 62.0435 20.7447 62.4901C17.9836 63.3834 15.9128 65.9415 15.6692 68.8244C15.3849 70.5704 16.4407 72.357 18.146 72.8848L19.2424 73.2909C21.3538 74.0623 23.6276 74.9556 25.6985 75.8083Z" fill="#F2D2FF"/>
<path opacity="0.75" d="M25.9823 74.0623L20.5819 71.9509C19.445 71.5043 18.7141 70.2861 18.7141 68.9462C18.7141 65.576 21.1098 62.8149 24.0739 62.8149H30.4082C31.6263 62.8149 32.6008 63.9519 32.6008 65.3324V68.5808C32.6414 72.56 29.2306 75.3211 25.9823 74.0623Z" fill="#4D596E"/>
<path d="M64.9623 75.8084L72.7583 73.1691C74.3825 72.6007 75.4788 71.0983 75.4788 69.3929C75.4788 65.1295 72.0274 61.6781 67.764 61.6781H58.5874C56.8414 61.6781 55.3796 63.0992 55.3796 64.8858V68.9869C55.339 73.9 60.2522 77.4326 64.9623 75.8084Z" fill="#8392A9"/>
<path d="M64.9619 75.8084C66.8704 74.9963 69.0224 74.1436 70.9714 73.4127C71.5399 73.1691 72.4331 72.8849 72.961 72.6413C75.6409 71.3419 75.2754 67.8906 73.9761 65.7385C72.5956 63.3023 69.9563 61.9623 67.1546 62.0435C64.2717 61.9623 61.3888 61.8405 58.5059 61.6375C61.7542 61.4345 65.0026 61.2314 68.2509 61.2314C70.9308 61.3127 73.4889 62.8962 74.8288 65.2107C76.4124 67.8906 76.5748 71.951 73.2858 73.3315C72.6362 73.6158 71.8241 73.7782 71.1744 74.0218C69.1848 74.6309 66.9922 75.2805 64.9619 75.8084Z" fill="#F2D2FF"/>
<path opacity="0.75" d="M64.6779 74.0623L70.0783 71.9509C71.2152 71.5043 71.9461 70.2861 71.9461 68.9462C71.9461 65.576 69.5505 62.8149 66.5864 62.8149H60.2521C59.0339 62.8149 58.0594 63.9519 58.0594 65.3324V68.5808C58.0188 72.56 61.4296 75.3211 64.6779 74.0623Z" fill="#4D596E"/>
<path d="M66.3834 74.7933V99.968C66.3834 102.567 64.7186 104.759 62.4042 105.571C61.9575 105.734 61.5515 105.937 61.186 106.221C60.8206 106.546 60.4552 106.83 60.0897 107.155C59.7243 107.48 59.3994 107.764 59.0746 108.089C56.0293 111.094 54.0397 114.301 52.0501 117.306C51.644 117.915 51.0756 118.402 50.4665 118.768C50.1417 118.93 49.7762 119.093 49.4108 119.214C48.8829 119.377 48.3551 119.417 47.7866 119.417H42.8329C42.2644 119.417 41.7366 119.336 41.2087 119.174C40.8433 119.052 40.4778 118.93 40.153 118.727C39.5033 118.362 38.9755 117.874 38.5694 117.265C36.5798 114.261 34.5902 111.094 31.5449 108.048L31.5043 108.008C31.1794 107.683 30.8546 107.399 30.5298 107.074C30.1643 106.749 29.8395 106.465 29.4334 106.14C29.068 105.856 28.662 105.612 28.2153 105.49C25.9009 104.678 24.2361 102.485 24.2361 99.8868V74.7121C24.2361 66.3476 31.017 59.5667 39.3815 59.5667H51.1974C59.6025 59.6479 66.3834 66.4288 66.3834 74.7933Z" fill="#8392A9"/>
<path d="M66.3838 76.5798C66.5462 83.0765 66.6274 90.3041 66.7086 96.8414C66.7086 97.9783 66.7492 99.0746 66.7492 100.212C66.7086 102.77 64.9626 105.165 62.5263 106.018C61.633 106.343 61.024 107.074 60.2931 107.642C57.8162 109.875 55.8266 112.596 53.9588 115.398C53.634 115.844 52.8625 117.062 52.5783 117.509C51.7662 118.849 50.3044 119.702 48.8021 119.905C47.8276 120.026 46.3658 119.945 45.3507 119.986H43.6453C41.4933 120.108 39.2601 119.458 38.0825 117.509C35.8087 114.017 33.4536 110.484 30.3677 107.683C29.6774 107.074 29.0278 106.343 28.1345 106.059L27.7284 105.896C25.4952 104.962 23.9522 102.688 23.9116 100.252C23.9116 99.1152 23.9116 97.9783 23.9522 96.882C24.0334 90.3447 24.1146 83.1171 24.2771 76.6204C24.3989 83.1171 24.5613 90.3447 24.6019 96.882C24.6019 98.0189 24.6019 99.1559 24.6425 100.252C24.7237 102.364 26.1043 104.353 28.0939 105.125C29.2714 105.45 30.1241 106.262 30.9768 107.074C34.1439 109.916 36.5802 113.489 38.8946 117.022C39.9097 118.687 41.8181 119.133 43.6453 119.011H45.3507C45.9192 119.011 47.3403 119.011 47.8682 119.011C49.1269 119.011 50.4669 118.565 51.3195 117.631C51.6444 117.347 51.9692 116.697 52.2534 116.331C54.4461 113.043 56.7605 109.713 59.7246 107.074C60.4961 106.424 61.2676 105.612 62.2421 105.287C64.3941 104.597 65.9777 102.526 66.0589 100.252C66.0995 99.1559 66.0995 98.0189 66.0995 96.882C66.0995 90.2635 66.2619 83.0765 66.3838 76.5798Z" fill="#F2D2FF"/>
<path opacity="0.75" d="M42.8736 116.413C42.5894 116.413 42.3458 116.372 42.1022 116.291C41.9397 116.25 41.8179 116.169 41.6961 116.128C41.4525 116.007 41.2901 115.844 41.1683 115.641C40.9246 115.276 40.7216 114.91 40.478 114.545C38.6914 111.703 36.6612 108.454 33.6971 105.368L33.6565 105.328C33.3316 104.962 32.9662 104.637 32.6008 104.272C32.1947 103.866 31.7887 103.5 31.4232 103.176C30.8142 102.648 30.0833 102.201 29.3118 101.917C28.1343 101.47 27.3628 100.333 27.3628 99.034V72.3975C27.3628 65.3324 32.8038 59.6072 39.4629 59.6072H51.2787C57.9379 59.6072 63.3788 65.3324 63.3788 72.3975V99.034C63.3788 100.333 62.6074 101.47 61.4298 101.917C60.6177 102.201 59.9275 102.648 59.2778 103.176C58.9124 103.5 58.5063 103.866 58.1003 104.272C57.7348 104.597 57.41 104.962 57.0446 105.328L57.004 105.368C54.0805 108.454 52.0502 111.662 50.223 114.545C50.02 114.91 49.7764 115.235 49.5734 115.601C49.4516 115.804 49.2485 116.007 49.0455 116.128C48.9237 116.21 48.7613 116.25 48.5989 116.331C48.3552 116.413 48.1116 116.453 47.8274 116.453H42.8736V116.413Z" fill="#4D596E"/>
<path opacity="0.37" d="M66.3834 82.0209V82.9548C65.7743 82.9548 64.9622 83.036 63.9877 83.3202C61.9169 83.9293 58.6686 85.5128 54.8924 89.8169C53.3088 91.6035 52.0501 92.9434 50.7913 94.121C49.6138 95.2173 48.1926 96.3542 46.1624 96.6384C46.0406 96.6384 45.9594 96.679 45.8376 96.679C45.6752 96.679 45.4722 96.7196 45.3097 96.7196C45.1473 96.7196 44.9443 96.7196 44.7819 96.679C44.6601 96.679 44.5789 96.6384 44.457 96.6384C42.4268 96.3542 41.0057 95.2173 39.8282 94.121C38.5694 92.9434 37.2701 91.6035 35.7271 89.8169C33.6563 87.4212 30.3673 84.3759 26.6317 83.3202C25.6572 83.036 24.8451 82.9548 24.2361 82.9548V82.0209C26.4287 82.0209 30.9358 82.9548 36.4174 89.2078C37.9604 90.9944 39.2191 92.2938 40.4778 93.4713C41.5741 94.4864 42.8329 95.5015 44.5789 95.7451C44.8225 95.7857 45.0661 95.7857 45.2691 95.7857C45.5128 95.7857 45.7564 95.7451 45.9594 95.7451C47.7054 95.5015 48.9641 94.527 50.0604 93.4713C51.3192 92.2938 52.5779 90.9944 54.1209 89.2078C59.6837 82.9954 64.1908 82.0209 66.3834 82.0209Z" fill="#5F6A7A"/>
<path d="M53.2681 54.9377H41.0056V62.0435H53.2681V54.9377Z" fill="url(#paint0_linear_10646_7860)"/>
<path d="M55.339 62.0435H38.9754C38.5288 62.0435 38.1633 61.678 38.1633 61.2314C38.1633 60.7848 38.5288 60.4193 38.9754 60.4193H55.339C55.7856 60.4193 56.1511 60.7848 56.1511 61.2314C56.1511 61.678 55.7856 62.0435 55.339 62.0435Z" fill="url(#paint1_linear_10646_7860)"/>
<path d="M7.14174 34.6356C10.5952 34.6356 13.3948 31.327 13.3948 27.2456C13.3948 23.1642 10.5952 19.8556 7.14174 19.8556C3.68827 19.8556 0.888672 23.1642 0.888672 27.2456C0.888672 31.327 3.68827 34.6356 7.14174 34.6356Z" fill="#5F6A7A"/>
<path d="M20.2569 39.7111H12.136C7.14165 39.7111 3.12183 35.6506 3.12183 30.6969V23.6724C3.12183 18.678 7.18226 14.6582 12.136 14.6582H20.2569V39.7111Z" fill="#8392A9"/>
<path d="M12.1358 39.7111C7.9942 40.5638 3.40592 36.9906 3.32471 32.6865C4.90828 36.3815 8.19723 39.0208 12.1358 39.7111Z" fill="#F2D2FF"/>
<path opacity="0.41" d="M10.5527 36.747C7.22317 36.747 4.50269 34.0265 4.50269 30.6969V23.6724C4.50269 20.3428 7.22317 17.6223 10.5527 17.6223H15.7095V36.747H10.5527Z" fill="#4D596E"/>
<path d="M84.8585 34.6356C88.312 34.6356 91.1116 31.327 91.1116 27.2456C91.1116 23.1642 88.312 19.8556 84.8585 19.8556C81.4051 19.8556 78.6055 23.1642 78.6055 27.2456C78.6055 31.327 81.4051 34.6356 84.8585 34.6356Z" fill="#6C7886"/>
<path d="M71.7432 39.7111H79.864C84.8584 39.7111 88.8782 35.6506 88.8782 30.6969V23.6724C88.8782 18.678 84.8178 14.6582 79.864 14.6582H71.7432V39.7111Z" fill="#8392A9"/>
<path d="M79.864 39.7111C83.2748 39.1426 86.3201 37.1124 87.8225 33.9858C88.3097 32.9707 88.6752 31.8744 88.8782 30.6969C89.8121 35.6912 84.8583 40.6044 79.864 39.7111Z" fill="#F2D2FF"/>
<path opacity="0.41" d="M76.291 36.747V17.6223H81.4478C84.7773 17.6223 87.4978 20.3428 87.4978 23.6724V30.6563C87.4978 33.9859 84.7773 36.7064 81.4478 36.7064H76.291V36.747Z" fill="#4D596E"/>
<path d="M84.2493 18.5156V37.3967V40.239V40.9292V40.9698V41.8631C84.2493 41.8631 84.2493 42.4316 84.0463 43.3249C84.0057 43.6091 83.9245 43.8934 83.8433 44.2182C83.8027 44.2994 83.8027 44.3806 83.7621 44.4618C83.6809 44.746 83.559 45.0709 83.4372 45.3957C83.2748 45.8018 83.1124 46.1672 82.9094 46.6138C82.8688 46.6544 82.8688 46.695 82.8282 46.7356C81.6506 49.0095 79.458 51.5676 75.4382 53.0699C70.3626 54.9783 65.8149 56.2371 62.932 56.9273C60.9018 57.4146 58.8716 57.6988 56.8008 57.78C55.3796 57.8612 53.5118 57.9018 51.3192 57.9424H40.6809C38.4882 57.9018 36.6204 57.8612 35.1993 57.78C33.1284 57.6988 31.0982 57.4146 29.068 56.9273C26.1851 56.2371 21.5968 54.9783 16.5619 53.0699C12.542 51.527 10.3494 49.0095 9.17189 46.7356C9.13129 46.695 9.13128 46.6544 9.09068 46.6138C8.88766 46.2078 8.72524 45.8018 8.56283 45.3957C8.44101 45.0709 8.3192 44.746 8.23799 44.4618C8.19739 44.3806 8.19739 44.2994 8.15678 44.2182C8.07557 43.8934 7.99436 43.6091 7.95376 43.3249C7.79134 42.4316 7.75074 41.8631 7.75074 41.8631V40.9698V40.9292V40.239V37.3967V18.5156C7.75074 18.5156 7.46651 16.8915 8.48161 14.3334C8.48161 14.2928 8.52222 14.2522 8.52222 14.2522C8.60343 14.0492 8.68464 13.8867 8.76585 13.6837C8.76585 13.6431 8.80645 13.6025 8.80645 13.6025C9.21249 12.7092 9.78095 11.7347 10.5524 10.679C10.593 10.6384 10.593 10.5978 10.6336 10.5572C10.7555 10.3542 10.9179 10.1917 11.0803 9.98872C11.1209 9.94812 11.1209 9.90751 11.1615 9.86691C12.0142 8.8112 13.1105 7.67427 14.4098 6.49675C20.3787 1.29939 24.3579 0.365494 25.7385 0.203076C25.7791 0.203076 25.7791 0.203076 25.8197 0.203076C26.1445 0.162472 26.3069 0.162476 26.3069 0.162476H65.6931C65.6931 0.162476 65.8555 0.162472 66.1804 0.203076C66.221 0.203076 66.221 0.203076 66.2616 0.203076C67.6421 0.365494 71.6214 1.29939 77.5902 6.49675C78.9301 7.67427 79.9859 8.77059 80.8385 9.86691C80.8792 9.90751 80.8792 9.94812 80.9198 9.98872C81.0822 10.1917 81.204 10.3542 81.3664 10.5572C81.407 10.5978 81.407 10.6384 81.4476 10.679C82.2191 11.7347 82.7876 12.7092 83.1936 13.6431C83.1936 13.6837 83.2342 13.7243 83.2342 13.7243C83.3154 13.9273 83.3966 14.0898 83.4778 14.2928C83.4778 14.3334 83.5184 14.374 83.5184 14.374C84.5335 16.8509 84.2493 18.5156 84.2493 18.5156Z" fill="#8392A9"/>
<path d="M84.2495 38.493L84.3307 41.5383C84.2901 44.6243 82.9501 47.629 80.8793 49.9028C78.037 52.9888 73.8547 54.0445 70.0379 55.3844C66.1399 56.6026 62.2419 57.8613 58.1409 58.2267C52.0908 58.5922 45.919 58.511 39.8689 58.4704C38.0823 58.3892 35.5242 58.3892 33.7783 58.2267C29.6772 57.8613 25.7792 56.6026 21.8812 55.3844C15.5063 53.273 10.2277 51.6082 8.11632 44.4619C7.8727 43.4874 7.66967 42.4723 7.71028 41.4165L7.79149 38.3712C7.9133 40.4014 7.71028 42.4722 8.40055 44.3807C9.57808 48.2381 12.664 51.2834 16.3996 52.6639C20.1758 54.0851 24.0738 55.222 27.9718 56.1965C29.9209 56.6838 31.8699 57.0898 33.8595 57.2116C35.5649 57.374 38.1635 57.3334 39.9095 57.4146C45.919 57.4146 52.0908 57.5365 58.1003 57.2116C62.1201 56.9274 65.9775 55.7093 69.8349 54.613C74.9511 53.0294 80.189 51.6082 82.7877 46.5327C83.5592 44.9897 84.1683 43.2843 84.2089 41.4977C84.1683 41.5383 84.2495 38.493 84.2495 38.493Z" fill="#F2D2FF"/>
<path opacity="0.41" d="M76.3721 7.83666C70.4844 2.63931 67.0331 2.15205 66.7082 2.11145H25.2918H25.2512H25.2106C24.6421 2.19266 21.272 2.84233 15.628 7.83666C10.1464 12.6686 10.0652 16.323 10.0652 16.8102L10.1058 37.5996V42.3504C10.1058 42.4722 10.2276 43.7715 10.9179 45.2739C11.9736 47.5883 13.882 49.2937 16.5213 50.3494C21.6374 52.339 26.2257 53.5978 29.1492 54.3286C30.9764 54.7753 32.8848 55.0595 34.7526 55.1407C36.5798 55.2219 38.4476 55.2625 40.3966 55.3031H51.4816C53.39 55.2625 55.2984 55.2219 57.1256 55.1407C58.9934 55.0595 60.9018 54.7753 62.729 54.3286C65.6931 53.5978 70.2814 52.339 75.357 50.3494C77.915 49.3749 79.7422 47.7507 80.8385 45.5581C81.61 43.9745 81.7724 42.5534 81.7724 42.3504V37.6402L81.8131 16.8508C81.9349 16.3636 81.8537 12.6686 76.3721 7.83666Z" fill="#4D596E"/>
<path d="M75.9663 42.188H16.0343C14.8974 42.188 13.9635 41.3353 13.8823 40.1984L12.8671 26.4741C12.2987 18.7593 18.4299 12.1814 26.1448 12.1814H65.8152C73.5706 12.1814 79.6613 18.7593 79.0928 26.4741L78.0777 40.1984C78.0371 41.3353 77.1032 42.188 75.9663 42.188Z" fill="#1D2A3A"/>
<path d="M75.9663 42.188H16.0343C14.8974 42.188 13.9635 41.3353 13.8823 40.1984L12.8671 26.4741C12.2987 18.7593 18.4299 12.1814 26.1448 12.1814H65.8152C73.5706 12.1814 79.6613 18.7593 79.0928 26.4741L78.0777 40.1984C78.0371 41.3353 77.1032 42.188 75.9663 42.188Z" fill="#1C222B"/>
<path d="M39.9092 31.5497C39.422 31.5497 39.0971 32.0369 39.2595 32.4836C40.0716 34.7574 42.7921 36.4628 45.9999 36.4628C49.2076 36.4628 51.9281 34.798 52.7402 32.4836C52.9026 32.0369 52.5778 31.5497 52.0905 31.5497H39.9092Z" fill="white"/>
<path d="M24.642 30.6969C23.1803 30.6969 21.9622 29.5194 21.9622 28.0171V25.1748C21.9622 23.713 23.1397 22.4949 24.642 22.4949C26.1038 22.4949 27.3219 23.6724 27.3219 25.1748V28.0171C27.3219 29.4788 26.1444 30.6969 24.642 30.6969Z" fill="white"/>
<path d="M67.3579 30.6969C65.8961 30.6969 64.678 29.5194 64.678 28.0171V25.1748C64.678 23.713 65.8555 22.4949 67.3579 22.4949C68.8196 22.4949 70.0378 23.6724 70.0378 25.1748V28.0171C70.0378 29.4788 68.8196 30.6969 67.3579 30.6969Z" fill="white"/>
<path opacity="0.48" d="M37.2296 67.119C37.409 67.119 37.5545 66.9736 37.5545 66.7942C37.5545 66.6148 37.409 66.4694 37.2296 66.4694C37.0502 66.4694 36.9048 66.6148 36.9048 66.7942C36.9048 66.9736 37.0502 67.119 37.2296 67.119Z" fill="white"/>
<path opacity="0.59" d="M52.7406 68.5808C52.92 68.5808 53.0654 68.4354 53.0654 68.256C53.0654 68.0766 52.92 67.9312 52.7406 67.9312C52.5612 67.9312 52.4158 68.0766 52.4158 68.256C52.4158 68.4354 52.5612 68.5808 52.7406 68.5808Z" fill="white"/>
<path opacity="0.59" d="M39.1381 86.2031C39.3175 86.2031 39.4629 86.0577 39.4629 85.8783C39.4629 85.6989 39.3175 85.5535 39.1381 85.5535C38.9587 85.5535 38.8132 85.6989 38.8132 85.8783C38.8132 86.0577 38.9587 86.2031 39.1381 86.2031Z" fill="white"/>
<path opacity="0.59" d="M50.7507 80.3561C51.0198 80.3561 51.2379 80.1379 51.2379 79.8688C51.2379 79.5997 51.0198 79.3816 50.7507 79.3816C50.4816 79.3816 50.2634 79.5997 50.2634 79.8688C50.2634 80.1379 50.4816 80.3561 50.7507 80.3561Z" fill="white"/>
<path d="M38.6506 80.3561C38.9197 80.3561 39.1378 80.1379 39.1378 79.8688C39.1378 79.5997 38.9197 79.3816 38.6506 79.3816C38.3815 79.3816 38.1633 79.5997 38.1633 79.8688C38.1633 80.1379 38.3815 80.3561 38.6506 80.3561Z" fill="white"/>
<path opacity="0.4" d="M44.7412 83.848C45.0103 83.848 45.2284 83.6299 45.2284 83.3608C45.2284 83.0917 45.0103 82.8735 44.7412 82.8735C44.4721 82.8735 44.2539 83.0917 44.2539 83.3608C44.2539 83.6299 44.4721 83.848 44.7412 83.848Z" fill="white"/>
<path opacity="0.4" d="M54.8112 81.2087C54.9458 81.2087 55.0549 81.0996 55.0549 80.9651C55.0549 80.8305 54.9458 80.7214 54.8112 80.7214C54.6767 80.7214 54.5676 80.8305 54.5676 80.9651C54.5676 81.0996 54.6767 81.2087 54.8112 81.2087Z" fill="white"/>
<path opacity="0.44" d="M41.6149 64.8046C41.7943 64.8046 41.9397 64.6591 41.9397 64.4797C41.9397 64.3003 41.7943 64.1549 41.6149 64.1549C41.4355 64.1549 41.29 64.3003 41.29 64.4797C41.29 64.6591 41.4355 64.8046 41.6149 64.8046Z" fill="white"/>
<path opacity="0.55" d="M52.3343 63.8707C52.4913 63.8707 52.6185 63.7434 52.6185 63.5865C52.6185 63.4295 52.4913 63.3022 52.3343 63.3022C52.1773 63.3022 52.05 63.4295 52.05 63.5865C52.05 63.7434 52.1773 63.8707 52.3343 63.8707Z" fill="white"/>
<path opacity="0.55" d="M50.7505 88.5581C50.9075 88.5581 51.0348 88.4308 51.0348 88.2739C51.0348 88.1169 50.9075 87.9896 50.7505 87.9896C50.5936 87.9896 50.4663 88.1169 50.4663 88.2739C50.4663 88.4308 50.5936 88.5581 50.7505 88.5581Z" fill="white"/>
<path d="M39.4628 76.2144C39.6422 76.2144 39.7876 76.0689 39.7876 75.8895C39.7876 75.7101 39.6422 75.5647 39.4628 75.5647C39.2834 75.5647 39.1379 75.7101 39.1379 75.8895C39.1379 76.0689 39.2834 76.2144 39.4628 76.2144Z" fill="white"/>
<path opacity="0.01" d="M47.8679 84.4164C48.0697 84.4164 48.2333 84.2528 48.2333 84.051C48.2333 83.8492 48.0697 83.6855 47.8679 83.6855C47.6661 83.6855 47.5024 83.8492 47.5024 84.051C47.5024 84.2528 47.6661 84.4164 47.8679 84.4164Z" fill="white"/>
<path d="M54.73 76.864C55.0888 76.864 55.3797 76.5732 55.3797 76.2144C55.3797 75.8556 55.0888 75.5647 54.73 75.5647C54.3712 75.5647 54.0803 75.8556 54.0803 76.2144C54.0803 76.5732 54.3712 76.864 54.73 76.864Z" fill="white"/>
<path d="M61.1861 72.1946L59.5213 71.5449C58.8717 71.3013 58.222 71.1794 57.5317 71.1794H54.527C53.5525 71.1794 52.781 71.9509 52.781 72.9254V73.8593C52.781 74.306 52.984 74.7526 53.3089 75.0775L57.4099 79.1785L61.1861 72.1946Z" fill="#1C222B"/>
<path d="M60.374 46.8981L60.2522 47.5883L60.0085 48.8471H32.0321L31.7885 47.5883L31.6667 46.8981C31.5449 46.289 32.0321 45.6799 32.6818 45.6799H59.4401C60.0085 45.6799 60.4958 46.2484 60.374 46.8981Z" fill="#262E3A"/>
<path d="M60.1303 56.8055L60.049 57.1304L59.44 58.8764L58.8309 60.6223H33.169L32.5599 58.8764L31.9508 57.1304L31.8696 56.8055H60.1303Z" fill="#262E3A"/>
<path opacity="0.7" d="M60.2523 47.5884L60.0087 48.8471H31.9917L31.748 47.5884H60.2523Z" fill="#111519"/>
<path d="M60.0899 57.1303H31.8699C31.5857 57.1303 31.342 56.8867 31.342 56.6025V49.0501C31.342 48.7658 31.5857 48.5222 31.8699 48.5222H60.0899C60.3741 48.5222 60.6178 48.7658 60.6178 49.0501V56.6025C60.6178 56.8867 60.3741 57.1303 60.0899 57.1303Z" fill="#262E3A"/>
<path opacity="0.75" d="M58.1812 60.3382C58.1406 60.5006 57.9782 60.6224 57.8564 60.6224H34.1434C33.981 60.6224 33.8592 60.5006 33.8186 60.3382L32.5599 57.171C32.4381 56.8868 32.3975 56.562 32.3975 56.2371V49.8622C32.3975 49.6592 32.5599 49.4562 32.7629 49.4562C33.0065 49.4562 33.1689 49.2126 33.1283 48.9689L32.7629 47.0605L32.7223 46.7763C32.6817 46.5327 32.8441 46.2891 33.0877 46.2891H58.9933C59.2369 46.2891 59.3993 46.5327 59.3587 46.7763L58.9527 49.0095C58.9121 49.2532 59.0745 49.4968 59.3181 49.4968C59.5212 49.4968 59.6836 49.6592 59.6836 49.9028V56.2777C59.6836 56.6026 59.643 56.9274 59.5212 57.2116L58.1812 60.3382Z" fill="#1B2128"/>
<path opacity="0.42" d="M60.0491 57.1304L59.4401 58.8764H32.56L31.9509 57.1304H60.0491Z" fill="#111519"/>
<path opacity="0.42" d="M56.8823 54.8971H35.0778C34.6718 54.8971 34.3469 54.5723 34.3469 54.1662V51.4457C34.3469 51.0397 34.6718 50.7148 35.0778 50.7148H56.8823C57.2884 50.7148 57.6132 51.0397 57.6132 51.4457V54.1662C57.6132 54.5723 57.2884 54.8971 56.8823 54.8971Z" fill="#111519"/>
<path opacity="0.19" d="M32.0728 93.3901V59.9321C32.0728 59.4854 32.4382 59.12 32.8848 59.12H59.1152C59.5619 59.12 59.9273 59.4854 59.9273 59.9321V93.3901C59.9273 93.8367 59.5619 94.2022 59.1152 94.2022H32.8848C32.4382 94.1616 32.0728 93.8367 32.0728 93.3901Z" fill="#408EFF"/>
<path opacity="0.19" d="M58.9123 59.12H33.0879V96.7196H58.9123V59.12Z" fill="#408EFF"/>
<path opacity="0.56" d="M57.6129 61.8405H34.3872V91.4816H57.6129V61.8405Z" fill="#7DB8FF"/>
<path opacity="0.56" d="M41.3306 61.8405H37.3108V91.4816H41.3306V61.8405Z" fill="#94CAFF"/>
<path opacity="0.56" d="M55.3392 61.8405H50.3855V91.4816H55.3392V61.8405Z" fill="#94CAFF"/>
<path d="M34.387 91.5628C34.1028 81.7365 34.1028 71.7885 34.387 61.9216C34.6712 71.7479 34.6712 81.7365 34.387 91.5628Z" fill="#C7E2FF"/>
<path d="M57.6131 61.9216C57.8973 71.7479 57.8973 81.6959 57.6131 91.5628C57.3288 81.7365 57.3288 71.7479 57.6131 61.9216Z" fill="#C7E2FF"/>
<path d="M59.0748 94.7706H32.7632V92.4155C32.7632 91.9283 33.1692 91.5222 33.6565 91.5222H58.2221C58.7094 91.5222 59.1154 91.9283 59.1154 92.4155V94.7706H59.0748Z" fill="#262E3A"/>
<path d="M59.6835 99.9679H32.1944C31.7478 99.9679 31.3823 99.6025 31.3823 99.1558V94.8518C31.3823 94.4051 31.7478 94.0397 32.1944 94.0397H59.6835C60.1302 94.0397 60.4956 94.4051 60.4956 94.8518V99.1558C60.4956 99.6025 60.1302 99.9679 59.6835 99.9679Z" fill="#262E3A"/>
<path d="M59.6429 105.612H32.2756C31.7884 105.612 31.3823 105.206 31.3823 104.719V102.891C31.3823 102.404 31.7884 101.998 32.2756 101.998H59.6429C60.1302 101.998 60.5362 102.404 60.5362 102.891V104.719C60.4956 105.247 60.1302 105.612 59.6429 105.612Z" fill="#262E3A"/>
<path d="M59.1151 99.9679H32.8035V102.039H59.1151V99.9679Z" fill="#262E3A"/>
<path opacity="0.7" d="M41.3713 61.1097C43.361 61.0691 45.3912 61.1503 47.3402 61.2721C47.9492 61.3127 48.8019 61.3533 49.2892 61.4345C49.8982 61.3127 50.6291 61.1909 51.1976 61.1097C51.4006 61.0691 51.6442 61.0284 51.8473 61.0284C51.6442 61.1097 51.4412 61.1503 51.2382 61.1909C50.6697 61.3533 49.9389 61.5563 49.3704 61.6781C48.6801 61.6781 48.0304 61.6375 47.3402 61.5969C45.3506 61.4751 43.3203 61.3533 41.3713 61.1097Z" fill="#80B9FF"/>
<path opacity="0.58" d="M46.4467 61.8405H43.5232V91.5628H46.4467V61.8405Z" fill="url(#paint2_linear_10646_7860)"/>
<path d="M59.0748 100.415V101.755L59.6027 102.079C60.0899 102.079 60.496 102.485 60.496 102.973V104.8C60.496 105.287 60.0899 105.693 59.6027 105.693H32.2353C31.7481 105.693 31.342 105.287 31.342 104.8V102.973C31.342 102.485 31.7481 102.079 32.2353 102.079L32.7632 101.836V100.415C32.7632 100.171 32.5602 100.009 32.3571 100.009H32.1947C31.7481 100.009 31.3826 99.6432 31.3826 99.1965V94.8925C31.3826 94.4458 31.7481 94.0804 32.1947 94.0804H32.8038V92.4968C32.8038 92.0096 33.2098 91.6035 33.6971 91.6035H58.2221C58.7094 91.6035 59.1154 92.0096 59.1154 92.4968V94.0804H59.7245C60.1711 94.0804 60.5366 94.4458 60.5366 94.8925V99.1965C60.5366 99.6432 60.1711 100.009 59.7245 100.009H59.5621C59.2778 99.968 59.0748 100.171 59.0748 100.415Z" fill="#262E3A"/>
<path d="M32.8035 92.4156C32.8035 91.7253 33.4125 91.4411 34.0216 91.4817L35.727 91.4411L39.1377 91.4005C44.7817 91.3193 50.5476 91.3599 56.1916 91.4411L57.8969 91.4817C58.506 91.4411 59.1151 91.7253 59.1151 92.4156C59.0745 91.7659 58.4654 91.5223 57.8969 91.6035L56.1916 91.6441C50.5476 91.7659 44.7817 91.7659 39.1377 91.6847L35.727 91.6441L34.0216 91.6035C33.4531 91.5223 32.8035 91.8065 32.8035 92.4156Z" fill="#A3D0FF"/>
<path opacity="0.75" d="M32.2354 104.313V103.338C32.2354 103.094 32.4384 102.891 32.682 102.891H33.2505C33.4941 102.891 33.6971 102.688 33.6971 102.445V99.4807C33.6971 99.237 33.4941 99.034 33.2505 99.034H32.682C32.4384 99.034 32.2354 98.831 32.2354 98.5874V95.2578C32.2354 95.0142 32.4384 94.8112 32.682 94.8112H33.2505C33.4941 94.8112 33.6971 94.6082 33.6971 94.3645V92.7404C33.6971 92.4967 33.9001 92.2937 34.1438 92.2937H57.7755C58.0191 92.2937 58.2221 92.4967 58.2221 92.7404V94.3645C58.2221 94.6082 58.4251 94.8112 58.6688 94.8112H59.2372C59.4809 94.8112 59.6839 95.0142 59.6839 95.2578V98.5874C59.6839 98.831 59.4809 99.034 59.2372 99.034H58.6688C58.4251 99.034 58.2221 99.237 58.2221 99.4807V102.445C58.2221 102.688 58.4251 102.891 58.6688 102.891H59.2372C59.4809 102.891 59.6839 103.094 59.6839 103.338V104.313C59.6839 104.556 59.4809 104.759 59.2372 104.759H32.7226C32.4384 104.759 32.2354 104.556 32.2354 104.313Z" fill="#1B2128"/>
<path opacity="0.42" d="M59.1559 101.917H32.7225V100.252L32.4382 99.9679H59.3589L59.1559 100.293V101.917Z" fill="#111519"/>
<path opacity="0.42" d="M59.1151 92.3344H32.8035V93.9991H59.1151V92.3344Z" fill="#111519"/>
<path d="M58.6686 61.9217H33.3315C32.9254 61.9217 32.6006 61.678 32.4788 61.272L32.1133 59.9727C31.9509 59.4042 32.357 58.8763 32.966 58.8763H59.0746C59.6431 58.8763 60.0897 59.4448 59.9273 59.9727L59.5619 61.272C59.3995 61.678 59.0746 61.9217 58.6686 61.9217Z" fill="#262E3A"/>
<path d="M59.5214 61.3126C59.4402 61.7593 58.953 62.0435 58.5063 62.0029H58.0597L56.3543 62.0435C48.9237 62.2059 41.3713 62.2059 33.9407 62.0029C33.7377 62.0029 33.291 62.0029 33.088 61.9217C32.8038 61.8405 32.6007 61.5969 32.5195 61.3126C32.6007 61.5969 32.8444 61.7999 33.088 61.8811C33.291 61.9623 33.6971 61.8811 33.9407 61.8811C41.3713 61.6781 48.9237 61.6781 56.3543 61.8405L58.0597 61.8811C58.2627 61.8811 58.7093 61.9217 58.9124 61.8811C59.1966 61.7999 59.4402 61.5562 59.5214 61.3126Z" fill="#A3D0FF"/>
<path d="M33.2502 60.7442L33.1284 60.3381C33.0472 60.0539 33.2502 59.7697 33.5344 59.7697H58.4655C58.7497 59.7697 58.9528 60.0539 58.8715 60.3381L58.7497 60.7442C58.7091 60.9472 58.5061 61.069 58.3437 61.069H33.6563C33.4532 61.069 33.2908 60.9472 33.2502 60.7442Z" fill="#1B2128"/>
<path opacity="0.42" d="M56.8823 98.7904H34.9966C34.6312 98.7904 34.3469 98.5062 34.3469 98.1408V95.9481C34.3469 95.5827 34.6312 95.2985 34.9966 95.2985H56.8823C57.2478 95.2985 57.532 95.5827 57.532 95.9481V98.1408C57.532 98.5062 57.2478 98.7904 56.8823 98.7904Z" fill="#111519"/>
<path opacity="0.74" d="M39.5444 81.899L39.9911 69.5147C39.9911 69.068 40.1941 68.662 40.5595 68.3778L46.2035 63.6676C47.0156 63.018 48.2338 63.2616 48.6398 64.2361L53.1875 74.1842C53.3093 74.4684 53.3499 74.7932 53.3093 75.0775L51.6851 85.391C51.6039 85.8782 51.3197 86.2843 50.9136 86.5279L45.7163 89.492C44.9854 89.898 44.0515 89.695 43.6049 88.9641L39.7881 82.8329C39.6256 82.5081 39.5444 82.2238 39.5444 81.899Z" fill="#99B6FF"/>
<path opacity="0.88" d="M44.2955 88.1114L40.6817 82.3456C40.6005 82.1832 40.5193 82.0208 40.5599 81.8178L40.9659 69.6771C40.9659 69.4334 41.0877 69.1898 41.2907 69.0274L46.4881 64.6827C46.9348 64.3173 47.6656 64.4391 47.9093 65.0076L52.2539 74.4684C52.3351 74.6308 52.3351 74.8338 52.3351 74.9962L50.7516 85.0661C50.711 85.3503 50.5485 85.594 50.3049 85.7158L45.5542 88.4363C45.1076 88.6799 44.5391 88.5175 44.2955 88.1114Z" fill="#99B6FF"/>
<mask id="mask0_10646_7860" style="mask-type:luminance" maskUnits="userSpaceOnUse" x="41" y="65" width="11" height="23">
<path d="M41.6172 82.0614L42.145 69.7989L47.1394 65.6979L51.1998 74.9557L49.7381 85.0255L45.1498 87.7054L41.6172 82.0614Z" fill="white"/>
</mask>
<g mask="url(#mask0_10646_7860)">
<path opacity="0.7" d="M41.6167 82.0614L42.1446 69.7989L47.1389 65.6979L51.1993 74.9557L50.1842 85.6346L45.7989 88.6799L41.6167 82.0614Z" fill="#5EADE7"/>
</g>
<mask id="mask1_10646_7860" style="mask-type:luminance" maskUnits="userSpaceOnUse" x="41" y="65" width="11" height="23">
<path d="M41.6172 82.0614L42.145 69.7989L47.1394 65.6979L51.1998 74.9557L49.7381 85.0255L45.1498 87.7054L41.6172 82.0614Z" fill="white"/>
</mask>
<g mask="url(#mask1_10646_7860)">
<path opacity="0.7" d="M45.3118 86.7309L42.1853 81.8584L43.1598 70.0426L46.936 66.916L49.6565 73.4127L49.0474 84.5789L45.3118 86.7309Z" fill="url(#paint3_linear_10646_7860)"/>
</g>
<mask id="mask2_10646_7860" style="mask-type:luminance" maskUnits="userSpaceOnUse" x="41" y="65" width="11" height="23">
<path d="M41.6172 82.0614L42.145 69.7989L47.1394 65.6979L51.1998 74.9557L49.7381 85.0255L45.1498 87.7054L41.6172 82.0614Z" fill="white"/>
</mask>
<g mask="url(#mask2_10646_7860)">
<path d="M51.7679 86.4467L45.1494 87.7054L48.0323 83.5232L47.1796 70.9764L51.1995 74.9557L51.7679 86.4467Z" fill="url(#paint4_linear_10646_7860)"/>
</g>
<mask id="mask3_10646_7860" style="mask-type:luminance" maskUnits="userSpaceOnUse" x="41" y="65" width="11" height="23">
<path d="M41.6172 82.0614L42.145 69.7989L47.1394 65.6979L51.1998 74.9557L49.7381 85.0255L45.1498 87.7054L41.6172 82.0614Z" fill="white"/>
</mask>
<g mask="url(#mask3_10646_7860)">
<path d="M42.6318 89.9387L40.0737 85.6346L41.6167 82.0614L48.0322 83.5232L49.7376 85.0255L45.9614 89.9792L42.6318 89.9387Z" fill="url(#paint5_linear_10646_7860)"/>
</g>
<mask id="mask4_10646_7860" style="mask-type:luminance" maskUnits="userSpaceOnUse" x="41" y="65" width="11" height="23">
<path d="M41.6172 82.0614L42.145 69.7989L47.1394 65.6979L51.1998 74.9557L49.7381 85.0255L45.1498 87.7054L41.6172 82.0614Z" fill="white"/>
</mask>
<g mask="url(#mask4_10646_7860)">
<path d="M48.0322 83.5232L43.5657 73.697L41.6167 82.0615L42.1446 69.799L47.1795 70.9765L48.0322 83.5232Z" fill="url(#paint6_linear_10646_7860)"/>
</g>
<mask id="mask5_10646_7860" style="mask-type:luminance" maskUnits="userSpaceOnUse" x="41" y="65" width="11" height="23">
<path d="M41.6172 82.0614L42.145 69.7989L47.1394 65.6979L51.1998 74.9557L49.7381 85.0255L45.1498 87.7054L41.6172 82.0614Z" fill="white"/>
</mask>
<g mask="url(#mask5_10646_7860)">
<path d="M47.1387 65.6979L47.1793 70.9764L51.1991 74.9557L52.6609 74.7932L50.3058 68.3778L47.1387 65.6979Z" fill="url(#paint7_linear_10646_7860)"/>
</g>
<path d="M47.1377 65.6979C48.6401 68.7026 50.0612 71.8697 51.4012 74.9557C51.1575 76.458 50.8733 78.5694 50.5891 80.0312C50.3048 81.696 50.0206 83.3608 49.6958 85.0255C49.8582 83.3202 50.0612 81.6554 50.3048 79.9906C50.5079 78.5289 50.7921 76.4174 50.9951 74.9557V75.0775C49.6958 71.9916 48.3152 68.7838 47.1377 65.6979Z" fill="#B5DCFF"/>
<path d="M41.6162 82.0614C41.6162 78.1228 41.7786 73.7781 42.0223 69.7989V69.7177L42.0629 69.6771C42.8749 68.9868 43.7276 68.3372 44.5803 67.6469C45.433 66.9972 46.2857 66.3475 47.1384 65.6979C46.3263 66.4288 45.5548 67.119 44.7427 67.8499C43.9307 68.5402 43.1186 69.2711 42.3065 69.9613L42.3471 69.8395C42.1847 73.7781 41.9816 78.1228 41.6162 82.0614Z" fill="#B5DCFF"/>
<path d="M47.8687 81.0463C47.4626 77.7979 47.219 74.2248 47.016 70.9764L47.1378 71.1388C46.4069 70.9764 45.676 70.7734 44.9858 70.5704C44.2549 70.3673 43.5646 70.1643 42.8337 69.9613C43.5646 70.0831 44.2955 70.2049 45.0264 70.3673C45.7979 70.5298 46.5693 70.6516 47.3408 70.8546V70.9764L47.5438 73.4939C47.6657 75.9301 47.8281 78.61 47.8687 81.0463Z" fill="#B5DCFF"/>
<path d="M49.5736 66.4693C47.2592 66.5911 47.2185 66.6723 47.0967 69.9207C47.0155 66.7129 46.9343 66.5911 44.6199 66.4693C46.9343 66.3475 46.9749 66.2663 47.0967 63.0179C47.1779 66.2663 47.2592 66.3475 49.5736 66.4693Z" fill="white"/>
<path d="M34.1841 84.1322C34.8338 87.4212 33.0066 90.4259 30.0424 91.847C26.7941 93.4712 22.0434 93.39 19.932 90.0198C19.5259 89.3296 19.3229 88.5175 19.3635 87.7054C19.3635 86.9745 19.3635 86.1624 19.4041 85.4315C19.6071 86.4061 19.6883 87.4618 19.8914 88.3957C20.744 91.2786 24.1954 92.2125 26.8753 91.7658C30.9357 91.238 34.1841 88.3957 34.1841 84.1322Z" fill="#9988AC"/>
<path d="M32.2357 86.1625C32.6824 85.6347 33.1696 85.1068 33.7381 84.6602C34.7126 83.8887 35.8901 83.2796 37.0676 83.1984C37.7985 83.1578 38.4888 83.3202 39.1791 83.3202C39.9099 83.3202 40.722 83.0766 41.1281 82.4675C41.4935 81.9397 41.4529 81.2494 41.1687 80.8027C40.8844 80.3561 40.3566 80.0313 39.8287 79.7876C38.1233 79.0974 36.0525 78.9756 34.1035 79.9907C31.2206 81.4524 29.5964 83.8481 29.5964 83.8481L32.2357 86.1625Z" fill="#1C222B"/>
<path d="M30.6116 83.7263C31.2206 82.9548 32.5606 81.5743 34.4284 80.6404C35.2811 80.1937 36.1744 79.9907 37.1083 79.9907C37.9204 79.9907 38.7324 80.1531 39.5039 80.478C39.9912 80.681 40.316 80.9246 40.4784 81.1682C40.6002 81.3713 40.6408 81.7367 40.4784 82.0209C40.2348 82.3458 39.7069 82.5488 39.1385 82.5488H39.0573C38.773 82.5488 38.5294 82.5082 38.2046 82.5082C37.8797 82.4676 37.5549 82.427 37.2301 82.427C37.1489 82.427 37.0677 82.427 36.9865 82.427C35.7683 82.4676 34.4284 83.0767 33.2102 84.0512C32.8448 84.3354 32.52 84.6602 32.1139 85.0663L30.6116 83.7263Z" fill="#13171C"/>
<path d="M32.3983 82.5894C32.845 82.0615 33.3322 81.5337 33.9007 81.087C34.8752 80.3156 36.0527 79.7065 37.2302 79.6253C37.9611 79.5847 38.6514 79.7471 39.3417 79.7471C40.0725 79.7471 40.8846 79.5035 41.2907 78.8944C41.6561 78.3666 41.6155 77.6763 41.3313 77.2296C41.047 76.7424 40.5192 76.4581 39.9913 76.2145C38.2859 75.5242 36.2151 75.4024 34.2661 76.4175C31.3832 77.8793 29.759 80.275 29.759 80.275L32.3983 82.5894Z" fill="#1C222B"/>
<path d="M30.7742 80.1531C31.3832 79.3816 32.7232 78.0011 34.591 77.0672C35.4437 76.6205 36.337 76.4175 37.2709 76.4175C38.083 76.4175 38.895 76.5799 39.6665 76.9047C40.1538 77.1078 40.4786 77.3514 40.641 77.595C40.7628 77.798 40.8034 78.1635 40.641 78.4477C40.3568 78.8537 39.7477 78.9756 39.3011 78.9756H39.2199C38.9356 78.9756 38.692 78.935 38.3672 78.935C38.0423 78.8944 37.7175 78.8537 37.3927 78.8537C37.3115 78.8537 37.2303 78.8537 37.1491 78.8537C35.9309 78.8943 34.591 79.5034 33.3728 80.4779C33.0074 80.7621 32.6826 81.087 32.2765 81.493L30.7742 80.1531Z" fill="#13171C"/>
<path d="M32.5606 79.0162C33.0072 78.4883 33.4945 77.9605 34.0629 77.5138C35.0374 76.7424 36.215 76.1333 37.3925 76.0521C38.1234 76.0115 38.8137 76.1739 39.5039 76.1739C40.2348 76.1739 41.0469 75.9303 41.4529 75.3212C41.8184 74.7933 41.7778 74.1031 41.4935 73.6564C41.2093 73.1692 40.6815 72.8849 40.1536 72.6413C38.4482 71.951 34.1848 71.9104 32.2358 72.9255C29.3528 74.3873 29.8807 76.7017 29.8807 76.7017L32.5606 79.0162Z" fill="#1C222B"/>
<path d="M32.2354 72.9255C33.7378 72.154 35.4838 72.0322 37.1486 72.0322C38.2855 72.0728 39.4224 72.154 40.4781 72.6007C42.6707 73.5346 42.2647 76.1333 39.9096 76.4175L39.9503 75.9708C40.8842 76.2957 41.8181 77.0266 41.8181 78.0823C41.8181 79.1786 40.7623 79.8689 39.7878 79.9907L39.8284 79.544C42.0617 80.2343 42.3459 82.9142 39.869 83.4826C38.6915 83.7263 37.5952 83.1984 36.4177 83.4826C34.7123 83.8075 33.3724 84.9444 32.1948 86.2031C33.5754 84.4165 35.6868 82.7518 38.0825 83.1578C39.0976 83.2796 40.3969 83.239 40.9654 82.3051C41.5338 81.29 40.5593 80.3561 39.5848 80.0313L38.6915 79.7064L39.6254 79.5846C41.7774 79.2598 41.6962 77.1078 39.7472 76.4987L38.8945 76.1739L39.7878 76.0521C41.6962 75.849 42.0211 73.8594 40.2345 73.0473C38.7321 72.3571 37.0267 72.3571 35.4026 72.3977C34.3875 72.3571 33.2505 72.4789 32.2354 72.9255Z" fill="#E9F2FF"/>
<path d="M30.6115 76.3363C30.5709 75.8085 30.7334 74.5497 32.5606 73.6158C33.4132 73.1692 34.9562 72.9255 36.621 72.9255C37.9609 72.9255 39.1791 73.088 39.8693 73.3722C40.3566 73.5752 40.6814 73.8188 40.8438 74.0625C40.9657 74.2655 41.0063 74.6309 40.8438 74.9152C40.6002 75.24 40.0724 75.443 39.5039 75.443H39.4633C39.1791 75.443 38.8948 75.4024 38.6106 75.4024C38.2858 75.3618 37.9609 75.3212 37.5955 75.3212C37.5143 75.3212 37.4331 75.3212 37.3519 75.3212C36.1337 75.3618 34.7938 75.9709 33.5757 76.9454C33.2102 77.2296 32.8854 77.5544 32.4793 77.9605L30.6115 76.3363Z" fill="#13171C"/>
<path d="M60.1309 86.1624C59.6842 85.6345 59.197 85.1067 58.6285 84.66C57.654 83.8886 56.4765 83.2795 55.299 83.1983C54.5681 83.1577 53.8778 83.3201 53.1875 83.3201C52.4567 83.3201 51.6446 83.0765 51.2385 82.4674C50.8731 81.9395 50.9137 81.2493 51.1979 80.8026C51.4822 80.3154 52.01 80.0311 52.5379 79.7875C54.2433 79.0972 56.3141 78.9754 58.2631 79.9905C61.146 81.4523 62.7702 83.848 62.7702 83.848L60.1309 86.1624Z" fill="#1C222B"/>
<path d="M61.755 83.7262C61.1459 82.9547 59.806 81.5742 57.9382 80.6403C57.0855 80.1936 56.1922 79.9906 55.2583 79.9906C54.4462 79.9906 53.6341 80.153 52.8626 80.4778C52.3754 80.6809 52.0505 80.9245 51.8881 81.1681C51.7663 81.3711 51.7257 81.7366 51.8881 82.0208C52.1318 82.3457 52.6596 82.5487 53.2281 82.5487H53.3093C53.5935 82.5487 53.8371 82.5081 54.162 82.5081C54.4868 82.4675 54.8116 82.4269 55.1365 82.4269C55.2177 82.4269 55.2989 82.4269 55.3801 82.4269C56.5982 82.4675 57.9382 83.0765 59.1563 84.051C59.5217 84.3353 59.8466 84.6601 60.2526 85.0661L61.755 83.7262Z" fill="#13171C"/>
<path d="M59.9683 82.5893C59.5216 82.0614 59.0344 81.5336 58.4659 81.0869C57.4914 80.3154 56.3139 79.7064 55.1364 79.6252C54.4055 79.5846 53.7152 79.747 53.025 79.747C52.2941 79.747 51.482 79.5034 51.0759 78.8943C50.7105 78.3664 50.7511 77.6762 51.0353 77.2295C51.3196 76.7423 51.8474 76.458 52.3753 76.2144C54.0807 75.5241 56.1515 75.4023 58.1005 76.4174C60.9834 77.8792 62.6076 80.2748 62.6076 80.2748L59.9683 82.5893Z" fill="#1C222B"/>
<path d="M61.5924 80.153C60.9833 79.3815 59.6434 78.0009 57.7756 77.067C56.9229 76.6204 56.0296 76.4174 55.0957 76.4174C54.2836 76.4174 53.4715 76.5798 52.7 76.9046C52.2128 77.1076 51.888 77.3513 51.7255 77.5949C51.6037 77.7979 51.5631 78.1633 51.7255 78.4476C52.0098 78.8536 52.6188 78.9754 53.0655 78.9754H53.1467C53.4309 78.9754 53.6745 78.9348 53.9994 78.9348C54.3242 78.8942 54.649 78.8536 54.9739 78.8536C55.0551 78.8536 55.1363 78.8536 55.2175 78.8536C56.4356 78.8942 57.7756 79.5033 58.9937 80.4778C59.3591 80.762 59.684 81.0869 60.09 81.4929L61.5924 80.153Z" fill="#13171C"/>
<path d="M59.8059 79.0161C59.3593 78.4882 58.872 77.9604 58.3036 77.5137C57.3291 76.7422 56.1515 76.1332 54.974 76.052C54.2431 76.0113 53.5529 76.1738 52.8626 76.1738C52.1317 76.1738 51.3196 75.9301 50.9136 75.3211C50.5481 74.7932 50.5888 74.1029 50.873 73.6563C51.1572 73.169 51.6851 72.8848 52.2129 72.6412C53.9183 71.9509 58.1818 71.9103 60.1308 72.9254C63.0137 74.3872 62.4858 76.7016 62.4858 76.7016L59.8059 79.0161Z" fill="#1C222B"/>
<path d="M60.1312 72.9254C58.1822 72.0727 52.0103 71.7479 50.9546 73.9811C50.5486 75.0369 51.4825 75.8895 52.4976 75.9708L53.3909 76.0926L52.5382 76.4174C50.5892 77.0265 50.508 79.1785 52.66 79.5033L53.5939 79.6251L52.7006 79.95C51.7261 80.2342 50.7922 81.1681 51.3201 82.2238C51.8885 83.1983 53.1879 83.1983 54.203 83.0765C56.5986 82.7111 58.7101 84.3352 60.0906 86.1218C58.9537 84.9037 57.5731 83.7262 55.8678 83.4014C54.7308 83.1577 53.5939 83.645 52.4164 83.4014C49.9395 82.8329 50.2238 80.153 52.457 79.4627L52.4976 79.9094C51.5231 79.8282 50.4268 79.0973 50.4674 78.001C50.4268 76.9047 51.4013 76.1738 52.3352 75.8896L52.3758 76.3362C50.0207 76.052 49.6147 73.4127 51.8073 72.5194C52.863 72.0727 54.0406 71.9915 55.1369 71.9509C56.8829 72.0321 58.6289 72.1539 60.1312 72.9254Z" fill="#E9F2FF"/>
<path d="M61.7549 76.3362C61.7955 75.8083 61.6331 74.5496 59.8059 73.6157C58.9532 73.169 57.4103 72.9254 55.7455 72.9254C54.4056 72.9254 53.1874 73.0878 52.4972 73.3721C52.0099 73.5751 51.6851 73.8187 51.5227 74.0623C51.4008 74.2654 51.3602 74.6308 51.5227 74.915C51.7663 75.2399 52.2941 75.4429 52.8626 75.4429H52.9032C53.1874 75.4429 53.4717 75.4023 53.7559 75.4023C54.0807 75.3617 54.4056 75.3211 54.771 75.3211C54.8522 75.3211 54.9334 75.3211 55.0146 75.3211C56.2328 75.3617 57.5727 75.9708 58.7908 76.9453C59.1563 77.2295 59.4811 77.5543 59.8871 77.9604L61.7549 76.3362Z" fill="#13171C"/>
<path d="M21.7188 78.7319L25.4951 74.306C26.6726 72.8848 28.7028 72.0728 30.8954 72.0728H31.9105C33.2099 72.0728 34.2656 72.8848 34.2656 73.8999V85.188C34.2656 86.7715 33.6159 88.3551 32.3978 89.6138C30.8548 91.238 28.4592 92.2531 25.8605 92.3749C22.6121 92.4967 19.8104 90.5883 19.648 88.0303L19.445 85.4316C19.2014 83.0765 20.0135 80.7215 21.7188 78.7319Z" fill="#6C7887"/>
<path opacity="0.75" d="M29.6774 73.4127C30.4895 73.4127 31.1391 74.1436 31.1391 75.0775V84.8225C31.1391 86.0001 30.7331 87.137 29.921 88.1115C28.8653 89.4108 27.0787 90.2229 25.2109 90.3447C25.1297 90.3447 25.0485 90.3447 25.0079 90.3447C23.0589 90.3447 21.3941 89.1266 21.2723 87.5836L21.1099 84.985C20.9881 83.0359 21.5565 81.1681 22.8153 79.5034L26.1448 75.0775C26.8757 74.0624 28.2562 73.4127 29.6774 73.4127Z" fill="#4D596E"/>
<path d="M69.2259 78.7319L65.4497 74.306C64.2722 72.8848 62.242 72.0728 60.0494 72.0728H59.0343C57.7349 72.0728 56.6792 72.8848 56.6792 73.8999V85.188C56.6792 86.7715 57.3289 88.3551 58.547 89.6138C60.09 91.238 62.4856 92.2531 65.0843 92.3749C68.3326 92.4967 71.1343 90.5883 71.2968 88.0303L71.4998 85.4316C71.7028 83.0765 70.8907 80.7215 69.2259 78.7319Z" fill="#6C7887"/>
<path d="M56.7198 85.188C57.0447 88.1115 59.2373 90.3041 61.836 91.238C64.3534 92.1719 67.4394 92.2531 69.5914 90.5072C70.7689 89.6545 71.0938 88.2739 71.2562 86.8934C71.3374 86.4061 71.4186 85.9189 71.4998 85.4722C71.4998 85.9595 71.5404 86.4467 71.5404 86.934V87.6649C71.7028 89.4921 70.4847 91.1974 68.9011 92.0501C64.1098 94.6488 56.2326 91.1162 56.7198 85.188Z" fill="#9988AC"/>
<path opacity="0.75" d="M61.2267 73.4127C60.4146 73.4127 59.7649 74.1436 59.7649 75.0775V84.8225C59.7649 86.0001 60.1709 87.137 60.983 88.1115C62.0387 89.4108 63.8253 90.2229 65.6931 90.3447C65.7743 90.3447 65.8555 90.3447 65.8962 90.3447C67.8452 90.3447 69.5099 89.1266 69.6317 87.5836L69.7942 84.985C69.916 83.0359 69.3475 81.1681 68.0888 79.5034L64.7592 75.0775C64.069 74.0624 62.6884 73.4127 61.2267 73.4127Z" fill="#4D596E"/>
<path d="M22.1246 66.3475C20.7846 69.5553 19.5259 72.8442 18.4702 76.1332C17.6987 78.5694 15.8715 82.5893 18.1454 84.7007C18.9574 85.4722 20.0944 85.797 21.2313 85.7158C22.7336 85.6346 25.0481 85.1473 26.3068 84.2134" stroke="#1C222B" stroke-width="8.8697" stroke-miterlimit="10"/>
<path d="M68.7792 66.3475C70.1191 69.5553 71.3779 72.8442 72.4336 76.1332C73.205 78.5694 75.0322 82.5893 72.7584 84.7007C71.9463 85.4722 70.8094 85.797 69.6725 85.7158C68.1701 85.6346 65.8557 85.1473 64.5969 84.2134" stroke="#1C222B" stroke-width="8.8697" stroke-miterlimit="10"/>
<path d="M21.0285 87.543C19.4856 87.543 17.9832 87.0151 16.9681 86.0406C14.0852 83.3607 15.5064 79.2597 16.4403 76.5392C16.5621 76.2144 16.6839 75.8895 16.7651 75.6053C17.7396 72.56 18.9577 69.3116 20.5007 65.6572L23.8302 67.0378C22.3685 70.5703 21.1504 73.6969 20.2165 76.661C20.0946 76.9858 20.0134 77.3107 19.851 77.6761C19.1608 79.6251 18.2675 82.305 19.4044 83.3607C19.8104 83.7262 20.4601 83.9698 21.191 83.9292C22.4903 83.8886 24.3987 83.4013 25.2514 82.7923L27.3628 85.7158C25.5762 87.0151 22.7339 87.5024 21.3128 87.543C21.2316 87.543 21.1098 87.543 21.0285 87.543Z" fill="#1C222B"/>
<path d="M21.0287 86.7715C19.6888 86.7715 18.3895 86.2842 17.4556 85.4721C14.9381 83.1577 16.1968 79.4627 17.1307 76.7828V76.7422C17.2525 76.4174 17.3337 76.0925 17.4556 75.8083C18.3488 72.966 19.4858 69.9613 20.8663 66.6317L22.7747 67.4438C21.4348 70.6921 20.3385 73.6563 19.4452 76.458C19.364 76.7828 19.2421 77.1076 19.1203 77.4731C18.3895 79.6251 17.3743 82.5486 18.8767 83.9698C19.4046 84.457 20.176 84.7413 21.0287 84.7413C21.0693 84.7413 21.1505 84.7413 21.1911 84.7413C22.3687 84.7006 23.9522 84.3352 25.008 83.848L26.2667 85.5533C24.6019 86.4466 22.3687 86.7715 21.2724 86.8527C21.1912 86.7715 21.1099 86.7715 21.0287 86.7715Z" fill="#13171C"/>
<path d="M69.8753 87.543C69.7941 87.543 69.6723 87.543 69.5911 87.543C68.1699 87.4618 65.3276 87.0151 63.541 85.7158L65.6524 82.7923C66.5051 83.4419 68.4541 83.8886 69.7129 83.9292C70.4031 83.9698 71.0528 83.7668 71.4995 83.3607C72.6364 82.305 71.7431 79.6251 71.0528 77.6761C70.931 77.3107 70.8092 76.9858 70.6874 76.661C69.7535 73.6969 68.5353 70.5297 67.0736 67.0378L70.4032 65.6572C71.9055 69.271 73.1236 72.5194 74.1387 75.6053C74.22 75.8895 74.3418 76.2144 74.4636 76.5392C75.3975 79.2597 76.8592 83.3607 73.9357 86.0406C72.9206 86.9745 71.4183 87.543 69.8753 87.543Z" fill="#1C222B"/>
<path d="M69.8754 86.7715C69.7942 86.7715 69.713 86.7715 69.6318 86.7715C68.5355 86.7309 66.3022 86.4061 64.6375 85.4722L65.8962 83.7668C66.9925 84.2946 68.5761 84.6195 69.713 84.6601C69.7536 84.6601 69.8348 84.6601 69.8754 84.6601C70.7281 84.6601 71.4996 84.3758 72.0274 83.8886C73.5298 82.4674 72.5147 79.5439 71.7838 77.3919C71.662 77.0264 71.5402 76.7016 71.459 76.3768C70.5657 73.5751 69.4694 70.6516 68.1294 67.3626L70.0378 66.5505C71.4184 69.8801 72.5147 72.8848 73.4486 75.7271C73.5298 76.0114 73.6516 76.3362 73.7734 76.661V76.7016C74.7073 79.3815 75.9661 83.0765 73.4486 85.3909C72.5553 86.2842 71.256 86.7715 69.8754 86.7715Z" fill="#13171C"/>
<path d="M25.6571 75.6459L17.8611 73.0066C16.2369 72.4382 15.1406 70.9358 15.1406 69.2304C15.1406 64.967 18.592 61.5156 22.8554 61.5156H32.032C33.778 61.5156 35.2398 62.9368 35.2398 64.7234V68.8244C35.2804 73.7375 30.4079 77.2701 25.6571 75.6459Z" fill="#8392A9"/>
<path d="M25.6569 75.6458C23.5049 75.0774 21.1499 74.3871 18.9978 73.7374L17.9015 73.4126C15.7901 72.8441 14.4501 70.7327 14.6938 68.5807C14.8968 64.439 18.673 60.9471 22.8552 61.0689C26.7127 61.1501 30.5295 61.2719 34.3463 61.5155C31.2603 61.7186 28.215 61.8404 25.1291 61.9216C23.8298 61.9622 21.9213 61.881 20.7032 62.3276C17.9421 63.2209 15.8713 65.779 15.6277 68.6619C15.3434 70.4079 16.3992 72.1945 18.1045 72.7223L19.2009 73.1284C21.3529 73.8999 23.6267 74.7932 25.6569 75.6458Z" fill="#F2D2FF"/>
<path opacity="0.75" d="M25.9823 73.8999L20.5819 71.7884C19.445 71.3418 18.7141 70.1237 18.7141 68.7837C18.7141 65.4136 21.1098 62.6525 24.0739 62.6525H30.4082C31.6263 62.6525 32.6008 63.7894 32.6008 65.1699V68.4183C32.6008 72.3975 29.2306 75.1586 25.9823 73.8999Z" fill="#4D596E"/>
<path d="M64.9623 75.6459L72.7583 73.0066C74.3825 72.4382 75.4788 70.9358 75.4788 69.2304C75.4788 64.967 72.0274 61.5156 67.764 61.5156H58.5874C56.8414 61.5156 55.3796 62.9368 55.3796 64.7234V68.8244C55.339 73.7375 60.2522 77.2701 64.9623 75.6459Z" fill="#8392A9"/>
<path d="M64.9619 75.6459C66.8704 74.8338 69.0224 73.9812 70.9714 73.2503C71.5399 73.0066 72.4331 72.7224 72.961 72.4788C75.6409 71.1795 75.2754 67.7281 73.9761 65.5761C72.5956 63.1398 69.9563 61.7998 67.1546 61.8811C64.2717 61.7998 61.3888 61.678 58.5059 61.475C61.7542 61.272 65.0026 61.069 68.2509 61.069C70.9308 61.1502 73.4889 62.7337 74.8288 65.0482C76.4124 67.7281 76.5748 71.7885 73.2858 73.1691C72.6362 73.4533 71.8241 73.6157 71.1744 73.8593C69.1848 74.4684 66.9922 75.1587 64.9619 75.6459Z" fill="#F2D2FF"/>
<path opacity="0.75" d="M64.6779 73.8999L70.0783 71.7884C71.2152 71.3418 71.9461 70.1237 71.9461 68.7837C71.9461 65.4136 69.5505 62.6525 66.5864 62.6525H60.2521C59.0339 62.6525 58.0594 63.7894 58.0594 65.1699V68.4183C58.0188 72.3975 61.4296 75.1586 64.6779 73.8999Z" fill="#4D596E"/>
<path d="M66.3834 74.6308V99.8055C66.3834 102.404 64.7186 104.597 62.4042 105.409C61.9575 105.571 61.5515 105.774 61.186 106.059C60.8206 106.383 60.4552 106.668 60.0897 106.992C59.7243 107.317 59.3994 107.602 59.0746 107.926C56.0293 110.931 54.0397 114.139 52.0501 117.144C51.644 117.753 51.0756 118.24 50.4665 118.605C50.1417 118.768 49.7762 118.93 49.4108 119.052C48.8829 119.214 48.3551 119.255 47.7866 119.255H42.8329C42.2644 119.255 41.7366 119.174 41.2087 119.011C40.8433 118.89 40.4778 118.768 40.153 118.565C39.5033 118.199 38.9755 117.712 38.5694 117.103C36.5798 114.098 34.5902 110.931 31.5449 107.886L31.5043 107.845C31.1794 107.52 30.8546 107.236 30.5298 106.911C30.1643 106.586 29.8395 106.302 29.4334 105.977C29.068 105.693 28.662 105.45 28.2153 105.328C25.9009 104.516 24.2361 102.323 24.2361 99.7243V74.5496C24.2361 66.1851 31.017 59.4042 39.3815 59.4042H51.1974C59.6025 59.4854 66.3834 66.2663 66.3834 74.6308Z" fill="#8392A9"/>
<path d="M66.3838 76.4174C66.5462 82.9141 66.6274 90.1416 66.7086 96.6789C66.7086 97.8158 66.7492 98.9122 66.7492 100.049C66.7086 102.607 64.9626 105.003 62.5263 105.856C61.633 106.18 61.024 106.911 60.2931 107.48C57.8162 109.713 55.8266 112.433 53.9588 115.235C53.634 115.682 52.8625 116.9 52.5783 117.347C51.7662 118.686 50.3044 119.539 48.8021 119.742C47.8276 119.864 46.3658 119.783 45.3507 119.823H43.6453C41.4933 119.945 39.2601 119.296 38.0825 117.347C35.8087 113.855 33.4536 110.322 30.3677 107.52C29.6774 106.911 29.0278 106.18 28.1345 105.896L27.7284 105.734C25.4952 104.8 23.9522 102.526 23.9116 100.09C23.9116 98.9528 23.9116 97.8158 23.9522 96.7195C24.0334 90.1822 24.1146 82.9547 24.2771 76.458C24.3989 82.9547 24.5613 90.1822 24.6019 96.7195C24.6019 97.8564 24.6019 98.9934 24.6425 100.09C24.7237 102.201 26.1043 104.191 28.0939 104.962C29.2714 105.287 30.1241 106.099 30.9768 106.911C34.1439 109.754 36.5802 113.327 38.8946 116.859C39.9097 118.524 41.8181 118.971 43.6453 118.849H45.3507C45.9192 118.849 47.3403 118.849 47.8682 118.849C49.1269 118.849 50.4669 118.402 51.3195 117.468C51.6444 117.184 51.9692 116.534 52.2534 116.169C54.4461 112.88 56.7605 109.55 59.7246 106.911C60.4961 106.262 61.2676 105.449 62.2421 105.125C64.3941 104.434 65.9777 102.364 66.0589 100.09C66.0995 98.9934 66.0995 97.8564 66.0995 96.7195C66.0995 90.101 66.2213 82.9141 66.3838 76.4174Z" fill="#F2D2FF"/>
<path opacity="0.75" d="M42.8329 116.25C42.5486 116.25 42.305 116.21 42.0614 116.128C41.899 116.088 41.7772 116.007 41.6554 115.966C41.4117 115.844 41.2493 115.682 41.1275 115.479C40.8839 115.113 40.6809 114.748 40.4372 114.382C38.6506 111.54 36.6204 108.292 33.6563 105.206L33.6157 105.165C33.2909 104.8 32.9254 104.475 32.56 104.11C32.1539 103.704 31.7479 103.338 31.3825 103.013C30.7734 102.485 30.0425 102.039 29.271 101.755C28.0935 101.308 27.322 100.171 27.322 98.8716V72.2352C27.322 65.17 32.763 59.4448 39.4221 59.4448H51.238C57.8971 59.4448 63.3381 65.17 63.3381 72.2352V98.8716C63.3381 100.171 62.5666 101.308 61.3891 101.755C60.577 102.039 59.8867 102.485 59.237 103.013C58.8716 103.338 58.4655 103.704 58.0595 104.11C57.6941 104.434 57.3692 104.8 57.0038 105.165L56.9632 105.206C54.0397 108.292 52.0095 111.5 50.1823 114.382C49.9792 114.748 49.7356 115.073 49.5326 115.438C49.4108 115.641 49.2078 115.844 49.0047 115.966C48.8829 116.047 48.7205 116.088 48.5581 116.169C48.3145 116.25 48.0708 116.291 47.7866 116.291H42.8329V116.25Z" fill="#4D596E"/>
<path opacity="0.37" d="M66.3834 81.8584V82.7923C65.7743 82.7923 64.9622 82.8735 63.9877 83.1577C61.9169 83.7668 58.6686 85.3504 54.8924 89.6544C53.3088 91.441 52.0501 92.781 50.7913 93.9585C49.6138 95.0548 48.1926 96.1917 46.1624 96.476C46.0406 96.476 45.9594 96.5166 45.8376 96.5166C45.6752 96.5166 45.4722 96.5572 45.3097 96.5572C45.1473 96.5572 44.9443 96.5572 44.7819 96.5166C44.6601 96.5166 44.5789 96.476 44.457 96.476C42.4268 96.1917 41.0057 95.0548 39.8282 93.9585C38.5694 92.781 37.2701 91.441 35.7271 89.6544C33.6563 87.2588 30.3673 84.2135 26.6317 83.1577C25.6572 82.8735 24.8451 82.7923 24.2361 82.7923V81.8584C26.4287 81.8584 30.9358 82.7923 36.4174 89.0454C37.9604 90.832 39.2191 92.1313 40.4778 93.3088C41.5741 94.3239 42.8329 95.339 44.5789 95.5827C44.8225 95.6233 45.0661 95.6233 45.2691 95.6233C45.5128 95.6233 45.7564 95.5827 45.9594 95.5827C47.7054 95.339 48.9641 94.3645 50.0604 93.3088C51.3192 92.1313 52.5779 90.832 54.1209 89.0454C59.6837 82.8329 64.1908 81.8584 66.3834 81.8584Z" fill="#5F6A7A"/>
<path d="M53.2681 54.7753H41.0056V61.881H53.2681V54.7753Z" fill="url(#paint8_linear_10646_7860)"/>
<path d="M55.339 61.881H38.9754C38.5288 61.881 38.1633 61.5156 38.1633 61.0689C38.1633 60.6223 38.5288 60.2568 38.9754 60.2568H55.339C55.7856 60.2568 56.1511 60.6223 56.1511 61.0689C56.1511 61.5156 55.7856 61.881 55.339 61.881Z" fill="url(#paint9_linear_10646_7860)"/>
<path d="M7.14174 34.4731C10.5952 34.4731 13.3948 31.1645 13.3948 27.0831C13.3948 23.0017 10.5952 19.6931 7.14174 19.6931C3.68827 19.6931 0.888672 23.0017 0.888672 27.0831C0.888672 31.1645 3.68827 34.4731 7.14174 34.4731Z" fill="#5F6A7A"/>
<path d="M20.2166 39.5487H12.0957C7.10137 39.5487 3.08154 35.4882 3.08154 30.5345V23.5505C3.08154 18.5562 7.14198 14.5364 12.0957 14.5364H20.2166V39.5487Z" fill="#8392A9"/>
<path d="M12.1358 39.5487C7.9942 40.4014 3.40592 36.8282 3.32471 32.5242C4.90828 36.2192 8.15662 38.8584 12.1358 39.5487Z" fill="#F2D2FF"/>
<path opacity="0.41" d="M10.5527 36.5845C7.22317 36.5845 4.50269 33.864 4.50269 30.5345V23.5505C4.50269 20.221 7.22317 17.5005 10.5527 17.5005H15.7095V36.6251H10.5527V36.5845Z" fill="#4D596E"/>
<path d="M84.8585 34.4731C88.312 34.4731 91.1116 31.1645 91.1116 27.0831C91.1116 23.0017 88.312 19.6931 84.8585 19.6931C81.4051 19.6931 78.6055 23.0017 78.6055 27.0831C78.6055 31.1645 81.4051 34.4731 84.8585 34.4731Z" fill="#6C7886"/>
<path d="M71.7432 39.5487H79.864C84.8584 39.5487 88.8782 35.4882 88.8782 30.5345V23.5505C88.8782 18.5562 84.8178 14.5364 79.864 14.5364H71.7432V39.5487Z" fill="#8392A9"/>
<path d="M79.864 39.5486C83.2748 38.9801 86.3201 36.9499 87.8225 33.8234C88.3097 32.8083 88.6752 31.7119 88.8782 30.5344C89.7715 35.5288 84.8583 40.4419 79.864 39.5486Z" fill="#F2D2FF"/>
<path opacity="0.41" d="M76.291 36.5845V17.4598H81.4478C84.7773 17.4598 87.4978 20.1803 87.4978 23.5099V30.4938C87.4978 33.8234 84.7773 36.5439 81.4478 36.5439H76.291V36.5845Z" fill="#4D596E"/>
<path d="M84.2493 18.3532V37.2342V40.0765V40.7668V40.8074V41.7007C84.2493 41.7007 84.2493 42.2691 84.0463 43.1624C84.0057 43.4466 83.9245 43.7309 83.8433 44.0557C83.8027 44.1369 83.8027 44.2181 83.7621 44.2993C83.6809 44.5836 83.559 44.9084 83.4372 45.2332C83.2748 45.6393 83.1124 46.0047 82.9094 46.4514C82.8688 46.492 82.8688 46.5326 82.8282 46.5732C81.6506 48.847 79.458 51.4051 75.4382 52.9075C70.3626 54.8159 65.8149 56.0746 62.932 56.7649C60.9018 57.2521 58.8716 57.5364 56.8008 57.6176C55.3796 57.6988 53.5118 57.7394 51.3192 57.78H40.6809C38.4882 57.7394 36.6204 57.6988 35.1993 57.6176C33.1284 57.5364 31.0982 57.2521 29.068 56.7649C26.1851 56.0746 21.5968 54.8159 16.5619 52.9075C12.542 51.3645 10.3494 48.847 9.17189 46.5732C9.13129 46.5326 9.13128 46.492 9.09068 46.4514C8.88766 46.0453 8.72524 45.6393 8.56283 45.2332C8.44101 44.9084 8.3192 44.5836 8.23799 44.2993C8.19739 44.2181 8.19739 44.1369 8.15678 44.0557C8.07557 43.7309 7.99436 43.4466 7.95376 43.1624C7.79134 42.2691 7.75074 41.7007 7.75074 41.7007V40.8074V40.7668V40.0765V37.2342V18.3532C7.75074 18.3532 7.46651 16.729 8.48161 14.1709C8.48161 14.1303 8.52222 14.0897 8.52222 14.0897C8.60343 13.8867 8.68464 13.7243 8.76585 13.5212C8.76585 13.4806 8.80645 13.44 8.80645 13.44C9.21249 12.5467 9.78095 11.5722 10.5524 10.5165C10.593 10.4759 10.593 10.4353 10.6336 10.3947C10.7555 10.1917 10.9179 10.0293 11.0803 9.82625C11.1209 9.78564 11.1209 9.74504 11.1615 9.70444C12.0142 8.64873 13.1105 7.51181 14.4098 6.33428C20.3787 1.13692 24.3579 0.203024 25.7385 0.0406068C25.7791 0.0406068 25.7791 0.0406068 25.8197 0.0406068C26.1445 2.47769e-06 26.3069 0 26.3069 0H65.6931C65.6931 0 65.8555 2.47769e-06 66.1804 0.0406068C66.221 0.0406068 66.221 0.0406068 66.2616 0.0406068C67.6421 0.203024 71.6214 1.13692 77.5902 6.33428C78.9301 7.51181 79.9859 8.60812 80.8385 9.70444C80.8792 9.74504 80.8792 9.78564 80.9198 9.82625C81.0822 10.0293 81.204 10.1917 81.3664 10.3947C81.407 10.4353 81.407 10.4759 81.4476 10.5165C82.2191 11.5722 82.7876 12.5467 83.1936 13.4806C83.1936 13.5212 83.2342 13.5619 83.2342 13.5619C83.3154 13.7649 83.3966 13.9273 83.4778 14.1303C83.4778 14.1709 83.5184 14.2115 83.5184 14.2115C84.4929 16.729 84.2493 18.3532 84.2493 18.3532Z" fill="#8392A9"/>
<path d="M84.2495 38.3306L84.3307 41.3759C84.2901 44.4618 82.9501 47.4665 80.8793 49.7404C78.037 52.8263 73.8547 53.882 70.0379 55.222C66.1399 56.4401 62.2419 57.6988 58.1409 58.0643C52.0908 58.4297 45.919 58.3485 39.8689 58.3079C38.0823 58.2267 35.5242 58.2267 33.7783 58.0643C29.6772 57.6988 25.7792 56.4401 21.8812 55.222C15.5063 53.1105 10.2277 51.4457 8.11632 44.2994C7.8727 43.3249 7.66967 42.3098 7.71028 41.2541L7.79149 38.2087C7.9133 40.239 7.71028 42.3098 8.40055 44.2182C9.57808 48.0756 12.664 51.1209 16.3996 52.5015C20.1758 53.9226 24.0738 55.0595 27.9718 56.034C29.9209 56.5213 31.8699 56.9273 33.8595 57.0492C35.5649 57.2116 38.1635 57.171 39.9095 57.2522C45.919 57.2522 52.0908 57.374 58.1003 57.0492C62.1201 56.7649 65.9775 55.5468 69.8349 54.4505C74.9511 52.8669 80.189 51.4458 82.7877 46.3702C83.5592 44.8272 84.1683 43.1219 84.2089 41.3353C84.1683 41.3759 84.2495 38.3306 84.2495 38.3306Z" fill="#F2D2FF"/>
<path opacity="0.41" d="M76.3721 7.67419C70.4844 2.47683 67.0331 1.98958 66.7082 1.94897H25.2918H25.2512H25.2106C24.6421 2.03018 21.272 2.67986 15.628 7.67419C10.1464 12.5061 10.0652 16.1605 10.0652 16.6477L10.1058 37.4372V42.1879C10.1058 42.3097 10.2276 43.609 10.9179 45.1114C11.9736 47.4258 13.882 49.1312 16.5213 50.1869C21.6374 52.1765 26.2257 53.4353 29.1492 54.1662C30.9764 54.6128 32.8848 54.897 34.7526 54.9782C36.5798 55.0595 38.4476 55.1001 40.3966 55.1407H51.4816C53.39 55.1001 55.2984 55.0595 57.1256 54.9782C58.9934 54.897 60.9018 54.6128 62.729 54.1662C65.6931 53.4353 70.2814 52.1765 75.357 50.1869C77.915 49.2124 79.7422 47.5882 80.8385 45.3956C81.61 43.812 81.7724 42.3909 81.7724 42.1879V37.4778L81.8131 16.6884C81.9349 16.2011 81.8537 12.5467 76.3721 7.67419Z" fill="#4D596E"/>
<path d="M75.9663 42.0255H16.0343C14.8974 42.0255 13.9635 41.1728 13.8823 40.0359L12.8671 26.3116C12.2987 18.5968 18.4299 12.0189 26.1448 12.0189H65.8152C73.5706 12.0189 79.6613 18.5968 79.0928 26.3116L78.0777 40.0359C78.0371 41.1728 77.1032 42.0255 75.9663 42.0255Z" fill="#1D2A3A"/>
<path d="M75.9663 42.0255H16.0343C14.8974 42.0255 13.9635 41.1728 13.8823 40.0359L12.8671 26.3116C12.2987 18.5968 18.4299 12.0189 26.1448 12.0189H65.8152C73.5706 12.0189 79.6613 18.5968 79.0928 26.3116L78.0777 40.0359C78.0371 41.1728 77.1032 42.0255 75.9663 42.0255Z" fill="#1C222B"/>
<path d="M39.8689 31.3872C39.3817 31.3872 39.0568 31.8745 39.2193 32.3211C40.0313 34.595 42.7518 36.3003 45.9596 36.3003C49.1673 36.3003 51.8878 34.6356 52.6999 32.3211C52.8623 31.8745 52.5375 31.3872 52.0502 31.3872H39.8689Z" fill="white"/>
<path d="M24.642 30.5345C23.1803 30.5345 21.9622 29.357 21.9622 27.8546V25.0123C21.9622 23.5505 23.1397 22.3324 24.642 22.3324C26.1038 22.3324 27.3219 23.5099 27.3219 25.0123V27.8546C27.3219 29.3163 26.1444 30.5345 24.642 30.5345Z" fill="white"/>
<path d="M67.3171 30.5345C65.8553 30.5345 64.6372 29.357 64.6372 27.8546V25.0123C64.6372 23.5505 65.8147 22.3324 67.3171 22.3324C68.7789 22.3324 69.997 23.5099 69.997 25.0123V27.8546C69.997 29.3163 68.8195 30.5345 67.3171 30.5345Z" fill="white"/>
<path d="M61.1861 72.0321L59.5213 71.3824C58.8717 71.1388 58.222 71.017 57.5317 71.017H54.527C53.5525 71.017 52.781 71.7884 52.781 72.7629V73.6969C52.781 74.1435 52.984 74.5902 53.3089 74.915L57.4099 79.016L61.1861 72.0321Z" fill="#1C222B"/>
<path d="M60.374 46.7356L60.2522 47.4259L60.0085 48.6846H32.0321L31.7885 47.4259L31.6667 46.7356C31.5449 46.1265 32.0321 45.5175 32.6818 45.5175H59.4401C60.0085 45.5175 60.4958 46.0859 60.374 46.7356Z" fill="#262E3A"/>
<path d="M60.1306 56.6431L60.0494 56.9679L59.4403 58.7139L58.8312 60.4599H33.1693L32.5602 58.7139L31.9512 56.9679L31.8293 56.6431H60.1306Z" fill="#262E3A"/>
<path opacity="0.7" d="M60.2523 47.4259L59.9681 48.6846H31.9917L31.748 47.4259H60.2523Z" fill="#111519"/>
<path d="M60.0899 56.9679H31.8699C31.5857 56.9679 31.342 56.7242 31.342 56.44V48.8876C31.342 48.6034 31.5857 48.3597 31.8699 48.3597H60.0899C60.3741 48.3597 60.6178 48.6034 60.6178 48.8876V56.44C60.6178 56.7242 60.3741 56.9679 60.0899 56.9679Z" fill="#262E3A"/>
<path opacity="0.75" d="M58.1812 60.1756C58.1406 60.338 57.9782 60.4598 57.8564 60.4598H34.1434C33.981 60.4598 33.8592 60.338 33.8186 60.1756L32.5599 57.0084C32.4381 56.7242 32.3975 56.3994 32.3975 56.0745V49.6997C32.3975 49.4966 32.5599 49.2936 32.7629 49.2936C33.0065 49.2936 33.1689 49.05 33.1283 48.8064L32.7629 46.898L32.7223 46.6137C32.6817 46.3701 32.8441 46.1265 33.0877 46.1265H58.9933C59.2369 46.1265 59.3993 46.3701 59.3587 46.6137L58.9527 48.847C58.9121 49.0906 59.0745 49.3342 59.3181 49.3342C59.5212 49.3342 59.6836 49.4966 59.6836 49.7403V56.1151C59.6836 56.44 59.643 56.7648 59.5212 57.049L58.1812 60.1756Z" fill="#1B2128"/>
<path opacity="0.42" d="M60.0491 56.9679L59.4401 58.7139H32.56L31.9509 56.9679H60.0491Z" fill="#111519"/>
<path opacity="0.42" d="M56.8823 54.7346H35.0778C34.6718 54.7346 34.3469 54.4098 34.3469 54.0037V51.2832C34.3469 50.8772 34.6718 50.5524 35.0778 50.5524H56.8823C57.2884 50.5524 57.6132 50.8772 57.6132 51.2832V54.0037C57.6132 54.4098 57.2884 54.7346 56.8823 54.7346Z" fill="#111519"/>
<path opacity="0.19" d="M32.0728 93.2276V59.7696C32.0728 59.323 32.4382 58.9575 32.8848 58.9575H59.1152C59.5619 58.9575 59.9273 59.323 59.9273 59.7696V93.2276C59.9273 93.6742 59.5619 94.0397 59.1152 94.0397H32.8848C32.4382 94.0397 32.0728 93.6742 32.0728 93.2276Z" fill="#408EFF"/>
<path opacity="0.19" d="M58.9123 58.9575H33.0879V96.5571H58.9123V58.9575Z" fill="#408EFF"/>
<path opacity="0.56" d="M57.6129 61.678H34.3872V91.3191H57.6129V61.678Z" fill="#7DB8FF"/>
<path opacity="0.56" d="M41.3306 61.678H37.3108V91.3191H41.3306V61.678Z" fill="#94CAFF"/>
<path opacity="0.56" d="M55.3392 61.678H50.3855V91.3191H55.3392V61.678Z" fill="#94CAFF"/>
<path d="M34.387 91.4003C34.1028 81.5741 34.1028 71.626 34.387 61.7592C34.6712 71.626 34.6712 81.5741 34.387 91.4003Z" fill="#C7E2FF"/>
<path d="M57.6128 61.7592C57.897 71.5854 57.897 81.5335 57.6128 91.4003C57.2879 81.5741 57.2879 71.626 57.6128 61.7592Z" fill="#C7E2FF"/>
<path opacity="0.48" d="M37.1886 66.9972C37.368 66.9972 37.5134 66.8518 37.5134 66.6724C37.5134 66.493 37.368 66.3475 37.1886 66.3475C37.0092 66.3475 36.8638 66.493 36.8638 66.6724C36.8638 66.8518 37.0092 66.9972 37.1886 66.9972Z" fill="white"/>
<path opacity="0.59" d="M52.7399 68.4183C52.9193 68.4183 53.0647 68.2729 53.0647 68.0935C53.0647 67.9141 52.9193 67.7687 52.7399 67.7687C52.5605 67.7687 52.415 67.9141 52.415 68.0935C52.415 68.2729 52.5605 68.4183 52.7399 68.4183Z" fill="white"/>
<path opacity="0.59" d="M39.1376 86.0407C39.317 86.0407 39.4624 85.8952 39.4624 85.7158C39.4624 85.5364 39.317 85.391 39.1376 85.391C38.9582 85.391 38.8127 85.5364 38.8127 85.7158C38.8127 85.8952 38.9582 86.0407 39.1376 86.0407Z" fill="white"/>
<path opacity="0.59" d="M50.7504 80.1936C51.0195 80.1936 51.2377 79.9755 51.2377 79.7064C51.2377 79.4373 51.0195 79.2191 50.7504 79.2191C50.4813 79.2191 50.2632 79.4373 50.2632 79.7064C50.2632 79.9755 50.4813 80.1936 50.7504 80.1936Z" fill="white"/>
<path d="M38.6503 80.1936C38.9194 80.1936 39.1376 79.9755 39.1376 79.7064C39.1376 79.4373 38.9194 79.2191 38.6503 79.2191C38.3812 79.2191 38.1631 79.4373 38.1631 79.7064C38.1631 79.9755 38.3812 80.1936 38.6503 80.1936Z" fill="white"/>
<path opacity="0.4" d="M44.7412 83.6856C45.0103 83.6856 45.2284 83.4674 45.2284 83.1983C45.2284 82.9292 45.0103 82.7111 44.7412 82.7111C44.4721 82.7111 44.2539 82.9292 44.2539 83.1983C44.2539 83.4674 44.4721 83.6856 44.7412 83.6856Z" fill="white"/>
<path opacity="0.4" d="M54.8108 81.0463C54.9453 81.0463 55.0544 80.9373 55.0544 80.8027C55.0544 80.6682 54.9453 80.5591 54.8108 80.5591C54.6762 80.5591 54.5671 80.6682 54.5671 80.8027C54.5671 80.9373 54.6762 81.0463 54.8108 81.0463Z" fill="white"/>
<path opacity="0.44" d="M41.5739 64.6421C41.7533 64.6421 41.8987 64.4967 41.8987 64.3173C41.8987 64.1379 41.7533 63.9924 41.5739 63.9924C41.3945 63.9924 41.249 64.1379 41.249 64.3173C41.249 64.4967 41.3945 64.6421 41.5739 64.6421Z" fill="white"/>
<path opacity="0.55" d="M52.3343 63.7082C52.4913 63.7082 52.6185 63.581 52.6185 63.424C52.6185 63.267 52.4913 63.1398 52.3343 63.1398C52.1773 63.1398 52.05 63.267 52.05 63.424C52.05 63.581 52.1773 63.7082 52.3343 63.7082Z" fill="white"/>
<path opacity="0.55" d="M50.7505 88.3956C50.9075 88.3956 51.0348 88.2684 51.0348 88.1114C51.0348 87.9544 50.9075 87.8271 50.7505 87.8271C50.5936 87.8271 50.4663 87.9544 50.4663 88.1114C50.4663 88.2684 50.5936 88.3956 50.7505 88.3956Z" fill="white"/>
<path d="M39.4623 76.0519C39.6417 76.0519 39.7871 75.9065 39.7871 75.7271C39.7871 75.5477 39.6417 75.4022 39.4623 75.4022C39.2829 75.4022 39.1375 75.5477 39.1375 75.7271C39.1375 75.9065 39.2829 76.0519 39.4623 76.0519Z" fill="white"/>
<path opacity="0.01" d="M47.8676 84.2541C48.0695 84.2541 48.2331 84.0905 48.2331 83.8886C48.2331 83.6868 48.0695 83.5232 47.8676 83.5232C47.6658 83.5232 47.5022 83.6868 47.5022 83.8886C47.5022 84.0905 47.6658 84.2541 47.8676 84.2541Z" fill="white"/>
<path d="M54.7298 76.7016C55.0886 76.7016 55.3794 76.4107 55.3794 76.0519C55.3794 75.6931 55.0886 75.4022 54.7298 75.4022C54.3709 75.4022 54.0801 75.6931 54.0801 76.0519C54.0801 76.4107 54.3709 76.7016 54.7298 76.7016Z" fill="white"/>
<path d="M59.0748 94.6081H32.7632V92.253C32.7632 91.7658 33.1692 91.3597 33.6565 91.3597H58.2221C58.7094 91.3597 59.1154 91.7658 59.1154 92.253V94.6081H59.0748Z" fill="#262E3A"/>
<path d="M59.6835 99.8054H32.1944C31.7478 99.8054 31.3823 99.44 31.3823 98.9933V94.6893C31.3823 94.2426 31.7478 93.8772 32.1944 93.8772H59.6835C60.1302 93.8772 60.4956 94.2426 60.4956 94.6893V98.9933C60.4956 99.44 60.1302 99.8054 59.6835 99.8054Z" fill="#262E3A"/>
<path d="M59.6429 105.49H32.2756C31.7884 105.49 31.3823 105.084 31.3823 104.597V102.77C31.3823 102.282 31.7884 101.876 32.2756 101.876H59.6429C60.1302 101.876 60.5362 102.282 60.5362 102.77V104.597C60.4956 105.084 60.0896 105.49 59.6429 105.49Z" fill="#262E3A"/>
<path d="M59.1151 99.8054H32.8035V101.876H59.1151V99.8054Z" fill="#262E3A"/>
<path opacity="0.7" d="M41.3713 60.9472C43.361 60.9066 45.3912 60.9878 47.3402 61.1096C47.9492 61.1502 48.8019 61.1908 49.2892 61.272C49.8982 61.1502 50.6291 61.0284 51.1976 60.9472C51.4006 60.9066 51.6442 60.866 51.8473 60.866C51.6442 60.9472 51.4412 60.9878 51.2382 61.0284C50.6697 61.1908 49.9389 61.3938 49.3704 61.5156C48.6801 61.5156 48.0304 61.475 47.3402 61.4344C45.3506 61.3126 43.3203 61.1908 41.3713 60.9472Z" fill="#80B9FF"/>
<path opacity="0.58" d="M46.4467 61.678H43.5232V91.4003H46.4467V61.678Z" fill="url(#paint10_linear_10646_7860)"/>
<path d="M59.0748 100.252V101.592L59.6027 101.917C60.0899 101.917 60.496 102.323 60.496 102.81V104.637C60.496 105.125 60.0899 105.531 59.6027 105.531H32.2353C31.7481 105.531 31.342 105.125 31.342 104.637V102.81C31.342 102.323 31.7481 101.917 32.2353 101.917L32.7632 101.673V100.293C32.7632 100.049 32.5602 99.8867 32.3571 99.8867H32.1947C31.7481 99.8867 31.3826 99.5213 31.3826 99.0746V94.7706C31.3826 94.3239 31.7481 93.9585 32.1947 93.9585H32.8038V92.2937C32.8038 91.8064 33.2098 91.4004 33.6971 91.4004H58.2221C58.7094 91.4004 59.1154 91.8064 59.1154 92.2937V93.8773H59.7245C60.1711 93.8773 60.5366 94.2427 60.5366 94.6893V98.9934C60.5366 99.4401 60.1711 99.8055 59.7245 99.8055H59.5621C59.2778 99.8055 59.0748 100.009 59.0748 100.252Z" fill="#262E3A"/>
<path d="M32.8035 92.2936C32.8035 91.6034 33.4125 91.3191 34.0216 91.3597L35.727 91.3191L39.1377 91.2785C44.7817 91.1973 50.5476 91.2379 56.1916 91.3191L57.8969 91.3597C58.506 91.3191 59.1151 91.6034 59.1151 92.2936C59.0745 91.644 58.4654 91.4003 57.8969 91.4815L56.1916 91.5221C50.5476 91.644 44.7817 91.644 39.1377 91.5628L35.727 91.5221L34.0216 91.4815C33.4125 91.3597 32.8035 91.644 32.8035 92.2936Z" fill="#A3D0FF"/>
<path opacity="0.75" d="M32.2354 104.15V103.176C32.2354 102.932 32.4384 102.729 32.682 102.729H33.2505C33.4941 102.729 33.6971 102.526 33.6971 102.282V99.3182C33.6971 99.0746 33.4941 98.8715 33.2505 98.8715H32.682C32.4384 98.8715 32.2354 98.6685 32.2354 98.4249V95.0953C32.2354 94.8517 32.4384 94.6487 32.682 94.6487H33.2505C33.4941 94.6487 33.6971 94.4457 33.6971 94.202V92.5779C33.6971 92.3342 33.9001 92.1312 34.1438 92.1312H57.7755C58.0191 92.1312 58.2221 92.3342 58.2221 92.5779V94.202C58.2221 94.4457 58.4251 94.6487 58.6688 94.6487H59.2372C59.4809 94.6487 59.6839 94.8517 59.6839 95.0953V98.4249C59.6839 98.6685 59.4809 98.8715 59.2372 98.8715H58.6688C58.4251 98.8715 58.2221 99.0746 58.2221 99.3182V102.282C58.2221 102.526 58.4251 102.729 58.6688 102.729H59.2372C59.4809 102.729 59.6839 102.932 59.6839 103.176V104.15C59.6839 104.394 59.4809 104.597 59.2372 104.597H32.7226C32.4384 104.597 32.2354 104.394 32.2354 104.15Z" fill="#1B2128"/>
<path opacity="0.42" d="M59.1559 101.754H32.7225V100.09L32.4382 99.8054H59.3589L59.1559 100.13V101.754Z" fill="#111519"/>
<path opacity="0.42" d="M59.1151 92.2124H32.8035V93.8772H59.1151V92.2124Z" fill="#111519"/>
<path d="M58.6686 61.7592H33.3315C32.9254 61.7592 32.6006 61.5156 32.4788 61.1095L32.1133 59.8102C31.9509 59.2417 32.357 58.7139 32.966 58.7139H59.0746C59.6431 58.7139 60.0897 59.2823 59.9273 59.8102L59.5619 61.1095C59.3995 61.5156 59.0746 61.7592 58.6686 61.7592Z" fill="#262E3A"/>
<path d="M59.5214 61.1501C59.4402 61.5968 58.953 61.881 58.5063 61.8404H58.0597L56.3543 61.881C48.9237 62.0434 41.3713 62.0434 33.9407 61.8404C33.7377 61.8404 33.291 61.8404 33.088 61.7592C32.8038 61.678 32.6007 61.4344 32.5195 61.1501C32.6007 61.4344 32.8444 61.6374 33.088 61.7186C33.291 61.7998 33.6971 61.7186 33.9407 61.7186C41.3713 61.5156 48.9237 61.5156 56.3543 61.678L58.0597 61.7186C58.2627 61.7186 58.7093 61.7592 58.9124 61.7186C59.1966 61.6374 59.3996 61.3938 59.5214 61.1501Z" fill="#A3D0FF"/>
<path d="M33.2099 60.5817L33.0881 60.1756C33.0069 59.8914 33.2099 59.6072 33.4942 59.6072H58.4252C58.7095 59.6072 58.9125 59.8914 58.8313 60.1756L58.7095 60.5817C58.6688 60.7847 58.4658 60.9065 58.3034 60.9065H33.616C33.4536 60.9065 33.2911 60.7847 33.2099 60.5817Z" fill="#1B2128"/>
<path opacity="0.42" d="M56.8823 98.628H34.9966C34.6312 98.628 34.3469 98.3437 34.3469 97.9783V95.7857C34.3469 95.4202 34.6312 95.136 34.9966 95.136H56.8823C57.2478 95.136 57.532 95.4202 57.532 95.7857V97.9783C57.532 98.3437 57.2478 98.628 56.8823 98.628Z" fill="#111519"/>
<path opacity="0.56" d="M39.5441 81.7365L39.9907 69.3522C39.9907 68.9055 40.1938 68.4995 40.5592 68.2153L46.2032 63.5052C47.0153 62.8555 48.2334 63.0991 48.6395 64.0736L53.1872 74.0217C53.309 74.3059 53.3496 74.6308 53.309 74.915L51.6442 85.2691C51.563 85.7564 51.2787 86.1624 50.8727 86.406L45.6753 89.3701C44.9445 89.7762 44.0106 89.5732 43.5639 88.8423L39.7471 82.711C39.6253 82.3862 39.5035 82.0613 39.5441 81.7365Z" fill="#A9D8FF"/>
<path opacity="0.56" d="M44.295 87.9489L40.6812 82.1831C40.6 82.0207 40.5188 81.8583 40.5594 81.6553L40.9654 69.5146C40.9654 69.271 41.0872 69.0273 41.2903 68.8649L46.4876 64.5203C46.9343 64.1548 47.6651 64.2766 47.9088 64.8451L52.2534 74.3059C52.3346 74.4683 52.3346 74.6713 52.3346 74.8338L50.7511 84.9036C50.7105 85.1879 50.5481 85.4315 50.3044 85.5533L45.5537 88.2738C45.0665 88.5174 44.5386 88.355 44.295 87.9489Z" fill="#C5E5FF"/>
<mask id="mask6_10646_7860" style="mask-type:luminance" maskUnits="userSpaceOnUse" x="41" y="65" width="11" height="23">
<path d="M41.5742 81.8989L42.1427 69.6364L47.0964 65.5354L51.1974 74.7932L49.6951 84.8631L45.1474 87.5429L41.5742 81.8989Z" fill="white"/>
</mask>
<g mask="url(#mask6_10646_7860)">
<path opacity="0.7" d="M41.5742 81.8989L42.1427 69.6364L47.0964 65.5354L51.1974 74.7932L50.1823 85.4721L45.7565 88.5175L41.5742 81.8989Z" fill="#5EADE7"/>
</g>
<mask id="mask7_10646_7860" style="mask-type:luminance" maskUnits="userSpaceOnUse" x="41" y="65" width="11" height="23">
<path d="M41.5742 81.8989L42.1427 69.6364L47.0964 65.5354L51.1974 74.7932L49.6951 84.8631L45.1474 87.5429L41.5742 81.8989Z" fill="white"/>
</mask>
<g mask="url(#mask7_10646_7860)">
<path opacity="0.7" d="M45.3099 86.5685L42.1833 81.6959L43.1579 69.8801L46.9341 66.7535L49.6139 73.2502L49.0455 84.4164L45.3099 86.5685Z" fill="url(#paint11_linear_10646_7860)"/>
</g>
<mask id="mask8_10646_7860" style="mask-type:luminance" maskUnits="userSpaceOnUse" x="41" y="65" width="11" height="23">
<path d="M41.5742 81.8989L42.1427 69.6364L47.0964 65.5354L51.1974 74.7932L49.6951 84.8631L45.1474 87.5429L41.5742 81.8989Z" fill="white"/>
</mask>
<g mask="url(#mask8_10646_7860)">
<path d="M51.766 86.2842L45.1475 87.5429L47.9898 83.3607L47.1777 70.814L51.1975 74.7932L51.766 86.2842Z" fill="url(#paint12_linear_10646_7860)"/>
</g>
<mask id="mask9_10646_7860" style="mask-type:luminance" maskUnits="userSpaceOnUse" x="41" y="65" width="11" height="23">
<path d="M41.5742 81.8989L42.1427 69.6364L47.0964 65.5354L51.1974 74.7932L49.6951 84.8631L45.1474 87.5429L41.5742 81.8989Z" fill="white"/>
</mask>
<g mask="url(#mask9_10646_7860)">
<path d="M42.5893 89.7762L40.0718 85.4721L41.5741 81.8989L47.9896 83.3607L49.695 84.863L45.9594 89.8168L42.5893 89.7762Z" fill="url(#paint13_linear_10646_7860)"/>
</g>
<mask id="mask10_10646_7860" style="mask-type:luminance" maskUnits="userSpaceOnUse" x="41" y="65" width="11" height="23">
<path d="M41.5742 81.8989L42.1427 69.6364L47.0964 65.5354L51.1974 74.7932L49.6951 84.8631L45.1474 87.5429L41.5742 81.8989Z" fill="white"/>
</mask>
<g mask="url(#mask10_10646_7860)">
<path d="M47.9897 83.3607L43.5638 73.5345L41.5742 81.899L42.1427 69.6365L47.1776 70.814L47.9897 83.3607Z" fill="url(#paint14_linear_10646_7860)"/>
</g>
<mask id="mask11_10646_7860" style="mask-type:luminance" maskUnits="userSpaceOnUse" x="41" y="65" width="11" height="23">
<path d="M41.5742 81.8989L42.1427 69.6364L47.0964 65.5354L51.1974 74.7932L49.6951 84.8631L45.1474 87.5429L41.5742 81.8989Z" fill="white"/>
</mask>
<g mask="url(#mask11_10646_7860)">
<path d="M47.0964 65.5354L47.1776 70.814L51.1975 74.7932L52.6592 74.6308L50.2636 68.2153L47.0964 65.5354Z" fill="url(#paint15_linear_10646_7860)"/>
</g>
<path d="M47.0959 65.5354C48.5983 68.5401 50.0195 71.7073 51.3594 74.7932C51.1158 76.2955 50.8315 78.407 50.5473 79.8687C50.2631 81.5335 49.9789 83.1983 49.654 84.8631C49.8164 83.1577 50.0195 81.4929 50.2631 79.8281C50.4661 78.3664 50.7503 76.2549 50.9534 74.7932V74.915C49.6946 71.8291 48.3141 68.6619 47.0959 65.5354Z" fill="#B5DCFF"/>
<path d="M41.5742 81.8989C41.5742 77.9603 41.7366 73.6157 41.9803 69.6364V69.5552L42.0209 69.5146C42.8329 68.8243 43.6856 68.1747 44.5383 67.4844C45.391 66.8347 46.2437 66.1851 47.0964 65.5354C46.2843 66.2663 45.5128 66.9565 44.7008 67.6874C43.8887 68.3777 43.0766 69.1086 42.2645 69.7989L42.3051 69.677C42.1833 73.6157 41.9397 77.9603 41.5742 81.8989Z" fill="#B5DCFF"/>
<path d="M47.8279 80.8838C47.4219 77.6355 47.1782 74.0623 46.9752 70.8139L47.097 70.9764C46.3661 70.8139 45.6353 70.6109 44.945 70.4079C44.2141 70.2049 43.5238 70.0018 42.793 69.7988C43.5238 69.9206 44.2547 70.0425 44.9856 70.2049C45.7571 70.3673 46.5286 70.4891 47.3 70.6921V70.8139L47.5031 73.3314C47.6655 75.7677 47.8279 78.4475 47.8279 80.8838Z" fill="#B5DCFF"/>
<path d="M49.5328 66.3068C47.2184 66.4287 47.1778 66.5099 47.056 69.7582C46.9748 66.5505 46.8935 66.4287 44.5791 66.3068C46.8935 66.185 46.9342 66.1038 47.056 62.8555C47.1778 66.1038 47.259 66.185 49.5328 66.3068Z" fill="white"/>
<path d="M34.1841 83.9697C34.8338 87.2587 33.0066 90.2634 30.0424 91.6846C26.7941 93.3087 22.0434 93.2275 19.932 89.8574C19.5259 89.1671 19.3229 88.355 19.3635 87.5429C19.3635 86.812 19.3635 85.9999 19.4041 85.2691C19.6071 86.2436 19.6883 87.2993 19.8914 88.2332C20.744 91.1161 24.1954 92.05 26.8753 91.6033C30.9357 91.0755 34.1841 88.2332 34.1841 83.9697Z" fill="#9988AC"/>
<path d="M32.2357 85.9999C32.6824 85.4721 33.1696 84.9442 33.7381 84.4976C34.7126 83.7261 35.8901 83.117 37.0676 83.0358C37.7985 82.9952 38.4888 83.1576 39.1791 83.1576C39.9099 83.1576 40.722 82.914 41.1281 82.3049C41.4935 81.7771 41.4529 81.0868 41.1687 80.6401C40.8844 80.1529 40.3566 79.8687 39.8287 79.625C38.1233 78.9348 36.0525 78.813 34.1035 79.8281C31.2206 81.2898 29.5964 83.6855 29.5964 83.6855L32.2357 85.9999Z" fill="#1C222B"/>
<path d="M30.6116 83.5637C31.2206 82.7922 32.5606 81.4117 34.4284 80.4778C35.2811 80.0311 36.1744 79.8281 37.1083 79.8281C37.9204 79.8281 38.7324 79.9905 39.5039 80.3154C39.9912 80.5184 40.316 80.762 40.4784 81.0057C40.6002 81.2087 40.6408 81.5741 40.4784 81.8583C40.2348 82.1832 39.7069 82.3862 39.1385 82.3862H39.0573C38.773 82.3862 38.5294 82.3456 38.2046 82.3456C37.8797 82.305 37.5549 82.2644 37.2301 82.2644C37.1489 82.2644 37.0677 82.2644 36.9865 82.2644C35.7683 82.305 34.4284 82.9141 33.2102 83.8886C32.8448 84.1728 32.52 84.4976 32.1139 84.9037L30.6116 83.5637Z" fill="#13171C"/>
<path d="M32.3983 82.4268C32.845 81.899 33.3322 81.3711 33.9007 80.9244C34.8752 80.153 36.0527 79.5439 37.2302 79.4627C37.9611 79.4221 38.6514 79.5845 39.3417 79.5845C40.0725 79.5845 40.8846 79.3409 41.2907 78.7318C41.6561 78.204 41.6155 77.5137 41.3313 77.067C41.047 76.5798 40.5192 76.2955 39.9913 76.0519C38.2859 75.3616 36.2151 75.2398 34.2661 76.2549C31.3832 77.7167 29.759 80.1124 29.759 80.1124L32.3983 82.4268Z" fill="#1C222B"/>
<path d="M30.7742 80.0311C31.3832 79.2596 32.7232 77.8791 34.591 76.9452C35.4437 76.4986 36.337 76.2955 37.2709 76.2955C38.083 76.2955 38.895 76.4579 39.6665 76.7828C40.1538 76.9858 40.4786 77.2294 40.641 77.4731C40.7628 77.6761 40.8034 78.0415 40.641 78.3257C40.3568 78.7318 39.7477 78.8536 39.3011 78.8536H39.2199C38.9356 78.8536 38.692 78.813 38.3672 78.813C38.0423 78.7724 37.7175 78.7318 37.3927 78.7318C37.3115 78.7318 37.2303 78.7318 37.1491 78.7318C35.9309 78.7724 34.591 79.3815 33.3728 80.356C33.0074 80.6402 32.6826 80.965 32.2765 81.3711L30.7742 80.0311Z" fill="#13171C"/>
<path d="M32.5606 78.8536C33.0072 78.3257 33.4945 77.7979 34.0629 77.3512C35.0374 76.5798 36.215 75.9707 37.3925 75.8895C38.1234 75.8489 38.8137 76.0113 39.5039 76.0113C40.2348 76.0113 41.0469 75.7677 41.4529 75.1586C41.8184 74.6307 41.7778 73.9405 41.4935 73.4938C41.2093 73.0066 40.6815 72.7223 40.1536 72.4787C38.4482 71.7884 34.1848 71.7478 32.2358 72.7629C29.3528 74.2247 29.8807 76.5391 29.8807 76.5391L32.5606 78.8536Z" fill="#1C222B"/>
<path d="M32.2354 72.7629C33.7378 71.9914 35.4838 71.8696 37.1486 71.8696C38.2855 71.9102 39.4224 71.9914 40.4781 72.4381C42.6707 73.372 42.2647 75.9707 39.9096 76.2549L39.9503 75.8082C40.8842 76.1331 41.8181 76.864 41.8181 77.9197C41.8181 79.016 40.7623 79.7063 39.7878 79.8281L39.8284 79.3814C42.0617 80.0717 42.3459 82.7516 39.869 83.32C38.6915 83.5637 37.5952 83.0358 36.4177 83.32C34.7123 83.6449 33.3724 84.7818 32.1948 86.0405C33.5754 84.2539 35.6868 82.5892 38.0825 82.9952C39.0976 83.117 40.3969 83.0764 40.9654 82.1425C41.5338 81.1274 40.5593 80.1935 39.5848 79.8687L38.6915 79.5438L39.6254 79.422C41.7774 79.0972 41.6962 76.9452 39.7472 76.3361L38.8945 76.0113L39.7878 75.8895C41.6962 75.6864 42.0211 73.6968 40.2345 72.8847C38.7321 72.1945 37.0267 72.1945 35.4026 72.2351C34.3875 72.1945 33.2505 72.3163 32.2354 72.7629Z" fill="#E9F2FF"/>
<path d="M30.6115 76.1737C30.5709 75.6458 30.7334 74.3871 32.5606 73.4532C33.4132 73.0066 34.9562 72.7629 36.621 72.7629C37.9609 72.7629 39.1791 72.9254 39.8693 73.2096C40.3566 73.4126 40.6814 73.6562 40.8438 73.8999C40.9657 74.1029 41.0063 74.4683 40.8438 74.7525C40.6002 75.0774 40.0724 75.2804 39.5039 75.2804H39.4633C39.1791 75.2804 38.8948 75.2398 38.6106 75.2398C38.2858 75.1992 37.9609 75.1586 37.5955 75.1586C37.5143 75.1586 37.4331 75.1586 37.3519 75.1586C36.1337 75.1992 34.7938 75.8083 33.5757 76.7828C33.2102 77.067 32.8854 77.3918 32.4793 77.7979L30.6115 76.1737Z" fill="#13171C"/>
<path d="M60.1309 85.9999C59.6842 85.4721 59.197 84.9442 58.6285 84.4976C57.654 83.7261 56.4765 83.117 55.299 83.0358C54.5681 82.9952 53.8778 83.1576 53.1875 83.1576C52.4567 83.1576 51.6446 82.914 51.2385 82.3049C50.8731 81.7771 50.9137 81.0868 51.1979 80.6401C51.4822 80.1529 52.01 79.8687 52.5379 79.625C54.2433 78.9348 56.3141 78.813 58.2631 79.8281C61.146 81.2898 62.7702 83.6855 62.7702 83.6855L60.1309 85.9999Z" fill="#1C222B"/>
<path d="M61.755 83.5637C61.1459 82.7922 59.806 81.4117 57.9382 80.4778C57.0855 80.0311 56.1922 79.8281 55.2583 79.8281C54.4462 79.8281 53.6341 79.9905 52.8626 80.3154C52.3754 80.5184 52.0505 80.762 51.8881 81.0057C51.7663 81.2087 51.7257 81.5741 51.8881 81.8583C52.1318 82.1832 52.6596 82.3862 53.2281 82.3862H53.3093C53.5935 82.3862 53.8371 82.3456 54.162 82.3456C54.4868 82.305 54.8116 82.2644 55.1365 82.2644C55.2177 82.2644 55.2989 82.2644 55.3801 82.2644C56.5982 82.305 57.9382 82.9141 59.1563 83.8886C59.5217 84.1728 59.8466 84.4976 60.2526 84.9037L61.755 83.5637Z" fill="#13171C"/>
<path d="M59.9683 82.4268C59.5216 81.899 59.0344 81.3711 58.4659 80.9244C57.4914 80.153 56.3139 79.5439 55.1364 79.4627C54.4055 79.4221 53.7152 79.5845 53.025 79.5845C52.2941 79.5845 51.482 79.3409 51.0759 78.7318C50.7105 78.204 50.7511 77.5137 51.0353 77.067C51.3196 76.5798 51.8474 76.2955 52.3753 76.0519C54.0807 75.3616 56.1515 75.2398 58.1005 76.2549C60.9834 77.7167 62.6076 80.1124 62.6076 80.1124L59.9683 82.4268Z" fill="#1C222B"/>
<path d="M61.5924 80.0311C60.9833 79.2596 59.6434 77.8791 57.7756 76.9452C56.9229 76.4986 56.0296 76.2955 55.0957 76.2955C54.2836 76.2955 53.4715 76.4579 52.7 76.7828C52.2128 76.9858 51.888 77.2294 51.7255 77.4731C51.6037 77.6761 51.5631 78.0415 51.7255 78.3257C52.0098 78.7318 52.6188 78.8536 53.0655 78.8536H53.1467C53.4309 78.8536 53.6745 78.813 53.9994 78.813C54.3242 78.7724 54.649 78.7318 54.9739 78.7318C55.0551 78.7318 55.1363 78.7318 55.2175 78.7318C56.4356 78.7724 57.7756 79.3815 58.9937 80.356C59.3591 80.6402 59.684 80.965 60.09 81.3711L61.5924 80.0311Z" fill="#13171C"/>
<path d="M59.8059 78.8536C59.3593 78.3257 58.872 77.7979 58.3036 77.3512C57.3291 76.5798 56.1515 75.9707 54.974 75.8895C54.2431 75.8489 53.5529 76.0113 52.8626 76.0113C52.1317 76.0113 51.3196 75.7677 50.9136 75.1586C50.5481 74.6307 50.5888 73.9405 50.873 73.4938C51.1572 73.0066 51.6851 72.7223 52.2129 72.4787C53.9183 71.7884 58.1818 71.7478 60.1308 72.7629C63.0137 74.2247 62.4858 76.5391 62.4858 76.5391L59.8059 78.8536Z" fill="#1C222B"/>
<path d="M60.1312 72.763C58.1822 71.9103 52.0103 71.5854 50.9546 73.8187C50.5486 74.8744 51.4825 75.7271 52.4976 75.8083L53.3909 75.9301L52.5382 76.2549C50.5892 76.864 50.508 79.016 52.66 79.3409L53.5939 79.4627L52.7006 79.7875C51.7261 80.0717 50.7922 81.0056 51.3201 82.0613C51.8885 83.0358 53.1879 83.0359 54.203 82.914C56.5986 82.5486 58.7101 84.1728 60.0906 85.9594C58.9537 84.7412 57.5731 83.5637 55.8678 83.2389C54.7308 82.9953 53.5939 83.4825 52.4164 83.2389C49.9395 82.6704 50.2238 79.9905 52.457 79.3003L52.4976 79.7469C51.5231 79.6657 50.4268 78.9348 50.4674 77.8385C50.4268 76.7422 51.4013 76.0113 52.3352 75.7271L52.3758 76.1737C50.0207 75.8895 49.6147 73.2502 51.8073 72.3569C52.863 71.9103 54.0406 71.8291 55.1369 71.7885C56.8829 71.8697 58.6289 71.9915 60.1312 72.763Z" fill="#E9F2FF"/>
<path d="M61.7549 76.1737C61.7955 75.6458 61.6331 74.3871 59.8059 73.4532C58.9532 73.0066 57.4103 72.7629 55.7455 72.7629C54.4056 72.7629 53.1874 72.9254 52.4972 73.2096C52.0099 73.4126 51.6851 73.6562 51.5227 73.8999C51.4008 74.1029 51.3602 74.4683 51.5227 74.7525C51.7663 75.0774 52.2941 75.2804 52.8626 75.2804H52.9032C53.1874 75.2804 53.4717 75.2398 53.7559 75.2398C54.0807 75.1992 54.4056 75.1586 54.771 75.1586C54.8522 75.1586 54.9334 75.1586 55.0146 75.1586C56.2328 75.1992 57.5727 75.8083 58.7908 76.7828C59.1563 77.067 59.4811 77.3918 59.8871 77.7979L61.7549 76.1737Z" fill="#13171C"/>
<path d="M21.7188 78.61L25.4951 74.1842C26.6726 72.763 28.7028 71.9509 30.8954 71.9509H31.9105C33.2099 71.9509 34.2656 72.763 34.2656 73.7781V85.0661C34.2656 86.6497 33.6159 88.2333 32.3978 89.492C30.8548 91.1162 28.4592 92.1313 25.8605 92.2531C22.6121 92.3749 19.8104 90.4665 19.648 87.9084L19.445 85.3098C19.2014 82.9141 20.0135 80.559 21.7188 78.61Z" fill="#6C7887"/>
<path opacity="0.75" d="M29.6774 73.2502C30.4895 73.2502 31.1391 73.9811 31.1391 74.915V84.6601C31.1391 85.8376 30.7331 86.9745 29.921 87.949C28.8653 89.2483 27.0787 90.0604 25.2109 90.1822C25.1297 90.1822 25.0485 90.1822 25.0079 90.1822C23.0589 90.1822 21.3941 88.9641 21.2723 87.4212L21.1099 84.8225C20.9881 82.8735 21.5565 81.0057 22.8153 79.3409L26.1448 74.915C26.8351 73.8999 28.2156 73.2502 29.6774 73.2502Z" fill="#4D596E"/>
<path d="M69.2259 78.61L65.4497 74.1842C64.2722 72.763 62.242 71.9509 60.0494 71.9509H59.0343C57.7349 71.9509 56.6792 72.763 56.6792 73.7781V85.0661C56.6792 86.6497 57.3289 88.2333 58.547 89.492C60.09 91.1162 62.4856 92.1313 65.0843 92.2531C68.3326 92.3749 71.1343 90.4665 71.2968 87.9084L71.4998 85.3098C71.7028 82.9141 70.8907 80.559 69.2259 78.61Z" fill="#6C7887"/>
<path d="M56.7198 85.0255C57.0447 87.949 59.2373 90.1417 61.836 91.0756C64.3534 92.0095 67.4394 92.0907 69.5914 90.3447C70.7689 89.492 71.0938 88.1114 71.2562 86.7309C71.3374 86.2436 71.4186 85.7564 71.4998 85.3097C71.4998 85.797 71.5404 86.2842 71.5404 86.7715V87.5024C71.7028 89.3296 70.4847 91.035 68.9011 91.8876C64.1098 94.4863 56.2326 90.9537 56.7198 85.0255Z" fill="#9988AC"/>
<path opacity="0.75" d="M61.2267 73.2502C60.4146 73.2502 59.7649 73.9811 59.7649 74.915V84.6601C59.7649 85.8376 60.1709 86.9745 60.983 87.949C62.0387 89.2483 63.8253 90.0604 65.6931 90.1822C65.7743 90.1822 65.8555 90.1822 65.8962 90.1822C67.8452 90.1822 69.5099 88.9641 69.6317 87.4212L69.7942 84.8225C69.916 82.8735 69.3475 81.0057 68.0888 79.3409L64.7592 74.915C64.069 73.8999 62.6884 73.2502 61.2267 73.2502Z" fill="#4D596E"/>
<defs>
<linearGradient id="paint0_linear_10646_7860" x1="47.1621" y1="84.4059" x2="47.1621" y2="52.9578" gradientUnits="userSpaceOnUse">
<stop stop-color="#97A4AE"/>
<stop offset="1" stop-color="#6A737C"/>
</linearGradient>
<linearGradient id="paint1_linear_10646_7860" x1="46.9888" y1="56.5076" x2="47.7918" y2="78.4538" gradientUnits="userSpaceOnUse">
<stop stop-color="#353F4A"/>
<stop offset="1" stop-color="#6A737C"/>
</linearGradient>
<linearGradient id="paint2_linear_10646_7860" x1="44.9858" y1="82.8733" x2="44.9858" y2="45.952" gradientUnits="userSpaceOnUse">
<stop stop-color="#64ABFF" stop-opacity="0.52"/>
<stop offset="0.2378" stop-color="#4999FF" stop-opacity="0.3963"/>
<stop offset="0.7499" stop-color="#1576FF" stop-opacity="0.1301"/>
<stop offset="1" stop-color="#0068FF" stop-opacity="0"/>
</linearGradient>
<linearGradient id="paint3_linear_10646_7860" x1="41.2936" y1="75.7449" x2="51.5718" y2="78.0347" gradientUnits="userSpaceOnUse">
<stop stop-color="#69C6FF"/>
<stop offset="1" stop-color="#D2D2D2"/>
</linearGradient>
<linearGradient id="paint4_linear_10646_7860" x1="49.5964" y1="78.4588" x2="44.7703" y2="87.9692" gradientUnits="userSpaceOnUse">
<stop offset="0.00558659" stop-color="#0B669E"/>
<stop offset="1" stop-color="#0B669E" stop-opacity="0"/>
</linearGradient>
<linearGradient id="paint5_linear_10646_7860" x1="40.5806" y1="87.1127" x2="49.4026" y2="84.0862" gradientUnits="userSpaceOnUse">
<stop stop-color="#1383D2"/>
<stop offset="1" stop-color="#1383D2" stop-opacity="0"/>
</linearGradient>
<linearGradient id="paint6_linear_10646_7860" x1="44.1587" y1="71.2398" x2="44.8094" y2="82.782" gradientUnits="userSpaceOnUse">
<stop stop-color="#1383D2"/>
<stop offset="1" stop-color="#1383D2" stop-opacity="0"/>
</linearGradient>
<linearGradient id="paint7_linear_10646_7860" x1="48.3989" y1="66.5637" x2="50.4632" y2="75.1141" gradientUnits="userSpaceOnUse">
<stop stop-color="#1383D2"/>
<stop offset="1" stop-color="#1383D2" stop-opacity="0"/>
</linearGradient>
<linearGradient id="paint8_linear_10646_7860" x1="47.1546" y1="84.2468" x2="47.1546" y2="52.7987" gradientUnits="userSpaceOnUse">
<stop stop-color="#97A4AE"/>
<stop offset="1" stop-color="#6A737C"/>
</linearGradient>
<linearGradient id="paint9_linear_10646_7860" x1="46.9813" y1="56.3485" x2="47.7842" y2="78.2947" gradientUnits="userSpaceOnUse">
<stop stop-color="#353F4A"/>
<stop offset="1" stop-color="#6A737C"/>
</linearGradient>
<linearGradient id="paint10_linear_10646_7860" x1="44.9783" y1="82.7141" x2="44.9783" y2="45.7929" gradientUnits="userSpaceOnUse">
<stop stop-color="#64ABFF" stop-opacity="0.52"/>
<stop offset="0.2378" stop-color="#4999FF" stop-opacity="0.3963"/>
<stop offset="0.7499" stop-color="#1576FF" stop-opacity="0.1301"/>
<stop offset="1" stop-color="#0068FF" stop-opacity="0"/>
</linearGradient>
<linearGradient id="paint11_linear_10646_7860" x1="41.2842" y1="75.5857" x2="51.5623" y2="77.8756" gradientUnits="userSpaceOnUse">
<stop stop-color="#69C6FF"/>
<stop offset="1" stop-color="#D2D2D2"/>
</linearGradient>
<linearGradient id="paint12_linear_10646_7860" x1="49.5869" y1="78.2997" x2="44.7608" y2="87.81" gradientUnits="userSpaceOnUse">
<stop offset="0.00558659" stop-color="#0B669E"/>
<stop offset="1" stop-color="#0B669E" stop-opacity="0"/>
</linearGradient>
<linearGradient id="paint13_linear_10646_7860" x1="40.5712" y1="86.9536" x2="49.3931" y2="83.9271" gradientUnits="userSpaceOnUse">
<stop stop-color="#1383D2"/>
<stop offset="1" stop-color="#1383D2" stop-opacity="0"/>
</linearGradient>
<linearGradient id="paint14_linear_10646_7860" x1="44.1493" y1="71.0807" x2="44.7999" y2="82.6229" gradientUnits="userSpaceOnUse">
<stop stop-color="#1383D2"/>
<stop offset="1" stop-color="#1383D2" stop-opacity="0"/>
</linearGradient>
<linearGradient id="paint15_linear_10646_7860" x1="48.3897" y1="66.4045" x2="50.454" y2="74.955" gradientUnits="userSpaceOnUse">
<stop stop-color="#1383D2"/>
<stop offset="1" stop-color="#1383D2" stop-opacity="0"/>
</linearGradient>
</defs>
</svg>
