<svg width="102" height="120" viewBox="0 0 102 120" fill="none" xmlns="http://www.w3.org/2000/svg">
<path d="M97.8802 44.8554H81.789V13.4619C81.789 11.8317 80.4744 10.4645 78.7917 10.4645H28.8881C27.2579 10.4645 25.8907 11.7791 25.8907 13.4619V44.8554H9.79956C8.06424 44.8554 6.69702 46.2226 6.69702 47.9579V108.221C6.69702 109.956 8.06424 111.323 9.79956 111.323H97.8802C99.6155 111.323 100.983 109.956 100.983 108.221V47.9579C100.983 46.2752 99.6155 44.8554 97.8802 44.8554ZM29.0984 13.6722H78.6339V44.908H29.0984V13.6722ZM97.8276 108.221H9.90473V48.0105H25.9433H81.789H97.8276V108.221Z" fill="url(#paint0_linear_10642_6177)"/>
<path d="M60.2286 91.9195H47.4503C46.5038 91.9195 45.6098 91.4463 45.0314 90.7101C44.453 89.9739 44.2952 88.9747 44.6107 88.0808L47.0297 80.4559C45.1892 78.668 44.1375 76.1965 44.1375 73.5672C44.1375 68.2035 48.502 63.8915 53.8132 63.8915C59.1769 63.8915 63.4889 68.2561 63.4889 73.5672C63.4889 76.1965 62.4372 78.668 60.5967 80.4559L63.0156 88.0808C63.2786 88.9747 63.1208 89.9739 62.5949 90.7101C62.0691 91.4988 61.1751 91.9195 60.2286 91.9195ZM47.7133 88.7644H59.9657L56.9683 79.3516L57.8097 78.668C59.4398 77.4059 60.3338 75.5655 60.3338 73.5146C60.3338 69.8862 57.389 66.994 53.8132 66.994C50.1848 66.994 47.2926 69.9388 47.2926 73.5146C47.2926 75.5655 48.1865 77.4059 49.8167 78.668L50.658 79.3516L47.7133 88.7644Z" fill="url(#paint1_linear_10642_6177)"/>
<path opacity="0.36" d="M97.8803 111.954C95.8295 111.954 94.1467 110.271 94.1467 108.221C94.1467 106.17 95.8295 104.487 97.8803 104.487C99.9311 104.487 101.614 106.17 101.614 108.221C101.614 110.271 99.9837 111.954 97.8803 111.954Z" fill="white"/>
<path d="M97.88 110.587C99.1869 110.587 100.246 109.528 100.246 108.221C100.246 106.914 99.1869 105.855 97.88 105.855C96.5731 105.855 95.5137 106.914 95.5137 108.221C95.5137 109.528 96.5731 110.587 97.88 110.587Z" fill="white"/>
<path opacity="0.36" d="M28.2045 16.5644C26.1537 16.5644 24.4709 14.8817 24.4709 12.8309C24.4709 10.78 26.1537 9.09729 28.2045 9.09729C30.2553 9.09729 31.9381 10.78 31.9381 12.8309C31.9381 14.8817 30.2553 16.5644 28.2045 16.5644Z" fill="white"/>
<path d="M28.2047 15.1972C29.5116 15.1972 30.5711 14.1377 30.5711 12.8308C30.5711 11.5239 29.5116 10.4645 28.2047 10.4645C26.8978 10.4645 25.8384 11.5239 25.8384 12.8308C25.8384 14.1377 26.8978 15.1972 28.2047 15.1972Z" fill="white"/>
<path opacity="0.36" d="M8.37992 78.1945C7.11787 78.1945 6.06616 77.1428 6.06616 75.8808C6.06616 74.6187 7.11787 73.567 8.37992 73.567C9.64197 73.567 10.6937 74.6187 10.6937 75.8808C10.6937 77.1428 9.64197 78.1945 8.37992 78.1945Z" fill="white"/>
<path opacity="0.61" d="M8.37962 77.3532C9.1928 77.3532 9.85202 76.694 9.85202 75.8808C9.85202 75.0677 9.1928 74.4084 8.37962 74.4084C7.56644 74.4084 6.90723 75.0677 6.90723 75.8808C6.90723 76.694 7.56644 77.3532 8.37962 77.3532Z" fill="white"/>
<path opacity="0.36" d="M46.6093 91.8669C45.505 91.8669 44.6111 90.9729 44.6111 89.8686C44.6111 88.7643 45.505 87.8704 46.6093 87.8704C47.7136 87.8704 48.6076 88.7643 48.6076 89.8686C48.6602 90.9729 47.7662 91.8669 46.6093 91.8669Z" fill="white"/>
<path opacity="0.61" d="M46.6092 91.1304C47.3062 91.1304 47.8713 90.5654 47.8713 89.8684C47.8713 89.1714 47.3062 88.6063 46.6092 88.6063C45.9122 88.6063 45.3472 89.1714 45.3472 89.8684C45.3472 90.5654 45.9122 91.1304 46.6092 91.1304Z" fill="white"/>
<path opacity="0.36" d="M58.2309 69.2025C56.8637 69.2025 55.7068 68.0982 55.7068 66.6784C55.7068 65.3112 56.8111 64.1543 58.2309 64.1543C59.5981 64.1543 60.755 65.2586 60.755 66.6784C60.7024 68.0456 59.5981 69.2025 58.2309 69.2025Z" fill="white"/>
<path opacity="0.61" d="M58.2306 68.256C59.1019 68.256 59.8082 67.5497 59.8082 66.6784C59.8082 65.8071 59.1019 65.1008 58.2306 65.1008C57.3594 65.1008 56.6531 65.8071 56.6531 66.6784C56.6531 67.5497 57.3594 68.256 58.2306 68.256Z" fill="white"/>
<path opacity="0.36" d="M53.8662 112.217C52.6042 112.217 51.5525 111.166 51.5525 109.903C51.5525 108.641 52.6042 107.59 53.8662 107.59C55.1283 107.59 56.18 108.641 56.18 109.903C56.18 111.166 55.1283 112.217 53.8662 112.217Z" fill="white"/>
<path opacity="0.61" d="M53.8659 111.323C54.6791 111.323 55.3383 110.664 55.3383 109.851C55.3383 109.038 54.6791 108.379 53.8659 108.379C53.0528 108.379 52.3936 109.038 52.3936 109.851C52.3936 110.664 53.0528 111.323 53.8659 111.323Z" fill="white"/>
<path opacity="0.36" d="M9.11565 50.7975C7.06481 50.7975 5.38208 49.1147 5.38208 47.0639C5.38208 45.0131 7.06481 43.3303 9.11565 43.3303C11.1665 43.3303 12.8492 45.0131 12.8492 47.0639C12.8492 49.1673 11.1665 50.7975 9.11565 50.7975Z" fill="white"/>
<path d="M9.11586 49.4304C10.4228 49.4304 11.4822 48.371 11.4822 47.0641C11.4822 45.7572 10.4228 44.6978 9.11586 44.6978C7.80896 44.6978 6.74951 45.7572 6.74951 47.0641C6.74951 48.371 7.80896 49.4304 9.11586 49.4304Z" fill="white"/>
<path opacity="0.36" d="M98.5109 50.1665C96.9333 50.1665 95.6187 48.8518 95.6187 47.2743C95.6187 45.6967 96.9333 44.3821 98.5109 44.3821C100.088 44.3821 101.403 45.6967 101.403 47.2743C101.456 48.8518 100.141 50.1665 98.5109 50.1665Z" fill="white"/>
<path d="M98.5111 49.1147C99.5276 49.1147 100.352 48.2907 100.352 47.2742C100.352 46.2577 99.5276 45.4337 98.5111 45.4337C97.4947 45.4337 96.6707 46.2577 96.6707 47.2742C96.6707 48.2907 97.4947 49.1147 98.5111 49.1147Z" fill="white"/>
<path opacity="0.36" d="M53.8662 48.7993C52.6042 48.7993 51.5525 47.7476 51.5525 46.4855C51.5525 45.2235 52.6042 44.1718 53.8662 44.1718C55.1283 44.1718 56.18 45.2235 56.18 46.4855C56.18 47.7476 55.1283 48.7993 53.8662 48.7993Z" fill="white"/>
<path opacity="0.61" d="M53.8659 47.958C54.6791 47.958 55.3383 47.2988 55.3383 46.4856C55.3383 45.6724 54.6791 45.0132 53.8659 45.0132C53.0528 45.0132 52.3936 45.6724 52.3936 46.4856C52.3936 47.2988 53.0528 47.958 53.8659 47.958Z" fill="white"/>
<path opacity="0.36" d="M53.6033 14.4611C52.3413 14.4611 51.2896 13.4094 51.2896 12.1474C51.2896 10.8853 52.3413 9.83362 53.6033 9.83362C54.8654 9.83362 55.9171 10.8853 55.9171 12.1474C55.9171 13.4094 54.9179 14.4611 53.6033 14.4611Z" fill="white"/>
<path opacity="0.61" d="M53.603 13.6195C54.4162 13.6195 55.0754 12.9603 55.0754 12.1471C55.0754 11.3339 54.4162 10.6747 53.603 10.6747C52.7898 10.6747 52.1306 11.3339 52.1306 12.1471C52.1306 12.9603 52.7898 13.6195 53.603 13.6195Z" fill="white"/>
<path opacity="0.36" d="M27.5733 34.6014C26.3112 34.6014 25.2595 33.5497 25.2595 32.2876C25.2595 31.0256 26.3112 29.9739 27.5733 29.9739C28.8353 29.9739 29.887 31.0256 29.887 32.2876C29.887 33.6023 28.8353 34.6014 27.5733 34.6014Z" fill="white"/>
<path opacity="0.61" d="M27.5737 33.7597C28.3869 33.7597 29.0461 33.1005 29.0461 32.2873C29.0461 31.4742 28.3869 30.8149 27.5737 30.8149C26.7605 30.8149 26.1013 31.4742 26.1013 32.2873C26.1013 33.1005 26.7605 33.7597 27.5737 33.7597Z" fill="white"/>
<path opacity="0.36" d="M80.1585 34.6014C78.8964 34.6014 77.8447 33.5497 77.8447 32.2876C77.8447 31.0256 78.8964 29.9739 80.1585 29.9739C81.4205 29.9739 82.4722 31.0256 82.4722 32.2876C82.5248 33.6023 81.4731 34.6014 80.1585 34.6014Z" fill="white"/>
<path opacity="0.61" d="M80.1589 33.7597C80.9721 33.7597 81.6313 33.1005 81.6313 32.2873C81.6313 31.4742 80.9721 30.8149 80.1589 30.8149C79.3457 30.8149 78.6865 31.4742 78.6865 32.2873C78.6865 33.1005 79.3457 33.7597 80.1589 33.7597Z" fill="white"/>
<path opacity="0.36" d="M99.3526 78.1419C98.0905 78.1419 97.0388 77.0902 97.0388 75.8282C97.0388 74.5661 98.0905 73.5144 99.3526 73.5144C100.615 73.5144 101.666 74.5661 101.666 75.8282C101.666 77.0902 100.615 78.1419 99.3526 78.1419Z" fill="white"/>
<path opacity="0.61" d="M99.3523 77.3006C100.165 77.3006 100.825 76.6414 100.825 75.8282C100.825 75.015 100.165 74.3558 99.3523 74.3558C98.5391 74.3558 97.8799 75.015 97.8799 75.8282C97.8799 76.6414 98.5391 77.3006 99.3523 77.3006Z" fill="white"/>
<path d="M89.6766 12.1472C81.4207 13.0412 80.8422 13.7248 80.1586 24.2945C79.475 13.7248 78.9491 12.9886 70.6406 12.1472C78.8965 11.2533 79.475 10.5697 80.1586 0C80.8422 10.5697 81.4207 11.2533 89.6766 12.1472Z" fill="white"/>
<path d="M87.0472 12.1473C81.0524 12.7783 80.6843 13.3041 80.1585 20.929C79.6852 13.2515 79.2645 12.7783 73.2698 12.1473C79.2645 11.5162 79.6326 10.9904 80.1585 3.36548C80.6843 10.9904 81.0524 11.5162 87.0472 12.1473Z" fill="white"/>
<path d="M17.8975 108.799C10.2726 109.588 9.74678 110.272 9.11576 120C8.48473 110.219 7.95888 109.588 0.333984 108.799C7.95888 108.01 8.48473 107.327 9.11576 97.5985C9.74678 107.379 10.2726 108.01 17.8975 108.799Z" fill="white"/>
<path d="M15.4259 108.799C9.9044 109.378 9.53631 109.851 9.06304 116.897C8.58977 109.851 8.22167 109.378 2.7002 108.799C8.22167 108.221 8.58977 107.748 9.06304 100.701C9.58889 107.748 9.95699 108.221 15.4259 108.799Z" fill="white"/>
<defs>
<linearGradient id="paint0_linear_10642_6177" x1="51.1571" y1="20.2762" x2="56.0568" y2="124.952" gradientUnits="userSpaceOnUse">
<stop stop-color="#8562BC"/>
<stop offset="0.2066" stop-color="#8963BF" stop-opacity="0.9763"/>
<stop offset="0.3912" stop-color="#9366C7" stop-opacity="0.9551"/>
<stop offset="0.5674" stop-color="#A66CD5" stop-opacity="0.9349"/>
<stop offset="0.7374" stop-color="#BF74E8" stop-opacity="0.9154"/>
<stop offset="0.8718" stop-color="#D97CFC" stop-opacity="0.9"/>
</linearGradient>
<linearGradient id="paint1_linear_10642_6177" x1="54.7258" y1="51.9542" x2="52.944" y2="102.288" gradientUnits="userSpaceOnUse">
<stop stop-color="#8562BC"/>
<stop offset="0.2066" stop-color="#8963BF" stop-opacity="0.9763"/>
<stop offset="0.3912" stop-color="#9366C7" stop-opacity="0.9551"/>
<stop offset="0.5674" stop-color="#A66CD5" stop-opacity="0.9349"/>
<stop offset="0.7374" stop-color="#BF74E8" stop-opacity="0.9154"/>
<stop offset="0.8718" stop-color="#D97CFC" stop-opacity="0.9"/>
</linearGradient>
</defs>
</svg>
