<svg width="328" height="120" viewBox="0 0 328 120" fill="none" xmlns="http://www.w3.org/2000/svg">
<path d="M144.131 0.984562L144.771 1.90491L145.971 3.58555L115.8 35.6378L114.079 34.5574L113.119 33.9571C112.278 33.4369 112.118 32.2365 112.799 31.5162L141.65 0.864515C142.33 0.104225 143.53 0.184256 144.131 0.984562Z" fill="#262E3A"/>
<path d="M155.215 11.9487L155.455 12.4289L156.816 14.9899L158.176 17.5509L130.486 46.9621L127.845 45.7616L125.204 44.5612L124.724 44.3611L155.215 11.9487Z" fill="#262E3A"/>
<path opacity="0.7" d="M144.771 1.90491L145.972 3.54553L115.76 35.5978L114.04 34.5173L144.771 1.90491Z" fill="#111519"/>
<path d="M155.535 12.349L125.124 44.6414C124.804 44.9615 124.284 45.0015 123.963 44.6814L115.32 36.5583C115 36.2382 114.96 35.718 115.28 35.3978L145.692 3.10552C146.012 2.7854 146.532 2.74538 146.852 3.0655L155.495 11.1886C155.856 11.5087 155.856 12.0289 155.535 12.349Z" fill="#262E3A"/>
<path d="M155.455 12.429C155.695 12.2289 155.775 11.9088 155.695 11.5886C155.615 11.2685 155.335 11.1085 155.135 10.9084L153.815 9.66792C151.854 7.90724 149.013 5.26624 147.052 3.50557C146.892 3.38552 146.652 3.0654 146.412 3.0654C146.052 2.98537 145.812 3.26547 145.612 3.54558C145.091 2.86532 144.291 1.66486 143.731 0.984605C143.251 0.504422 142.37 0.464406 141.89 0.984605C141.73 1.14467 141.21 1.70488 141.05 1.90496C139.569 3.54558 138.049 5.14619 136.528 6.7468C129.726 14.0696 120.082 24.2735 113.199 31.4362C112.519 31.9564 112.359 32.9568 113.039 33.557C113.199 33.7171 113.839 34.0772 114.04 34.2373C114.24 34.3573 115.52 35.1977 115.72 35.3177L115.48 35.5178C115.2 35.7579 115.2 36.158 115.44 36.3981C116.48 37.3985 118.681 39.5193 119.722 40.5197L122.323 43.0807L123.643 44.3612C123.883 44.5612 124.043 44.8413 124.363 44.8813C124.644 44.9614 124.964 44.8013 125.164 44.6012C124.884 45.0014 124.283 45.0814 123.923 44.7613L123.563 44.4412L122.203 43.2007L119.482 40.7598L116.761 38.2788L115.4 37.0384L115.08 36.7182C114.8 36.4381 114.68 36.038 114.8 35.6378C114.84 35.4377 115 35.2777 115.08 35.1576L115.12 35.5178C114.48 35.0776 113.239 34.4374 112.639 33.9572C111.719 33.1969 111.839 31.7563 112.719 30.996C119.442 23.7133 129.085 13.4694 135.968 6.2266C137.489 4.62599 139.009 3.02538 140.53 1.42477C140.85 1.10465 141.37 0.464403 141.81 0.224311C142.69 -0.255872 143.851 0.0642549 144.331 0.904575L144.811 1.58483L145.772 2.94535L145.412 2.90534C145.772 2.46517 146.532 2.38514 146.972 2.8253L147.292 3.14543L148.613 4.42591C149.893 5.7064 152.534 8.26738 153.855 9.54787L155.175 10.8284L155.495 11.1485C155.896 11.5086 155.856 12.1088 155.455 12.429Z" fill="#9647CB"/>
<path opacity="0.75" d="M157.176 18.031C157.296 18.2711 157.296 18.5512 157.136 18.7113L131.567 45.8416C131.407 46.0017 131.126 46.0417 130.886 45.9217L125.925 43.9209C125.444 43.7208 125.044 43.4807 124.684 43.1206L117.401 36.238C117.161 35.9979 117.121 35.6377 117.321 35.3977C117.561 35.1576 117.481 34.6774 117.161 34.4773L114.56 32.7967L114.16 32.5566C113.84 32.3565 113.76 31.9163 114 31.6362L141.931 1.98491C142.171 1.74482 142.611 1.78484 142.851 2.10496L144.972 4.94604C145.212 5.26616 145.652 5.30618 145.892 5.06608C146.092 4.82599 146.492 4.86601 146.732 5.06608L154.015 11.9487C154.375 12.3088 154.695 12.709 154.896 13.1492L157.176 18.031Z" fill="#1B2128"/>
<path opacity="0.42" d="M155.456 12.429L156.816 14.9899L127.845 45.7617L125.204 44.5612L155.456 12.429Z" fill="#111519"/>
<path opacity="0.42" d="M149.533 13.6295L126.044 38.599C125.604 39.0392 124.923 39.0792 124.443 38.6391L121.322 35.7179C120.882 35.2778 120.842 34.5975 121.282 34.1173L144.771 9.14781C145.211 8.70764 145.891 8.66763 146.372 9.1078L149.493 12.0289C149.933 12.4691 149.973 13.1493 149.533 13.6295Z" fill="#111519"/>
<path d="M158.176 17.5509C149.333 27.6348 140.009 37.5185 130.486 46.9621C139.329 36.8783 148.653 26.9945 158.176 17.5509Z" fill="#9DC9FF"/>
<path opacity="0.56" d="M167.7 50.8837H131.206V97.5014H167.7V50.8837Z" fill="#7DB8FF"/>
<path d="M131.206 97.4613C130.725 81.9754 130.725 66.3294 131.206 50.8435C131.686 66.3294 131.686 82.0154 131.206 97.4613Z" fill="#C0E1FF"/>
<path d="M167.7 50.8837C168.181 66.3696 168.181 82.0155 167.7 97.5014C167.26 82.0155 167.26 66.3296 167.7 50.8837Z" fill="#C0E1FF"/>
<path d="M170.062 102.503H128.686V98.8218C128.686 98.0615 129.286 97.4613 130.046 97.4613H168.661C169.421 97.4613 170.022 98.0615 170.022 98.8218V102.503H170.062Z" fill="#262E3A"/>
<path d="M170.981 110.706H127.724C127.004 110.706 126.444 110.146 126.444 109.426V102.623C126.444 101.903 127.004 101.343 127.724 101.343H170.981C171.701 101.343 172.261 101.903 172.261 102.623V109.426C172.261 110.146 171.701 110.706 170.981 110.706Z" fill="#262E3A"/>
<path d="M170.902 119.59H127.845C127.085 119.59 126.485 118.99 126.485 118.229V115.348C126.485 114.588 127.085 113.988 127.845 113.988H170.902C171.662 113.988 172.262 114.588 172.262 115.348V118.229C172.262 118.99 171.662 119.59 170.902 119.59Z" fill="#262E3A"/>
<path d="M170.062 110.706H128.686V113.988H170.062V110.706Z" fill="#262E3A"/>
<path opacity="0.7" d="M142.17 49.5631C145.292 49.5231 148.493 49.6432 151.574 49.8432C152.534 49.9233 153.895 49.9633 154.655 50.0833C155.576 49.9233 156.736 49.7232 157.696 49.5631C158.016 49.5231 158.377 49.4831 158.697 49.4031C158.377 49.4831 158.056 49.6032 157.696 49.6832C156.776 49.9233 155.656 50.2434 154.735 50.4435C153.655 50.4435 152.614 50.3634 151.534 50.3234C148.453 50.1634 145.252 49.9633 142.17 49.5631Z" fill="#80B9FF"/>
<path opacity="0.56" d="M143.251 50.7236H135.648V97.4615H143.251V50.7236Z" fill="#94CAFF"/>
<path opacity="0.56" d="M150.173 50.7236H145.571V97.4615H150.173V50.7236Z" fill="#94CAFF"/>
<path opacity="0.56" d="M165.739 50.7236H161.137V97.4615H165.739V50.7236Z" fill="#94CAFF"/>
<path d="M170.06 111.387V113.508L170.901 113.988C171.661 113.988 172.261 114.588 172.261 115.348V118.229C172.261 118.99 171.661 119.59 170.901 119.59H127.844C127.084 119.59 126.484 118.99 126.484 118.229V115.348C126.484 114.588 127.084 113.988 127.844 113.988L128.685 113.588V111.387C128.685 111.027 128.405 110.707 128.004 110.707H127.724C127.004 110.707 126.444 110.146 126.444 109.426V102.663C126.444 101.943 127.004 101.383 127.724 101.383H128.685V98.862C128.685 98.1017 129.285 97.5015 130.045 97.5015H168.66C169.42 97.5015 170.02 98.1017 170.02 98.862V101.383H170.981C171.701 101.383 172.261 101.943 172.261 102.663V109.426C172.261 110.146 171.701 110.707 170.981 110.707H170.701C170.341 110.707 170.06 111.027 170.06 111.387Z" fill="#262E3A"/>
<path opacity="0.75" d="M127.844 117.549V116.028C127.844 115.668 128.164 115.348 128.524 115.348H129.405C129.765 115.348 130.085 115.028 130.085 114.668V109.986C130.085 109.626 129.765 109.306 129.405 109.306H128.524C128.164 109.306 127.844 108.986 127.844 108.626V103.384C127.844 103.024 128.164 102.703 128.524 102.703H129.405C129.765 102.703 130.085 102.383 130.085 102.023V99.5022C130.085 99.142 130.405 98.8219 130.765 98.8219H168.02C168.38 98.8219 168.7 99.142 168.7 99.5022V102.023C168.7 102.383 169.02 102.703 169.38 102.703H170.26C170.621 102.703 170.941 103.024 170.941 103.384V108.626C170.941 108.986 170.621 109.306 170.26 109.306H169.38C169.02 109.306 168.7 109.626 168.7 109.986V114.668C168.7 115.028 169.02 115.348 169.38 115.348H170.26C170.621 115.348 170.941 115.668 170.941 116.028V117.549C170.941 117.909 170.621 118.229 170.26 118.229H128.524C128.124 118.229 127.844 117.949 127.844 117.549Z" fill="#1B2128"/>
<path opacity="0.42" d="M170.181 113.748H128.565V111.147L128.165 110.706H170.461L170.181 111.187V113.748Z" fill="#111519"/>
<path opacity="0.42" d="M170.062 98.7019H128.686V101.343H170.062V98.7019Z" fill="#111519"/>
<path d="M172.302 102.663C172.342 104.384 172.382 106.145 172.422 107.865L172.462 109.186C172.502 109.626 172.382 110.186 172.022 110.466C171.662 110.827 171.221 110.827 170.781 110.907C170.501 111.027 170.301 111.307 170.301 111.627C170.301 111.907 170.301 112.467 170.301 112.747C170.301 113.027 170.301 113.267 170.541 113.468C170.661 113.548 170.901 113.708 171.021 113.708C171.101 113.748 171.261 113.748 171.341 113.788C172.102 113.988 172.582 114.748 172.542 115.508V115.828C172.542 116.269 172.542 117.389 172.582 117.789C172.702 118.87 172.062 119.87 170.901 119.91H170.261C156.336 120.03 142.41 120.03 128.525 119.91H127.885C126.724 119.91 126.084 118.87 126.244 117.789C126.244 117.189 126.284 116.109 126.284 115.508C126.204 114.588 126.925 113.788 127.845 113.748C128.205 113.668 128.565 113.348 128.565 112.947V112.787V112.467C128.565 112.267 128.605 111.707 128.565 111.507C128.525 111.147 128.165 110.867 127.845 110.867C127.245 110.867 126.644 110.426 126.484 109.826C126.364 109.386 126.484 108.306 126.444 107.825C126.484 106.105 126.524 104.344 126.564 102.623C126.604 104.344 126.644 106.105 126.684 107.825L126.724 109.146C126.644 109.866 127.165 110.546 127.885 110.506C128.405 110.506 128.885 110.907 129.005 111.427C129.045 111.667 129.045 112.187 129.045 112.427V112.747C129.085 113.267 128.845 113.788 128.325 114.028C128.085 114.188 127.685 114.148 127.405 114.308C127.005 114.548 126.764 115.028 126.844 115.468V115.788C126.844 116.229 126.844 117.349 126.885 117.749C126.885 117.949 126.885 118.189 126.925 118.349C127.005 118.87 127.485 119.27 128.005 119.27H128.645C142.57 119.15 156.496 119.15 170.381 119.27H171.021C171.542 119.27 172.022 118.87 172.102 118.349C172.142 118.189 172.102 117.949 172.142 117.749C172.142 117.069 172.142 115.989 172.182 115.308C172.182 114.668 171.662 114.188 171.061 114.148C170.581 113.988 170.061 113.668 170.021 113.107C170.021 112.707 170.021 112.187 170.021 111.787C169.941 111.147 170.501 110.506 171.141 110.506C171.862 110.546 172.382 109.866 172.302 109.146C172.182 107.025 172.222 104.824 172.302 102.663Z" fill="#F2318C"/>
<path opacity="0.56" d="M138.489 65.7692L139.25 43.4807C139.29 42.6804 139.65 41.9201 140.25 41.3999L150.414 32.9167C151.854 31.7162 154.015 32.1964 154.815 33.917L163.019 51.8039C163.259 52.3241 163.339 52.8843 163.259 53.4445L160.298 72.0516C160.178 72.8919 159.657 73.6522 158.897 74.0924L149.573 79.4144C148.253 80.1747 146.572 79.7345 145.772 78.454L138.889 67.4498C138.649 66.8896 138.489 66.3294 138.489 65.7692Z" fill="#A9D8FF"/>
<path opacity="0.56" d="M147.053 76.9334L140.57 66.5694C140.41 66.2893 140.33 65.9692 140.33 65.649L141.091 43.8007C141.091 43.3205 141.331 42.8804 141.691 42.6002L151.054 34.7973C151.895 34.117 153.135 34.3971 153.575 35.3575L161.378 52.364C161.498 52.6441 161.538 53.0042 161.498 53.3243L158.617 71.4513C158.537 71.9314 158.257 72.3716 157.817 72.6117L149.254 77.4936C148.493 77.9337 147.533 77.6936 147.053 76.9334Z" fill="#C5E5FF"/>
<mask id="mask0_10644_7059" style="mask-type:luminance" maskUnits="userSpaceOnUse" x="142" y="36" width="18" height="41">
<path d="M142.211 66.0092L143.212 44.0008L152.135 36.598L159.498 53.2844L156.817 71.3713L148.614 76.2131L142.211 66.0092Z" fill="white"/>
</mask>
<g mask="url(#mask0_10644_7059)">
<path opacity="0.7" d="M142.211 66.0092L143.211 44.0008L152.134 36.598L159.497 53.2844L157.657 72.4517L149.734 77.9738L142.211 66.0092Z" fill="#5EADE7"/>
</g>
<mask id="mask1_10644_7059" style="mask-type:luminance" maskUnits="userSpaceOnUse" x="142" y="36" width="18" height="41">
<path d="M142.211 66.0092L143.212 44.0008L152.135 36.598L159.498 53.2844L156.817 71.3713L148.614 76.2131L142.211 66.0092Z" fill="white"/>
</mask>
<g mask="url(#mask1_10644_7059)">
<path opacity="0.7" d="M148.894 74.4525L143.251 65.6492L145.052 44.4011L151.775 38.799L156.697 50.4834L155.576 70.5711L148.894 74.4525Z" fill="url(#paint0_linear_10644_7059)"/>
</g>
<mask id="mask2_10644_7059" style="mask-type:luminance" maskUnits="userSpaceOnUse" x="142" y="36" width="18" height="41">
<path d="M142.211 66.0092L143.212 44.0008L152.135 36.598L159.498 53.2844L156.817 71.3713L148.614 76.2131L142.211 66.0092Z" fill="white"/>
</mask>
<g mask="url(#mask2_10644_7059)">
<path d="M160.537 73.8924L148.613 76.2133L153.735 68.6504L152.254 46.0818L159.497 53.2845L160.537 73.8924Z" fill="url(#paint1_linear_10644_7059)"/>
</g>
<mask id="mask3_10644_7059" style="mask-type:luminance" maskUnits="userSpaceOnUse" x="142" y="36" width="18" height="41">
<path d="M142.211 66.0092L143.212 44.0008L152.135 36.598L159.498 53.2844L156.817 71.3713L148.614 76.2131L142.211 66.0092Z" fill="white"/>
</mask>
<g mask="url(#mask3_10644_7059)">
<path d="M144.052 80.2147L139.45 72.4918L142.211 66.0093L153.735 68.6503L156.817 71.3713L150.094 80.2947L144.052 80.2147Z" fill="url(#paint2_linear_10644_7059)"/>
</g>
<mask id="mask4_10644_7059" style="mask-type:luminance" maskUnits="userSpaceOnUse" x="142" y="36" width="18" height="41">
<path d="M142.211 66.0092L143.212 44.0008L152.135 36.598L159.498 53.2844L156.817 71.3713L148.614 76.2131L142.211 66.0092Z" fill="white"/>
</mask>
<g mask="url(#mask4_10644_7059)">
<path d="M153.735 68.6504L145.732 51.0036L142.211 66.0094L143.211 44.001L152.255 46.0818L153.735 68.6504Z" fill="url(#paint3_linear_10644_7059)"/>
</g>
<mask id="mask5_10644_7059" style="mask-type:luminance" maskUnits="userSpaceOnUse" x="142" y="36" width="18" height="41">
<path d="M142.211 66.0092L143.212 44.0008L152.135 36.598L159.498 53.2844L156.817 71.3713L148.614 76.2131L142.211 66.0092Z" fill="white"/>
</mask>
<g mask="url(#mask5_10644_7059)">
<path d="M152.134 36.598L152.254 46.0816L159.497 53.2844L162.138 52.9643L157.856 41.3998L152.134 36.598Z" fill="url(#paint4_linear_10644_7059)"/>
</g>
<path d="M152.133 36.5981C154.774 41.9202 157.415 47.8024 159.816 53.2445C159.416 55.9255 158.856 59.727 158.376 62.368C157.936 65.009 157.295 68.7704 156.775 71.3714C157.015 68.7704 157.495 64.929 157.855 62.2879C158.176 59.687 158.736 55.8855 159.096 53.2445L159.136 53.4446C156.815 48.0025 154.294 42.0802 152.133 36.5981Z" fill="white"/>
<path d="M142.21 66.0094C142.21 58.6465 142.49 51.2838 142.93 43.961V43.8009L143.05 43.7209C144.331 42.6405 146.252 41.1599 147.572 40.1195C149.093 38.919 150.613 37.7586 152.174 36.5981C150.733 37.9186 149.293 39.1991 147.852 40.4396C146.572 41.56 144.731 43.1206 143.45 44.201L143.57 43.961C143.25 51.3638 142.89 58.6866 142.21 66.0094Z" fill="white"/>
<path d="M153.454 64.2486C152.694 58.2464 152.254 52.164 151.974 46.1217L152.174 46.3618C149.573 45.7216 146.972 45.0413 144.411 44.321C147.132 44.8012 149.813 45.3214 152.494 45.8816V46.0817C153.014 52.084 153.414 58.1663 153.454 64.2486Z" fill="white"/>
<path d="M169.42 50.8836H129.565C128.965 50.8836 128.405 50.4835 128.244 49.8832L127.644 47.8425C127.404 46.9621 128.044 46.0818 128.965 46.0818H170.02C170.941 46.0818 171.581 46.9621 171.341 47.8425L170.741 49.8832C170.541 50.4835 170.02 50.8836 169.42 50.8836Z" fill="#262E3A"/>
<path d="M131.687 46.0819C144.412 45.6417 157.297 45.6417 169.981 46.0018C170.902 46.0018 171.622 47.0022 171.302 47.8425C171.542 47.0022 170.822 46.1219 169.981 46.1619C157.257 46.522 144.372 46.522 131.687 46.0819Z" fill="#9DC9FF"/>
<path d="M129.406 49.003L129.205 48.3227C129.085 47.8826 129.406 47.4424 129.886 47.4424H169.101C169.541 47.4424 169.901 47.8826 169.781 48.3227L169.581 49.003C169.501 49.2831 169.221 49.4832 168.901 49.4832H130.086C129.726 49.4832 129.486 49.2831 129.406 49.003Z" fill="#1B2128"/>
<path opacity="0.42" d="M166.579 108.866H132.126C131.566 108.866 131.086 108.386 131.086 107.825V104.384C131.086 103.824 131.566 103.344 132.126 103.344H166.579C167.139 103.344 167.62 103.824 167.62 104.384V107.825C167.62 108.386 167.179 108.866 166.579 108.866Z" fill="#111519"/>
<path d="M156.536 37.9987C152.374 38.1987 152.254 38.3988 152.094 44.161C151.934 38.3588 151.814 38.1987 147.653 37.9987C151.814 37.7986 151.934 37.5985 152.094 31.8363C152.254 37.5985 152.374 37.7986 156.536 37.9987Z" fill="white"/>
<path d="M134.047 54.3249C134.312 54.3249 134.527 54.1099 134.527 53.8447C134.527 53.5795 134.312 53.3645 134.047 53.3645C133.782 53.3645 133.567 53.5795 133.567 53.8447C133.567 54.1099 133.782 54.3249 134.047 54.3249Z" fill="white"/>
<path d="M164.179 61.8078C164.444 61.8078 164.659 61.5928 164.659 61.3276C164.659 61.0624 164.444 60.8474 164.179 60.8474C163.914 60.8474 163.699 61.0624 163.699 61.3276C163.699 61.5928 163.914 61.8078 164.179 61.8078Z" fill="white"/>
<path d="M156.936 79.8547C157.356 79.8547 157.696 79.5143 157.696 79.0944C157.696 78.6745 157.356 78.3341 156.936 78.3341C156.516 78.3341 156.176 78.6745 156.176 79.0944C156.176 79.5143 156.516 79.8547 156.936 79.8547Z" fill="white"/>
<path d="M137.929 79.8547C138.349 79.8547 138.69 79.5143 138.69 79.0944C138.69 78.6745 138.349 78.3341 137.929 78.3341C137.509 78.3341 137.169 78.6745 137.169 79.0944C137.169 79.5143 137.509 79.8547 137.929 79.8547Z" fill="white"/>
<path d="M147.533 85.3367C147.953 85.3367 148.293 84.9964 148.293 84.5765C148.293 84.1566 147.953 83.8162 147.533 83.8162C147.113 83.8162 146.772 84.1566 146.772 84.5765C146.772 84.9964 147.113 85.3367 147.533 85.3367Z" fill="white"/>
<path d="M163.338 81.1352C163.537 81.1352 163.699 80.974 163.699 80.7751C163.699 80.5762 163.537 80.4149 163.338 80.4149C163.14 80.4149 162.978 80.5762 162.978 80.7751C162.978 80.974 163.14 81.1352 163.338 81.1352Z" fill="white"/>
<path d="M135.168 67.3299C135.721 67.3299 136.168 66.882 136.168 66.3295C136.168 65.777 135.721 65.3291 135.168 65.3291C134.616 65.3291 134.168 65.777 134.168 66.3295C134.168 66.882 134.616 67.3299 135.168 67.3299Z" fill="white"/>
<path d="M136.168 60.3273C136.433 60.3273 136.648 60.1123 136.648 59.8471C136.648 59.5819 136.433 59.3669 136.168 59.3669C135.903 59.3669 135.688 59.5819 135.688 59.8471C135.688 60.1123 135.903 60.3273 136.168 60.3273Z" fill="white"/>
<path d="M165.099 53.9248C165.342 53.9248 165.539 53.7277 165.539 53.4846C165.539 53.2415 165.342 53.0444 165.099 53.0444C164.856 53.0444 164.659 53.2415 164.659 53.4846C164.659 53.7277 164.856 53.9248 165.099 53.9248Z" fill="white"/>
<path d="M139.169 73.3322C139.434 73.3322 139.649 73.1172 139.649 72.852C139.649 72.5868 139.434 72.3718 139.169 72.3718C138.904 72.3718 138.689 72.5868 138.689 72.852C138.689 73.1172 138.904 73.3322 139.169 73.3322Z" fill="white"/>
<path d="M152.414 86.2572C152.745 86.2572 153.014 85.9885 153.014 85.657C153.014 85.3255 152.745 85.0568 152.414 85.0568C152.082 85.0568 151.814 85.3255 151.814 85.657C151.814 85.9885 152.082 86.2572 152.414 86.2572Z" fill="white"/>
<path d="M163.178 74.3326C163.731 74.3326 164.179 73.8847 164.179 73.3322C164.179 72.7797 163.731 72.3318 163.178 72.3318C162.626 72.3318 162.178 72.7797 162.178 73.3322C162.178 73.8847 162.626 74.3326 163.178 74.3326Z" fill="white"/>
<g opacity="0.84">
<g opacity="0.61">
<path d="M213.46 34.8563C207.825 35.4755 207.453 35.909 206.958 43.1543C206.462 35.909 206.091 35.4755 200.456 34.8563C206.091 34.237 206.462 33.8035 206.958 26.5582C207.453 33.7416 207.825 34.237 213.46 34.8563Z" fill="white"/>
</g>
<g opacity="0.61">
<path d="M215.998 34.8563C208.196 35.6613 207.7 36.3425 207.019 46.3125C206.4 36.3425 205.842 35.6613 198.04 34.8563C205.842 34.0512 206.338 33.37 207.019 23.4C207.638 33.37 208.196 33.9893 215.998 34.8563Z" fill="white"/>
</g>
</g>
<path d="M206.958 56.2824C195.316 57.5209 194.511 58.5117 193.582 73.4358C192.591 58.5117 191.848 57.5209 180.206 56.2824C191.848 55.0439 192.653 54.0531 193.582 39.129C194.511 54.0531 195.316 55.1058 206.958 56.2824Z" fill="white"/>
<g opacity="0.61">
<path d="M212.098 56.2825C195.997 57.9544 194.882 59.3787 193.582 80C192.281 59.3787 191.167 57.9544 175.066 56.2825C191.167 54.6105 192.281 53.1862 193.582 32.5649C194.882 53.2481 195.935 54.6105 212.098 56.2825Z" fill="white"/>
</g>
<defs>
<linearGradient id="paint0_linear_10644_7059" x1="141.655" y1="54.6789" x2="160.152" y2="58.7998" gradientUnits="userSpaceOnUse">
<stop stop-color="#5EADE7"/>
<stop offset="1" stop-color="#D2D2D2"/>
</linearGradient>
<linearGradient id="paint1_linear_10644_7059" x1="156.596" y1="59.563" x2="147.911" y2="76.6784" gradientUnits="userSpaceOnUse">
<stop offset="0.00558659" stop-color="#0B669E"/>
<stop offset="1" stop-color="#0B669E" stop-opacity="0"/>
</linearGradient>
<linearGradient id="paint2_linear_10644_7059" x1="140.372" y1="75.137" x2="156.248" y2="69.6904" gradientUnits="userSpaceOnUse">
<stop stop-color="#1383D2"/>
<stop offset="1" stop-color="#1383D2" stop-opacity="0"/>
</linearGradient>
<linearGradient id="paint3_linear_10644_7059" x1="146.811" y1="46.5713" x2="147.982" y2="67.3433" gradientUnits="userSpaceOnUse">
<stop stop-color="#1383D2"/>
<stop offset="1" stop-color="#1383D2" stop-opacity="0"/>
</linearGradient>
<linearGradient id="paint4_linear_10644_7059" x1="154.442" y1="38.1559" x2="158.157" y2="53.5436" gradientUnits="userSpaceOnUse">
<stop stop-color="#1383D2"/>
<stop offset="1" stop-color="#1383D2" stop-opacity="0"/>
</linearGradient>
</defs>
</svg>
