<svg width="200" height="48" viewBox="0 0 200 48" fill="none" xmlns="http://www.w3.org/2000/svg">
<g opacity="0.4">
<g clip-path="url(#clip0_10646_8281)">
<path d="M28.6512 0.27832C15.0379 0.27832 4 11.3476 4 24.9942C4 34.89 9.79843 43.4186 18.1722 47.3685L22.3826 35.9639C18.5954 33.7847 16.0409 29.6881 16.0409 24.9942C16.0409 18.0111 21.6878 12.3534 28.6459 12.3534C35.6041 12.3534 41.251 18.0163 41.251 24.9942C41.251 29.6881 38.6965 33.7795 34.9093 35.9639L39.1197 47.3685C47.4935 43.4186 53.2919 34.8848 53.2919 24.9942C53.2971 11.3476 42.2592 0.27832 28.6512 0.27832Z" fill="white"/>
<path d="M38.3515 24.9948C31.8844 26.7864 30.4374 28.2374 28.6509 34.7229C26.8643 28.2374 25.4173 26.7864 18.9502 24.9948C25.4173 23.2031 26.8643 21.752 28.6509 15.2666C30.4374 21.752 31.8844 23.2031 38.3515 24.9948Z" fill="white"/>
<path d="M80.5169 24.8988C79.7077 24.4145 78.817 24.0242 77.8405 23.7384C76.8641 23.4524 75.8883 23.1968 74.9119 22.9748C73.9354 22.7528 73.0447 22.5342 72.2355 22.3121C71.4265 22.0901 70.7779 21.7975 70.2829 21.4342C69.788 21.0709 69.5422 20.5899 69.5422 19.9912C69.5422 19.4833 69.689 19.0359 69.9792 18.6491C70.2693 18.2622 70.754 17.9461 71.4265 17.7039C72.099 17.4617 72.9624 17.3406 74.0177 17.3406C75.0723 17.3406 76.1475 17.4886 77.2467 17.7879C78.3459 18.0873 79.4451 18.5448 80.5443 19.1637L82.2271 15.0835C81.1279 14.3973 79.8579 13.8861 78.4241 13.5429C76.9875 13.1999 75.5297 13.0283 74.0479 13.0283C71.8259 13.0283 69.9825 13.3546 68.5113 14.0072C67.0401 14.6597 65.9409 15.5343 65.2138 16.6275C64.4833 17.7207 64.1215 18.9316 64.1215 20.2603C64.1215 21.4981 64.3741 22.5139 64.8793 23.3112C65.3845 24.1084 66.0399 24.7475 66.8489 25.2352C67.6579 25.7229 68.5488 26.1198 69.5252 26.4293C70.5014 26.7388 71.4777 26.9978 72.454 27.2097C73.43 27.4182 74.3215 27.6402 75.1299 27.8723C75.9391 28.1044 76.5877 28.4038 77.0828 28.7671C77.5745 29.1303 77.8234 29.6248 77.8234 30.2437C77.8234 30.7315 77.6664 31.162 77.3523 31.5354C77.0383 31.9121 76.55 32.2048 75.8883 32.4133C75.2259 32.6218 74.3551 32.7295 73.2799 32.7295C71.8668 32.7295 70.4707 32.5041 69.0917 32.05C67.7125 31.596 66.5178 31.0174 65.5074 30.3076L63.6572 34.3542C64.712 35.1514 66.1013 35.7972 67.832 36.295C69.5593 36.7928 71.3651 37.0418 73.249 37.0418C75.492 37.0418 77.3489 36.7088 78.8204 36.0461C80.2879 35.3835 81.3939 34.5089 82.1345 33.4258C82.8757 32.3427 83.244 31.1486 83.244 29.8435C83.244 28.6291 82.9916 27.62 82.4863 26.8262C81.9809 26.029 81.326 25.3899 80.5169 24.9021V24.8988Z" fill="white"/>
<path d="M158.943 13.4258H152.887L143.377 23.2982V13.4258H137.959V36.6387H143.377V29.8272L145.609 27.5331L153.153 36.6387H159.516L149.19 23.7691L158.943 13.4258Z" fill="white"/>
<path d="M174.754 22.8272C173.924 21.4448 172.797 20.3852 171.37 19.6452C169.947 18.9052 168.346 18.5352 166.574 18.5352C164.803 18.5352 163.085 18.9288 161.628 19.7125C160.171 20.4962 159.02 21.5793 158.177 22.9618C157.337 24.3443 156.914 25.9286 156.914 27.7215C156.914 29.5143 157.341 31.0649 158.194 32.4475C159.047 33.8299 160.253 34.9164 161.813 35.7136C163.373 36.5108 165.185 36.9077 167.247 36.9077C168.885 36.9077 170.333 36.6588 171.589 36.161C172.845 35.6631 173.89 34.9501 174.719 34.0217L171.927 31.0381C171.323 31.6132 170.654 32.0438 169.923 32.3297C169.192 32.619 168.346 32.7603 167.384 32.7603C166.308 32.7603 165.37 32.5651 164.574 32.1783C163.779 31.7915 163.161 31.2264 162.724 30.4864C162.485 30.0861 162.314 29.6455 162.208 29.1779H175.9C175.921 28.9559 175.945 28.7205 175.969 28.4648C175.989 28.2126 176.003 27.9838 176.003 27.7854C176.003 25.8613 175.586 24.2097 174.757 22.8272H174.754ZM164.236 23.0257C164.919 22.6389 165.711 22.4438 166.609 22.4438C167.506 22.4438 168.291 22.6389 168.964 23.0257C169.636 23.4126 170.165 23.9474 170.545 24.6336C170.797 25.0876 170.957 25.599 171.043 26.1607H162.143C162.232 25.6057 162.389 25.1011 162.635 24.6504C163.018 23.9541 163.55 23.4126 164.233 23.0257H164.236Z" fill="white"/>
<path d="M190.424 18.7973L185.311 30.9134L180.228 18.7973H174.811L182.648 36.7864L182.584 36.9344C182.225 37.7316 181.826 38.3 181.389 38.6432C180.952 38.9862 180.361 39.1578 179.621 39.1578C179.105 39.1578 178.583 39.0569 178.057 38.8584C177.531 38.66 177.064 38.3841 176.661 38.031L174.743 41.7109C175.326 42.2188 176.077 42.6157 176.999 42.905C177.918 43.1909 178.849 43.3355 179.792 43.3355C180.891 43.3355 181.894 43.1707 182.802 42.8377C183.71 42.5047 184.539 41.9295 185.294 41.1121C186.045 40.2947 186.714 39.1679 187.297 37.7282L195.477 18.7939H190.428L190.424 18.7973Z" fill="white"/>
<path d="M116.971 26.7056V36.6353H122.217L122.258 26.6988C122.258 24.8892 123.709 23.4159 125.539 23.4159H131.2V19.2012H124.522C120.336 19.2012 116.971 22.5682 116.971 26.7023V26.7056Z" fill="white"/>
<path d="M93.6898 32.794C92.9938 32.794 92.4439 32.5888 92.0414 32.1818C91.6382 31.7714 91.4373 31.1928 91.4373 30.4394V23.1772H96.1509C96.9051 23.1772 97.656 23.0023 98.3013 22.6154C99.3559 21.9831 99.8098 21.0614 100.332 19.2013V19.1946H91.44V14.8486H86.1902V19.1946H83.3979V23.1738H86.1902V30.5033C86.1902 32.6258 86.784 34.2236 87.9758 35.2966C89.1634 36.3696 90.8256 36.9044 92.9561 36.9044C93.7653 36.9044 94.5435 36.8102 95.2944 36.6218C96.0453 36.4335 96.6905 36.151 97.2295 35.7776L95.8162 32.1313C95.2327 32.5753 94.5264 32.794 93.6967 32.794H93.6898Z" fill="white"/>
<path d="M107.597 19.2012H101.787C102.306 21.0613 102.764 21.9796 103.818 22.6153C104.464 23.0022 105.214 23.1771 105.969 23.1771H106.58C108.311 23.1771 109.697 24.4923 109.847 26.1607H106.034C104.194 26.1607 102.702 26.386 101.559 26.8402C100.415 27.2942 99.5792 27.9165 99.0498 28.7137C98.5239 29.511 98.2578 30.4393 98.2578 31.4989C98.2578 32.5585 98.5273 33.433 99.067 34.2504C99.6059 35.0678 100.381 35.7136 101.388 36.1913C102.398 36.6655 103.611 36.9043 105.024 36.9043C106.617 36.9043 107.918 36.6049 108.929 36.0096C109.294 35.7943 109.615 35.542 109.898 35.2528L109.905 36.6285H115.152V26.7023C115.152 22.5649 111.786 19.2012 107.601 19.2012H107.597ZM108.69 32.8107C107.994 33.2211 107.208 33.4229 106.334 33.4229C105.413 33.4229 104.689 33.2278 104.163 32.841C103.634 32.4542 103.371 31.9294 103.371 31.2668C103.371 30.668 103.6 30.1736 104.061 29.7733C104.522 29.3763 105.368 29.1779 106.6 29.1779H109.868L109.877 31.6368C109.577 32.1246 109.181 32.5181 108.686 32.8107H108.69Z" fill="white"/>
</g>
</g>
<defs>
<clipPath id="clip0_10646_8281">
<rect width="192" height="48" fill="white" transform="translate(4)"/>
</clipPath>
</defs>
</svg>
