<svg width="140" height="32" viewBox="0 0 140 32" fill="none" xmlns="http://www.w3.org/2000/svg">
<path fill-rule="evenodd" clip-rule="evenodd" d="M17.9059 12.5336C17.0466 12.0223 16.1005 11.6102 15.0635 11.3084C14.0264 11.0064 12.9901 10.7365 11.9531 10.5022C10.916 10.2677 9.96999 10.0369 9.11063 9.80247C8.25142 9.56803 7.56255 9.25909 7.03689 8.8755C6.51122 8.49192 6.25021 7.98401 6.25021 7.35187C6.25021 6.81559 6.40606 6.34316 6.71426 5.93474C7.02239 5.52632 7.53721 5.19247 8.25142 4.93675C8.96563 4.68102 9.88259 4.55316 11.0034 4.55316C12.1235 4.55316 13.2654 4.70948 14.4328 5.02551C15.6002 5.34162 16.7676 5.82469 17.935 6.47812L19.7222 2.17004C18.5548 1.44551 17.2061 0.90568 15.6832 0.543379C14.1575 0.18115 12.6092 0 11.0354 0C8.67556 0 6.71783 0.34449 5.15534 1.03354C3.59277 1.72252 2.42542 2.64594 1.65317 3.80025C0.877342 4.95449 0.493039 6.23311 0.493039 7.63598C0.493039 8.94298 0.761334 10.0155 1.29792 10.8573C1.83444 11.699 2.53051 12.3738 3.38972 12.8888C4.24893 13.4038 5.19517 13.8229 6.23208 14.1496C7.26892 14.4764 8.30575 14.7499 9.34265 14.9737C10.3793 15.1938 11.326 15.4282 12.1846 15.6733C13.044 15.9184 13.7329 16.2345 14.2588 16.6181C14.7809 17.0016 15.0453 17.5237 15.0453 18.1772C15.0453 18.6922 14.8785 19.1468 14.545 19.541C14.2114 19.9388 13.6929 20.2478 12.9901 20.468C12.2866 20.6881 11.3617 20.8018 10.2198 20.8018C8.71904 20.8018 7.23629 20.5638 5.77167 20.0844C4.30698 19.6049 3.03811 18.9941 1.96494 18.2446L0 22.5172C1.12022 23.359 2.59577 24.0409 4.43384 24.5665C6.26835 25.0922 8.18617 25.355 10.187 25.355C12.5692 25.355 14.5413 25.0034 16.1042 24.3037C17.6627 23.6041 18.8374 22.6807 19.6239 21.537C20.4112 20.3934 20.8022 19.1326 20.8022 17.7546C20.8022 16.4724 20.5342 15.4069 19.9975 14.5687C19.4608 13.727 18.7653 13.0522 17.9059 12.5372V12.5336ZM101.199 0.419067H94.7675L84.6672 10.843V0.419067H78.9131V24.9288H84.6672V17.7367L87.0377 15.3145L95.0501 24.9288H101.808L90.8407 11.3402L101.199 0.419067ZM114.397 6.98601C115.913 7.76738 117.11 8.88614 117.991 10.3458H117.994C118.875 11.8055 119.318 13.5494 119.318 15.581C119.318 15.7905 119.303 16.032 119.281 16.2984C119.274 16.3722 119.267 16.4445 119.26 16.5153L119.245 16.6745C119.232 16.8046 119.22 16.9298 119.208 17.0513H104.667C104.779 17.545 104.961 18.0103 105.215 18.4329C105.679 19.2142 106.335 19.8109 107.18 20.2193C108.024 20.6278 109.021 20.8338 110.163 20.8338C111.186 20.8338 112.084 20.6846 112.861 20.3792C113.636 20.0773 114.347 19.6227 114.989 19.0154L117.954 22.1657C117.073 23.1459 115.964 23.8988 114.63 24.4245C113.296 24.9501 111.758 25.2129 110.018 25.2129C107.828 25.2129 105.904 24.7939 104.247 23.9521C102.59 23.1104 101.31 21.9632 100.404 20.5035C99.4971 19.0437 99.0441 17.4064 99.0441 15.5135C99.0441 13.6204 99.4935 11.9476 100.386 10.4879C101.281 9.02819 102.503 7.8846 104.051 7.05704C105.599 6.22955 107.422 5.81396 109.304 5.81396C111.186 5.81396 112.886 6.20465 114.397 6.98601ZM109.34 9.94096C108.387 9.94096 107.546 10.147 106.821 10.5554H106.817C106.092 10.9639 105.526 11.5356 105.12 12.2708C104.859 12.7468 104.693 13.2795 104.598 13.8655H114.049C113.959 13.2724 113.789 12.7325 113.521 12.2531C113.118 11.5285 112.556 10.9639 111.842 10.5554C111.128 10.147 110.294 9.94096 109.34 9.94096ZM134.634 6.09095L129.204 18.8839L123.806 6.09095H118.053L126.376 25.085L126.307 25.2413C125.927 26.083 125.503 26.6832 125.038 27.0455C124.574 27.4078 123.947 27.5889 123.161 27.5889C122.613 27.5889 122.058 27.4823 121.5 27.2728C120.942 27.0633 120.445 26.772 120.017 26.3991L117.98 30.2846C118.599 30.8209 119.397 31.2399 120.376 31.5454C121.352 31.8473 122.341 32 123.342 32C124.509 32 125.575 31.826 126.539 31.4744C127.503 31.1228 128.384 30.5154 129.186 29.6524C129.984 28.7894 130.694 27.5996 131.314 26.0795L140 6.0874H134.638L134.634 6.09095ZM56.622 24.9251V14.4408V14.4372C56.622 10.0723 60.1964 6.51709 64.6417 6.51709H71.7343V10.9673H65.7218C63.7787 10.9673 62.2377 12.5229 62.2377 14.4336L62.194 24.9251H56.622ZM31.8965 20.8693C31.1573 20.8693 30.5733 20.6527 30.1458 20.2229C29.7175 19.7896 29.5042 19.1787 29.5042 18.3831V10.7152H34.5103C35.3114 10.7152 36.1088 10.5305 36.7941 10.1221C37.9142 9.45441 38.3963 8.48125 38.9513 6.51719V6.5101H29.5071V1.92139H23.9315V6.5101H20.966V10.7117H23.9315V18.4506C23.9315 20.6917 24.5621 22.3787 25.8279 23.5117C27.0892 24.6446 28.8546 25.2094 31.1173 25.2094C31.9766 25.2094 32.8032 25.1099 33.6007 24.911C34.3981 24.7121 35.0834 24.4138 35.6558 24.0196L34.1549 20.1696C33.5351 20.6384 32.785 20.8693 31.9038 20.8693H31.8965ZM40.4958 6.51709H46.6664H46.6701C51.1147 6.51709 54.6897 10.0687 54.6897 14.4372V24.9181H49.117L49.1098 23.4654C48.809 23.7708 48.4681 24.0372 48.0807 24.2645C47.0072 24.8931 45.6257 25.2093 43.9332 25.2093C42.4323 25.2093 41.1447 24.9571 40.0719 24.4563C39.0021 23.952 38.1792 23.2701 37.6068 22.4071C37.0336 21.544 36.7474 20.6206 36.7474 19.5019C36.7474 18.3831 37.03 17.4028 37.5886 16.5611C38.1508 15.7193 39.0385 15.0623 40.2533 14.5828C41.4673 14.1033 43.052 13.8654 45.006 13.8654H49.0559C48.8964 12.1038 47.4245 10.7151 45.5864 10.7151H44.9375C44.1357 10.7151 43.3382 10.5304 42.6529 10.122C41.5328 9.45076 41.0471 8.48115 40.4958 6.51709ZM45.3249 21.5333C46.2535 21.5333 47.0873 21.3202 47.8265 20.887H47.8229C48.3487 20.578 48.7689 20.1625 49.0879 19.6475L49.0777 17.0512H45.6075C44.2988 17.0512 43.4001 17.2607 42.9107 17.6799C42.4213 18.1025 42.1781 18.6246 42.1781 19.2568C42.1781 19.9564 42.4577 20.5105 43.0192 20.9189C43.5778 21.3273 44.3461 21.5333 45.3249 21.5333Z" fill="#F9F9F9"/>
</svg>
