<svg width="80" height="80" viewBox="0 0 80 80" fill="none" xmlns="http://www.w3.org/2000/svg">
<path d="M40.0083 2C17.9143 2 0 19.865 0 41.8896C0 57.8607 9.41076 71.6251 23.0012 78L29.8345 59.594C23.6879 56.0767 19.5421 49.4651 19.5421 41.8896C19.5421 30.6195 28.7069 21.4882 39.9998 21.4882C51.2929 21.4882 60.4577 30.6279 60.4577 41.8896C60.4577 49.4651 56.3115 56.0683 50.1654 59.594L56.9982 78C70.5893 71.6251 80 57.8522 80 41.8896C80.0083 19.865 62.0936 2 40.0083 2Z" fill="url(#paint0_linear_11922_1874)"/>
<path d="M56 42.0001C45.3335 44.9467 42.9468 47.3333 40.0002 58C37.0534 47.3333 34.6668 44.9467 24 42.0001C34.6668 39.0533 37.0534 36.6667 40.0002 26C42.9468 36.6667 45.3335 39.0533 56 42.0001Z" fill="#F9F9F9"/>
<defs>
<linearGradient id="paint0_linear_11922_1874" x1="0" y1="42.3377" x2="80.0083" y2="42.3377" gradientUnits="userSpaceOnUse">
<stop stop-color="#FEBF4E"/>
<stop offset="0.715" stop-color="#FC4CD2"/>
</linearGradient>
</defs>
</svg>
