
<svg width="36" height="36" viewBox="0 0 36 36" fill="none" xmlns="http://www.w3.org/2000/svg">
<path fill-rule="evenodd" clip-rule="evenodd" d="M4.5 10.5C4.5 9.67158 5.17158 9 6 9H9C9.82842 9 10.5 9.67158 10.5 10.5C10.5 11.3284 9.82842 12 9 12H6C5.17158 12 4.5 11.3284 4.5 10.5Z" fill="inherit"/>
<path fill-rule="evenodd" clip-rule="evenodd" d="M4.5 18C4.5 17.1716 5.17158 16.5 6 16.5H9C9.82842 16.5 10.5 17.1716 10.5 18C10.5 18.8284 9.82842 19.5 9 19.5H6C5.17158 19.5 4.5 18.8284 4.5 18Z" fill="inherit"/>
<path fill-rule="evenodd" clip-rule="evenodd" d="M4.5 25.5C4.5 24.6716 5.17158 24 6 24H9C9.82842 24 10.5 24.6716 10.5 25.5C10.5 26.3284 9.82842 27 9 27H6C5.17158 27 4.5 26.3284 4.5 25.5Z" fill="inherit"/>
<path d="M8.25 30V30.75H9H27C27.5967 30.75 28.1691 30.513 28.591 30.091C29.013 29.6691 29.25 29.0967 29.25 28.5V7.5C29.25 6.90327 29.013 6.33098 28.591 5.90901C28.1691 5.48706 27.5967 5.25 27 5.25H9H8.25V6V30ZM7.5 3.75H27C27.9945 3.75 28.9483 4.14508 29.6517 4.84834C30.3549 5.5516 30.75 6.50544 30.75 7.5V28.5C30.75 29.4945 30.3549 30.4483 29.6517 31.1517C28.9483 31.8549 27.9945 32.25 27 32.25H7.5C7.30109 32.25 7.11032 32.1709 6.96968 32.0304C6.82902 31.8897 6.75 31.6989 6.75 31.5V4.5C6.75 4.30109 6.82902 4.11032 6.96968 3.96968C7.11033 3.82902 7.30109 3.75 7.5 3.75Z" fill="inherit" stroke="inherit"/>
<path d="M19.5 16.5C21.1569 16.5 22.5 15.1569 22.5 13.5C22.5 11.8431 21.1569 10.5 19.5 10.5C17.8431 10.5 16.5 11.8431 16.5 13.5C16.5 15.1569 17.8431 16.5 19.5 16.5Z" stroke="inherit" stroke-width="2"/>
<path fill-rule="evenodd" clip-rule="evenodd" d="M22.5 24H25.5C25.5 20.6863 22.8137 18 19.5 18C16.1863 18 13.5 20.6863 13.5 24H16.5C16.5 22.3431 17.8431 21 19.5 21C21.1569 21 22.5 22.3431 22.5 24Z" fill="inherit"/>
<path d="M15 25.5C15.8284 25.5 16.5 24.8284 16.5 24C16.5 23.1716 15.8284 22.5 15 22.5C14.1716 22.5 13.5 23.1716 13.5 24C13.5 24.8284 14.1716 25.5 15 25.5Z" fill="inherit"/>
<path d="M24 25.5C24.8284 25.5 25.5 24.8284 25.5 24C25.5 23.1716 24.8284 22.5 24 22.5C23.1716 22.5 22.5 23.1716 22.5 24C22.5 24.8284 23.1716 25.5 24 25.5Z" fill="inherit"/>
</svg>
