<svg width="24" height="24" viewBox="0 0 24 24" fill="none" xmlns="http://www.w3.org/2000/svg">
<path d="M7.54853 15.63C7.32348 15.8669 7.01826 16 6.7 16C6.38174 16 6.07652 15.8669 5.85147 15.63C5.62643 15.3931 5.5 15.0719 5.5 14.7368C5.5 14.4018 5.62643 14.0805 5.85147 13.8437C6.07652 13.6068 6.38174 13.4737 6.7 13.4737L9.1 10.9474C9.1 10.6124 9.22643 10.2911 9.45147 10.0542C9.67652 9.81729 9.98174 9.68421 10.3 9.68421C10.6183 9.68421 10.9235 9.81729 11.1485 10.0542C11.3736 10.2911 11.5 10.6124 11.5 10.9474L12.884 12.4295H13.012L15.9 9.38947C15.8961 9.34747 15.8961 9.30516 15.9 9.26316C15.9 9.01333 15.9704 8.76911 16.1022 8.56139C16.2341 8.35366 16.4215 8.19176 16.6408 8.09615C16.8601 8.00055 17.1013 7.97553 17.3341 8.02427C17.5669 8.07301 17.7807 8.19332 17.9485 8.36997C18.1164 8.54663 18.2306 8.7717 18.2769 9.01673C18.3232 9.26176 18.2995 9.51574 18.2087 9.74655C18.1178 9.97736 17.964 10.1746 17.7667 10.3134C17.5693 10.4522 17.3373 10.5263 17.1 10.5263L14.188 13.6168V13.6842C14.188 14.0192 14.0616 14.3405 13.8365 14.5774C13.6115 14.8143 13.3063 14.9474 12.988 14.9474C12.6697 14.9474 12.3645 14.8143 12.1395 14.5774C11.9144 14.3405 11.788 14.0192 11.788 13.6842V13.6168L10.5 12.2611H10.316H10.132L7.9 14.6105C7.90391 14.6525 7.90391 14.6948 7.9 14.7368C7.9 15.0719 7.77357 15.3931 7.54853 15.63Z" fill="#363A5B"/>
<path fill-rule="evenodd" clip-rule="evenodd" d="M18 4H6C4.89543 4 4 4.89543 4 6V18C4 19.1046 4.89543 20 6 20H18C19.1046 20 20 19.1046 20 18V6C20 4.89543 19.1046 4 18 4ZM6 2C3.79086 2 2 3.79086 2 6V18C2 20.2091 3.79086 22 6 22H18C20.2091 22 22 20.2091 22 18V6C22 3.79086 20.2091 2 18 2H6Z" fill="#363A5B"/>
</svg>
