<svg width="16" height="16" viewBox="0 0 16 16" fill="none" xmlns="http://www.w3.org/2000/svg">
<g clip-path="url(#clip0_7389_40005)">
<path fill-rule="evenodd" clip-rule="evenodd" d="M7.33331 6.66671C6.96512 6.66671 6.66665 6.96518 6.66665 7.33337V13.3334C6.66665 13.7016 6.96512 14 7.33331 14H13.3333C13.7015 14 14 13.7016 14 13.3334V7.33337C14 6.96518 13.7015 6.66671 13.3333 6.66671H7.33331ZM5.33331 7.33337C5.33331 6.2288 6.22874 5.33337 7.33331 5.33337H13.3333C14.4379 5.33337 15.3333 6.2288 15.3333 7.33337V13.3334C15.3333 14.4379 14.4379 15.3334 13.3333 15.3334H7.33331C6.22874 15.3334 5.33331 14.4379 5.33331 13.3334V7.33337Z" fill="white"/>
<path fill-rule="evenodd" clip-rule="evenodd" d="M2.66669 1.99996C2.48988 1.99996 2.32031 2.0702 2.19528 2.19522C2.07026 2.32025 2.00002 2.48981 2.00002 2.66663V8.66663C2.00002 8.84344 2.07026 9.01301 2.19528 9.13803C2.32031 9.26305 2.48988 9.33329 2.66669 9.33329H3.33335C3.70154 9.33329 4.00002 9.63177 4.00002 9.99996C4.00002 10.3681 3.70154 10.6666 3.33335 10.6666H2.66669C2.13625 10.6666 1.62755 10.4559 1.25247 10.0808C0.877401 9.70577 0.666687 9.19706 0.666687 8.66663V2.66663C0.666687 2.13619 0.877401 1.62749 1.25247 1.25241C1.62755 0.87734 2.13625 0.666626 2.66669 0.666626H8.66669C9.19712 0.666626 9.70583 0.87734 10.0809 1.25241C10.456 1.62748 10.6667 2.13619 10.6667 2.66663V3.33329C10.6667 3.70148 10.3682 3.99996 10 3.99996C9.63183 3.99996 9.33335 3.70148 9.33335 3.33329V2.66663C9.33335 2.48982 9.26312 2.32025 9.13809 2.19522C9.01307 2.0702 8.8435 1.99996 8.66669 1.99996H2.66669Z" fill="white"/>
</g>
<defs>
<clipPath id="clip0_7389_40005">
<rect width="16" height="16" fill="white"/>
</clipPath>
</defs>
</svg>
