<svg width="64" height="64" viewBox="0 0 64 64" fill="none" xmlns="http://www.w3.org/2000/svg">
<circle cx="32" cy="32" r="32" fill="url(#paint0_linear_12095_3209)"/>
<path fill-rule="evenodd" clip-rule="evenodd" d="M39.635 25.2319C38.2554 24.0973 36.64 23.285 34.9065 22.8542C33.173 22.4234 31.3652 22.3851 29.615 22.7419C27.2846 23.2127 25.1465 24.365 23.472 26.0529C21.7976 27.7407 20.6622 29.8878 20.21 32.2219C19.8798 33.972 19.9398 35.7734 20.3857 37.4976C20.8317 39.2219 21.6526 40.8264 22.79 42.1969C23.8455 43.388 24.4505 44.9112 24.5 46.5019V49.5019H39.5V46.7869C39.5503 45.0307 40.1956 43.3436 41.33 42.0019C43.3177 39.5431 44.2546 36.3992 43.9373 33.2534C43.6199 30.1076 42.0738 27.2142 39.635 25.2019V25.2319ZM36.5 46.5019C36.6168 44.1649 37.4968 41.9308 39.005 40.1419C40.3056 38.5511 41.0111 36.5567 41 34.5019C41.0007 33.1656 40.7039 31.8459 40.131 30.6387C39.5581 29.4314 38.7236 28.3669 37.6881 27.5223C36.6525 26.6778 35.4419 26.0744 34.1441 25.7561C32.8462 25.4378 31.4938 25.4124 30.185 25.6819C28.6621 25.9972 27.2468 26.7018 26.0773 27.7269C24.9077 28.752 24.0238 30.0627 23.5116 31.5312C22.9995 32.9997 22.8766 34.5758 23.155 36.1059C23.4333 37.636 24.1035 39.0679 25.1 40.2619C26.6104 41.994 27.4604 44.204 27.5 46.5019H30.5V42.0019C30.5 41.6041 30.658 41.2225 30.9393 40.9412C31.2206 40.6599 31.6022 40.5019 32 40.5019C32.3978 40.5019 32.7794 40.6599 33.0607 40.9412C33.342 41.2225 33.5 41.6041 33.5 42.0019V46.5019H36.5Z" fill="white"/>
<path fill-rule="evenodd" clip-rule="evenodd" d="M32 15C33.1046 15 34 15.8954 34 17V19C34 20.1046 33.1046 21 32 21C30.8954 21 30 20.1046 30 19V17C30 15.8954 30.8954 15 32 15Z" fill="white"/>
<path fill-rule="evenodd" clip-rule="evenodd" d="M17.5858 18.5858C18.3668 17.8047 19.6332 17.8047 20.4142 18.5858L22.4142 20.5858C23.1953 21.3668 23.1953 22.6332 22.4142 23.4142C21.6332 24.1953 20.3668 24.1953 19.5858 23.4142L17.5858 21.4142C16.8047 20.6332 16.8047 19.3668 17.5858 18.5858Z" fill="white"/>
<path fill-rule="evenodd" clip-rule="evenodd" d="M46.4142 18.5858C47.1953 19.3668 47.1953 20.6332 46.4142 21.4142L44.4142 23.4142C43.6332 24.1953 42.3668 24.1953 41.5858 23.4142C40.8047 22.6332 40.8047 21.3668 41.5858 20.5858L43.5858 18.5858C44.3668 17.8047 45.6332 17.8047 46.4142 18.5858Z" fill="white"/>
<defs>
<linearGradient id="paint0_linear_12095_3209" x1="49.4222" y1="31.1111" x2="28.2221" y2="-1.45991" gradientUnits="userSpaceOnUse">
<stop stop-color="#F63190"/>
<stop offset="0.473958" stop-color="#9A47CF"/>
<stop offset="1" stop-color="#95CEE7"/>
</linearGradient>
</defs>
</svg>
