<svg width="24" height="24" viewBox="0 0 24 24" fill="none" xmlns="http://www.w3.org/2000/svg">
<path fill-rule="evenodd" clip-rule="evenodd" d="M17.09 6.82129C16.1703 6.06487 15.0933 5.52332 13.9377 5.23613C12.782 4.94895 11.5768 4.92338 10.41 5.16129C8.85638 5.47511 7.43099 6.24336 6.31468 7.36857C5.19838 8.49378 4.44147 9.92522 4.14 11.4813C3.91985 12.648 3.95985 13.8489 4.25716 14.9984C4.55447 16.1479 5.10176 17.2176 5.86 18.1313C6.56368 18.9254 6.96703 19.9408 7 21.0013V23.0013H17V21.1913C17.0336 20.0205 17.4637 18.8957 18.22 18.0013C19.5451 16.3621 20.1698 14.2661 19.9582 12.1689C19.7466 10.0717 18.7159 8.14278 17.09 6.80129V6.82129ZM15 21.0013C15.0779 19.4433 15.6645 17.9539 16.67 16.7613C17.5371 15.7007 18.0074 14.3711 18 13.0013C18.0005 12.1104 17.8026 11.2306 17.4207 10.4258C17.0388 9.62094 16.4824 8.91124 15.792 8.34821C15.1017 7.78519 14.2946 7.38296 13.4294 7.17073C12.5642 6.9585 11.6626 6.9416 10.79 7.12126C9.77471 7.33146 8.83122 7.80117 8.05152 8.48459C7.27182 9.168 6.68252 10.0418 6.34109 11.0208C5.99965 11.9998 5.91773 13.0505 6.10331 14.0706C6.28889 15.0907 6.73564 16.0453 7.4 16.8413C8.40694 17.996 8.97361 19.4694 9 21.0013H11V18.0013C11 17.736 11.1054 17.4817 11.2929 17.2942C11.4804 17.1066 11.7348 17.0013 12 17.0013C12.2652 17.0013 12.5196 17.1066 12.7071 17.2942C12.8946 17.4817 13 17.736 13 18.0013V21.0013H15Z" fill="#fff"/>
<path d="M12 1L12 3" stroke="#fff" stroke-width="2" stroke-linecap="round"/>
<path d="M4 3L5 4" stroke="#fff" stroke-width="2" stroke-linecap="round"/>
<path d="M20 3L19 4" stroke="#fff" stroke-width="2" stroke-linecap="round"/>
</svg>
