<svg width="120" height="160" viewBox="0 0 120 160" fill="none" xmlns="http://www.w3.org/2000/svg">
<path d="M52 115.5C40.5 115.5 49.8608 121.659 38.6804 129.329C27.5 137 9.49998 137.911 9.49999 132C9.5 123 24.5 133.8 35.1187 120.239C41 108 47.5 112 52 115.5Z" fill="#FFABCE"/>
<path opacity="0.5" d="M55.3876 121.63C45.0997 116.491 50.7217 126.184 37.292 128.05C23.8623 129.916 7.35243 122.687 9.99377 117.399C14.0155 109.348 22.6086 125.712 38.1676 118.327C48.8984 110.005 52.9259 116.488 55.3876 121.63Z" fill="#FFABCE"/>
<path opacity="0.2" d="M56.045 128.643C48.8903 119.64 49.8923 130.8 36.9311 126.82C23.97 122.839 12.0581 109.313 16.6857 105.636C23.7318 100.037 24.6089 118.499 41.8316 118.376C55.0731 115.365 55.9854 122.943 56.045 128.643Z" fill="#FFABCE"/>
<path d="M87.847 97.908C87.847 107.419 94.9413 125.881 87.847 132.816C83.3915 137.172 72.7095 127.563 62.1375 127.5C51.5654 127.437 39.831 136.667 36.4279 132.816C28.7151 120.848 36.4279 117.187 36.4279 97.908C36.4279 78.6289 47.9385 63 62.1375 63C76.3364 63 87.847 78.6289 87.847 97.908Z" fill="#FFABCE"/>
<path d="M34.8521 44C34.8521 58.9117 48.7313 71 65.8521 71C82.9729 71 91.3521 58.9117 91.3521 44C91.3521 29.0883 98.8521 17 81.8521 4C78.3521 34 34.8521 29.0883 34.8521 44Z" fill="#FFABCE"/>
<path d="M71.8525 35.5C69.8525 48 83.383 71 66.2621 71C49.1413 71 35.2621 58.9117 35.2621 44C35.2621 29.0883 31.2621 14 48.2621 1C48.2621 26 71.8525 20.5883 71.8525 35.5Z" fill="#FFABCE"/>
<path d="M53 131.5C53 141.717 53 150 43 150C37.4772 150 33 141.717 33 131.5C33 121.283 37.4772 113 43 113C48.5228 113 53 121.283 53 131.5Z" fill="#FFABCE"/>
<path d="M71 131.5C71 141.717 71 150 81 150C86.5228 150 91 141.717 91 131.5C91 121.283 86.5228 113 81 113C75.4772 113 71 121.283 71 131.5Z" fill="#FFABCE"/>
<ellipse cx="29.4135" cy="86.3011" rx="6.7701" ry="10" transform="rotate(-13.4581 29.4135 86.3011)" fill="#FFABCE"/>
<ellipse cx="37.4216" cy="83.6447" rx="6.7701" ry="14.2522" transform="rotate(32.874 37.4216 83.6447)" fill="#FFABCE"/>
<ellipse rx="6.7701" ry="10" transform="matrix(-0.871071 -0.491157 -0.491157 0.871071 93.8084 87.0359)" fill="#FFABCE"/>
<ellipse rx="6.7701" ry="13.4147" transform="matrix(-0.911983 0.410229 0.410229 0.911983 84.6775 83.0113)" fill="#FFABCE"/>
<path d="M51.8203 151.5C51.8203 155.09 55.0253 158 44.0003 158C32.9753 158 36.1803 155.09 36.1803 151.5C36.1803 147.91 39.1291 145 44.0003 145C48.8714 145 51.8203 147.91 51.8203 151.5Z" fill="#FFABCE"/>
<path d="M87.0732 151.5C87.0732 155.09 90.2782 158 79.2532 158C68.2282 158 71.4332 155.09 71.4332 151.5C71.4332 147.91 74.3821 145 79.2532 145C84.1244 145 87.0732 147.91 87.0732 151.5Z" fill="#FFABCE"/>
<path d="M48 42C49 45.5 50.6863 48 54 48C57.3137 48 61 45.8137 61 42.5C61 39.1863 54.3137 36 51 36C47.6863 36 47 38.5 48 42Z" fill="#607990"/>
<ellipse rx="2.5" ry="5" transform="matrix(-1 0 0 1 54.5 42)" fill="#363A5B"/>
<path d="M86.622 42C85.728 45.5 84.2204 48 81.258 48C78.2955 48 75 45.8137 75 42.5C75 39.1863 80.9775 36 83.94 36C86.9024 36 87.516 38.5 86.622 42Z" fill="#607990"/>
<ellipse cx="81" cy="42" rx="2" ry="5" fill="#363A5B"/>
<path d="M100 73.7383C102.667 71.7709 106.703 69.9476 109.5 73.7383C112.996 78.4766 110.5 80.5417 106.82 82.0389C102 84 100.427 83.4797 98.4961 80.8628C96.5653 78.2459 98.349 77.3957 100 73.7383Z" fill="#363A5B"/>
<ellipse cx="98.6089" cy="75.0532" rx="2.96676" ry="3.95567" transform="rotate(-171.431 98.6089 75.0532)" fill="#363A5B"/>
<path d="M27.874 73.5877C26.4538 70.5938 25.685 69.0062 21.4288 71.0252C16.1085 73.5488 16.8669 75.5251 17.9408 77.6799C21.262 81.6861 21.4288 82.6662 25.8326 80.5772C29.8669 78.6635 28.3669 77.0251 27.874 73.5877Z" fill="#363A5B"/>
<ellipse rx="2.63566" ry="3.51421" transform="matrix(0.712743 0.701426 0.701426 -0.712743 27.2107 74.8787)" fill="#363A5B"/>
<path d="M61.5366 81.2727L70.6829 72L53 81.2727L66.4146 89.3091L58.4878 106L78 88.0727L61.5366 81.2727Z" fill="#363A5B"/>
<path d="M78.5 53C83.3 57 88.8333 52.3333 91 49.5C87.5 68.5 78 70 65.5 69.5C44 69.5 37 61 35 49.5C42 55.5 53.3333 57.3333 58.5 54C60.5 51 59.5 48 70 47.5C80 48 76 54 78.5 53Z" fill="white" fill-opacity="0.8"/>
<path d="M75 57.7535C75 59.6852 72.851 63 70.2 63C64.6 63 63 59.6852 63 57.7535C63 55.8218 67.549 54.5 70.2 54.5C72.851 54.5 75 55.8218 75 57.7535Z" fill="#EB0046"/>
<path d="M78 53C76 55.6831 73.0812 59.4395 70.1479 53C69.0368 56.0185 61.6479 59.5 58 53" stroke="#363A5B" stroke-width="2" stroke-linecap="round" stroke-linejoin="round"/>
<path d="M72.5 50.4502C72.5 51.8309 71.3807 52.9502 70 52.9502C68.6193 52.9502 67.5 51.8309 67.5 50.4502C67.5 49.0695 68.6193 48.9502 70 48.9502C71.3807 48.9502 72.5 49.0695 72.5 50.4502Z" fill="#363A5B"/>
<path d="M60 33.5C60 32.1193 59 31.5 57.5 31C56 31.5 55 32.1193 55 33.5C55 34.8807 56.1193 35 57.5 35C58.8807 35 60 34.8807 60 33.5Z" fill="#607990" fill-opacity="0.4"/>
<path d="M81 33.5C81 32.1193 80 31.5 78.5 31C77 31.5 76 32.1193 76 33.5C76 34.8807 77.1193 35 78.5 35C79.8807 35 81 34.8807 81 33.5Z" fill="#607990" fill-opacity="0.4"/>
<path d="M47.5003 10.5C48.3003 16.1 56.0652 23 59.2318 25C50.8318 23.8 47.8985 27.1667 46.2318 28.5C43.4318 23.3 44.6669 13.5 47.5003 10.5Z" fill="#BF5280"/>
<path d="M73 26.1613C76.8136 25.7742 82.3573 19.3871 83.5932 16C87.8305 19.871 88.3602 27.2903 87.8305 31C86.1356 28.6774 76.0014 26.4839 73 26.1613Z" fill="#BF5280"/>
</svg>
