<svg width="16" height="16" viewBox="0 0 16 16" fill="none" xmlns="http://www.w3.org/2000/svg">
<path d="M3.48685 6.97915C2.2996 6.97915 1.3335 6.01305 1.3335 4.81998C1.3335 3.63273 2.2996 2.66663 3.48685 2.66663C4.67992 2.66663 5.65184 3.63273 5.65184 4.81998C5.65184 6.01305 4.67992 6.97915 3.48685 6.97915ZM12.5077 6.97915C11.3204 6.97915 10.3485 6.01305 10.3485 4.81998C10.3485 3.63273 11.3204 2.66663 12.5077 2.66663C13.7007 2.66663 14.6668 3.63273 14.6668 4.81998C14.6668 6.01305 13.7007 6.97915 12.5077 6.97915ZM3.48685 5.63476C3.95244 5.63476 4.30745 5.27975 4.30745 4.81998C4.30745 4.35439 3.95244 4.0052 3.48685 4.0052C3.0329 4.0052 2.67789 4.36021 2.67789 4.81998C2.67789 5.27393 3.0329 5.63476 3.48685 5.63476ZM12.5077 5.63476C12.9674 5.63476 13.3224 5.27975 13.3224 4.81998C13.3224 4.35439 12.9732 4.0052 12.5077 4.0052C12.0479 4.0052 11.6929 4.36021 11.6929 4.81998C11.6929 5.27393 12.0537 5.63476 12.5077 5.63476ZM6.55974 5.37869C6.26875 5.37869 6.03596 5.14007 6.03596 4.84908C6.03596 4.56391 6.27457 4.32529 6.55974 4.32529C6.85074 4.32529 7.08353 4.56391 7.08353 4.84908C7.08353 5.14007 6.85074 5.37869 6.55974 5.37869ZM7.99143 5.37869C7.70626 5.37869 7.46764 5.14007 7.46764 4.84908C7.46764 4.56391 7.70626 4.32529 7.99143 4.32529C8.28243 4.32529 8.52104 4.56391 8.52104 4.84908C8.52104 5.14007 8.28243 5.37869 7.99143 5.37869ZM9.42894 5.37869C9.14377 5.37869 8.90515 5.14007 8.90515 4.84908C8.90515 4.56391 9.14377 4.32529 9.42894 4.32529C9.71994 4.32529 9.95855 4.56391 9.95855 4.84908C9.95855 5.14007 9.71994 5.37869 9.42894 5.37869ZM10.9596 8.09075C10.6686 8.09075 10.4358 7.85213 10.4358 7.56114C10.4358 7.27597 10.6744 7.03735 10.9596 7.03735C11.2506 7.03735 11.4834 7.27597 11.4834 7.56114C11.4834 7.85213 11.2506 8.09075 10.9596 8.09075ZM5.03494 8.09075C4.74394 8.09075 4.50533 7.85213 4.50533 7.56114C4.50533 7.27597 4.74976 7.03735 5.03494 7.03735C5.32011 7.03735 5.55873 7.27597 5.55873 7.56114C5.55873 7.85213 5.32011 8.09075 5.03494 8.09075ZM9.83051 9.33038C9.54534 9.33038 9.30673 9.09177 9.30673 8.80077C9.30673 8.5156 9.55116 8.27699 9.83051 8.27699C10.1215 8.27699 10.3601 8.5156 10.3601 8.80077C10.3601 9.09177 10.1215 9.33038 9.83051 9.33038ZM6.15817 9.33038C5.86718 9.33038 5.63438 9.09177 5.63438 8.80077C5.63438 8.5156 5.873 8.27699 6.15817 8.27699C6.44917 8.27699 6.68196 8.5156 6.68196 8.80077C6.68196 9.09177 6.44917 9.33038 6.15817 9.33038ZM7.99725 13.608C6.81 13.608 5.8439 12.6419 5.8439 11.443C5.8439 10.2557 6.81 9.28964 7.99725 9.28964C9.19033 9.28964 10.1564 10.2557 10.1564 11.443C10.1564 12.6419 9.19033 13.608 7.99725 13.608ZM7.99725 12.2636C8.46284 12.2636 8.81786 11.9028 8.81786 11.443C8.81786 10.9832 8.46284 10.634 7.99725 10.634C7.5433 10.634 7.18247 10.9832 7.18247 11.443C7.18247 11.9028 7.5433 12.2636 7.99725 12.2636Z" fill="white"/>
</svg>
