<svg width="24" height="24" viewBox="0 0 24 24" fill="none" xmlns="http://www.w3.org/2000/svg">
<path fill-rule="evenodd" clip-rule="evenodd" d="M3 7C3 6.44772 3.44772 6 4 6L6 6C6.55228 6 7 6.44772 7 7C7 7.55228 6.55228 8 6 8L4 8C3.44772 8 3 7.55228 3 7Z" fill="#363A5B"/>
<path fill-rule="evenodd" clip-rule="evenodd" d="M3 12C3 11.4477 3.44772 11 4 11H6C6.55228 11 7 11.4477 7 12C7 12.5523 6.55228 13 6 13H4C3.44772 13 3 12.5523 3 12Z" fill="#363A5B"/>
<path fill-rule="evenodd" clip-rule="evenodd" d="M3 17C3 16.4477 3.44772 16 4 16H6C6.55228 16 7 16.4477 7 17C7 17.5523 6.55228 18 6 18H4C3.44772 18 3 17.5523 3 17Z" fill="#363A5B"/>
<path d="M18 2H5C4.73478 2 4.48043 2.10536 4.29289 2.29289C4.10536 2.48043 4 2.73478 4 3V21C4 21.2652 4.10536 21.5196 4.29289 21.7071C4.48043 21.8946 4.73478 22 5 22H18C18.7956 22 19.5587 21.6839 20.1213 21.1213C20.6839 20.5587 21 19.7956 21 19V5C21 4.20435 20.6839 3.44129 20.1213 2.87868C19.5587 2.31607 18.7956 2 18 2ZM19 19C19 19.2652 18.8946 19.5196 18.7071 19.7071C18.5196 19.8946 18.2652 20 18 20H6V4H18C18.2652 4 18.5196 4.10536 18.7071 4.29289C18.8946 4.48043 19 4.73478 19 5V19Z" fill="#363A5B"/>
<circle cx="13" cy="9" r="2" stroke="#363A5B" stroke-width="2"/>
<path fill-rule="evenodd" clip-rule="evenodd" d="M15 16H17C17 13.7909 15.2091 12 13 12C10.7909 12 9 13.7909 9 16H11C11 14.8954 11.8954 14 13 14C14.1046 14 15 14.8954 15 16Z" fill="#363A5B"/>
<circle cx="10" cy="16" r="1" fill="#363A5B"/>
<circle cx="16" cy="16" r="1" fill="#363A5B"/>
</svg>
