<svg width="64" height="64" viewBox="0 0 64 64" fill="none" xmlns="http://www.w3.org/2000/svg">
<circle cx="32" cy="32" r="32" fill="url(#paint0_linear_8307_21994)"/>
<path fill-rule="evenodd" clip-rule="evenodd" d="M31.4733 15.5955C31.8129 15.4682 32.1871 15.4682 32.5267 15.5955L44.5267 20.0955C45.1121 20.3151 45.5 20.8747 45.5 21.5V32C45.5 37.1697 42.0774 41.3004 38.9878 44.0039C37.4114 45.3832 35.8422 46.4613 34.67 47.1939C34.0823 47.5612 33.5905 47.8441 33.2421 48.0369C33.0678 48.1334 32.9291 48.2075 32.832 48.2585C32.7834 48.284 32.7452 48.3037 32.7181 48.3176L32.6859 48.3341L32.6762 48.339L32.6729 48.3406C32.6725 48.3408 32.6708 48.3416 32 47C31.3292 48.3416 31.3287 48.3414 31.3283 48.3412L31.3238 48.339L31.3141 48.3341L31.2819 48.3176C31.2548 48.3037 31.2166 48.284 31.168 48.2585C31.0709 48.2075 30.9322 48.1334 30.7579 48.0369C30.4095 47.8441 29.9177 47.5612 29.33 47.1939C28.1578 46.4613 26.5886 45.3832 25.0122 44.0039C21.9226 41.3004 18.5 37.1697 18.5 32V21.5C18.5 20.8747 18.8879 20.3151 19.4733 20.0955L31.4733 15.5955ZM32 47L31.3283 48.3412C31.7505 48.5523 32.2485 48.5528 32.6708 48.3416L32 47ZM32 45.2941C32.2875 45.1312 32.6551 44.9155 33.08 44.6499C34.1578 43.9762 35.5886 42.9918 37.0122 41.7461C39.9226 39.1996 42.5 35.8303 42.5 32V22.5395L32 18.602L21.5 22.5395V32C21.5 35.8303 24.0774 39.1996 26.9878 41.7461C28.4114 42.9918 29.8422 43.9762 30.92 44.6499C31.3449 44.9155 31.7125 45.1312 32 45.2941Z" fill="white"/>
<defs>
<linearGradient id="paint0_linear_8307_21994" x1="49.4222" y1="31.1111" x2="28.2221" y2="-1.45991" gradientUnits="userSpaceOnUse">
<stop stop-color="#F63190"/>
<stop offset="0.473958" stop-color="#9A47CF"/>
<stop offset="1" stop-color="#95CEE7"/>
</linearGradient>
</defs>
</svg>
