<svg width="24" height="24" viewBox="0 0 24 24" fill="none" xmlns="http://www.w3.org/2000/svg">
<path d="M14 18C14.2652 18 14.5196 17.8946 14.7071 17.7071C14.8946 17.5196 15 17.2652 15 17L15 5.40999L17.29 7.70999C17.4783 7.89829 17.7337 8.00408 18 8.00408C18.2663 8.00408 18.5217 7.89829 18.71 7.70999C18.8983 7.52168 19.0041 7.26629 19.0041 6.99999C19.0041 6.73369 18.8983 6.47829 18.71 6.28999L14.71 2.28999C14.5694 2.15123 14.3908 2.05723 14.1968 2.01986C14.0028 1.98248 13.8021 2.00341 13.62 2.07999C13.4374 2.15501 13.2811 2.2824 13.1707 2.44612C13.0604 2.60985 13.001 2.80256 13 2.99999L13 17C13 17.2652 13.1054 17.5196 13.2929 17.7071C13.4804 17.8946 13.7348 18 14 18ZM10.38 21.92C10.5626 21.845 10.7189 21.7176 10.8293 21.5538C10.9396 21.3901 10.999 21.1974 11 21L11 6.99999C11 6.73477 10.8946 6.48042 10.7071 6.29288C10.5196 6.10534 10.2652 5.99999 10 5.99999C9.73478 5.99999 9.48043 6.10534 9.29289 6.29288C9.10535 6.48042 9 6.73477 9 6.99999L9 18.59L6.71 16.29C6.61703 16.1963 6.50643 16.1219 6.38457 16.0711C6.26271 16.0203 6.13201 15.9942 6 15.9942C5.86799 15.9942 5.73728 16.0203 5.61542 16.0711C5.49356 16.1219 5.38296 16.1963 5.29 16.29C5.19627 16.383 5.12187 16.4935 5.07111 16.6154C5.02034 16.7373 4.9942 16.868 4.9942 17C4.9942 17.132 5.02034 17.2627 5.07111 17.3846C5.12187 17.5064 5.19627 17.617 5.29 17.71L9.29 21.71C9.43062 21.8487 9.60919 21.9427 9.80318 21.9801C9.99717 22.0175 10.1979 21.9966 10.38 21.92Z" fill="inherit"/>
</svg>
