<svg width="64" height="64" viewBox="0 0 64 64" fill="none" xmlns="http://www.w3.org/2000/svg">
<circle cx="32" cy="32" r="32" fill="url(#paint0_linear_8307_17848)"/>
<path fill-rule="evenodd" clip-rule="evenodd" d="M29.7922 17.4246C30.4662 17.0452 31.2265 16.8458 31.9999 16.8458C32.7733 16.8458 33.5337 17.0452 34.2076 17.4246C34.8815 17.804 35.4463 18.3507 35.8474 19.012L35.8517 19.0191L48.5567 40.2291L48.5689 40.2499C48.9618 40.9303 49.1697 41.7018 49.1719 42.4875C49.1741 43.2733 48.9705 44.0459 48.5814 44.7285C48.1923 45.4112 47.6313 45.98 46.9541 46.3785C46.2768 46.777 45.5071 46.9912 44.7214 46.9999L44.7049 47L19.2784 46.9999C18.4927 46.9913 17.723 46.777 17.0458 46.3785C16.3686 45.98 15.8075 45.4112 15.4184 44.7285C15.0293 44.0459 14.8257 43.2733 14.8279 42.4875C14.8301 41.7018 15.038 40.9303 15.4309 40.2499L15.4431 40.2291L28.1481 19.0191L29.4349 19.7899L28.1524 19.012C28.5535 18.3507 29.1183 17.804 29.7922 17.4246ZM30.7192 20.5649L18.0239 41.7587C17.8962 41.9834 17.8286 42.2373 17.8279 42.4959C17.8272 42.7578 17.895 43.0154 18.0247 43.2429C18.1544 43.4705 18.3414 43.6601 18.5672 43.7929C18.7909 43.9246 19.045 43.9959 19.3045 43.9999H44.6953C44.9548 43.9959 45.2089 43.9246 45.4326 43.7929C45.6584 43.6601 45.8454 43.4705 45.9751 43.2429C46.1048 43.0154 46.1727 42.7578 46.1719 42.4959C46.1712 42.2374 46.1037 41.9834 45.9759 41.7588L33.2824 20.5679L33.2806 20.5649C33.147 20.3458 32.9594 20.1647 32.7358 20.0387C32.5112 19.9123 32.2577 19.8458 31.9999 19.8458C31.7421 19.8458 31.4887 19.9123 31.264 20.0387C31.0404 20.1647 30.8528 20.3458 30.7192 20.5649ZM30.4999 39.5C30.4999 38.6715 31.1715 38 31.9999 38H32.0149C32.8433 38 33.5149 38.6715 33.5149 39.5C33.5149 40.3284 32.8433 41 32.0149 41H31.9999C31.1715 41 30.4999 40.3284 30.4999 39.5ZM33.4999 27.5C33.4999 26.6715 32.8283 26 31.9999 26C31.1715 26 30.4999 26.6715 30.4999 27.5V33.5C30.4999 34.3284 31.1715 35 31.9999 35C32.8283 35 33.4999 34.3284 33.4999 33.5V27.5Z" fill="white"/>
<defs>
<linearGradient id="paint0_linear_8307_17848" x1="49.4222" y1="31.1111" x2="28.2221" y2="-1.45991" gradientUnits="userSpaceOnUse">
<stop stop-color="#F63190"/>
<stop offset="0.473958" stop-color="#9A47CF"/>
<stop offset="1" stop-color="#95CEE7"/>
</linearGradient>
</defs>
</svg>
