<svg width="64" height="64" viewBox="0 0 64 64" fill="none" xmlns="http://www.w3.org/2000/svg">
<circle cx="32" cy="32" r="32" fill="#607990"/>
<path d="M7.3535 42L16.7295 23.184H25.0495L34.3935 42H27.5135L25.9455 38.576H15.8335L14.0735 42H7.3535ZM17.5935 34.16H24.1535L21.0495 27.344H20.7295L17.5935 34.16ZM42.436 34.672C40.2813 34.672 38.7133 34.2667 37.732 33.456C36.7507 32.6453 36.26 31.344 36.26 29.552V28.4C36.26 27.4613 36.4307 26.5973 36.772 25.808C37.1347 25.0187 37.7427 24.3893 38.596 23.92C39.4493 23.4293 40.6227 23.184 42.116 23.184H43.908V21.2H48.388V23.184H50.82C52.2707 23.184 53.444 23.2587 54.34 23.408C55.236 23.5573 55.684 23.7173 55.684 23.888L54.724 27.856C54.276 27.8133 53.4227 27.76 52.164 27.696C50.9267 27.6107 49.4013 27.568 47.588 27.568L44.42 27.504H43.716C42.9053 27.504 42.5 27.9307 42.5 28.784V29.008C42.5 29.8827 42.916 30.32 43.748 30.32H49.508C50.8733 30.32 52.036 30.4587 52.996 30.736C53.956 31.0133 54.692 31.5253 55.204 32.272C55.716 32.9973 55.972 34.0747 55.972 35.504V36.656C55.972 38.256 55.556 39.5467 54.724 40.528C53.9133 41.5093 52.4947 42 50.468 42H48.388V43.92H43.908V42H40.516C39.0653 42 37.9987 41.936 37.316 41.808C36.6333 41.68 36.292 41.5307 36.292 41.36L38.212 37.232C38.5747 37.2747 39.3107 37.3387 40.42 37.424C41.5507 37.488 42.9907 37.5307 44.74 37.552H48.516C48.9427 37.552 49.252 37.4347 49.444 37.2C49.636 36.9653 49.732 36.6773 49.732 36.336V36.016C49.732 35.12 49.3267 34.672 48.516 34.672H42.436Z" fill="white"/>
</svg>
