<svg width="64" height="64" viewBox="0 0 64 64" fill="none" xmlns="http://www.w3.org/2000/svg">
<circle cx="32" cy="32" r="32" fill="#607990"/>
<path d="M17.2085 42C14.9258 42 13.2725 41.4987 12.2485 40.496C11.2245 39.4933 10.7125 37.872 10.7125 35.632V29.776C10.7125 27.472 11.2778 25.7973 12.4085 24.752C13.5392 23.6853 15.1392 23.152 17.2085 23.152H26.5525C28.0245 23.152 29.1445 23.2373 29.9125 23.408C30.7018 23.5573 31.0965 23.7173 31.0965 23.888L30.1045 27.888C29.5712 27.824 28.5258 27.76 26.9685 27.696C25.4325 27.6107 23.4912 27.568 21.1445 27.568H19.5125C18.5098 27.568 17.8272 27.76 17.4645 28.144C17.1232 28.5067 16.9525 29.072 16.9525 29.84V35.312C16.9525 36.0373 17.1018 36.6027 17.4005 37.008C17.7205 37.392 18.4245 37.584 19.5125 37.584H20.8245C23.8752 37.584 26.2005 37.552 27.8005 37.488C29.4005 37.4027 30.3605 37.3173 30.6805 37.232L32.6325 40.688C32.6325 40.7947 32.4085 40.9547 31.9605 41.168C31.5338 41.3813 30.7978 41.5733 29.7525 41.744C28.7285 41.9147 27.2992 42 25.4645 42H17.2085ZM41.061 34.672C38.9063 34.672 37.3383 34.2667 36.357 33.456C35.3757 32.6453 34.885 31.344 34.885 29.552V28.4C34.885 27.4613 35.0557 26.5973 35.397 25.808C35.7597 25.0187 36.3677 24.3893 37.221 23.92C38.0743 23.4293 39.2477 23.184 40.741 23.184H42.533V21.2H47.013V23.184H49.445C50.8957 23.184 52.069 23.2587 52.965 23.408C53.861 23.5573 54.309 23.7173 54.309 23.888L53.349 27.856C52.901 27.8133 52.0477 27.76 50.789 27.696C49.5517 27.6107 48.0263 27.568 46.213 27.568L43.045 27.504H42.341C41.5303 27.504 41.125 27.9307 41.125 28.784V29.008C41.125 29.8827 41.541 30.32 42.373 30.32H48.133C49.4983 30.32 50.661 30.4587 51.621 30.736C52.581 31.0133 53.317 31.5253 53.829 32.272C54.341 32.9973 54.597 34.0747 54.597 35.504V36.656C54.597 38.256 54.181 39.5467 53.349 40.528C52.5383 41.5093 51.1197 42 49.093 42H47.013V43.92H42.533V42H39.141C37.6903 42 36.6237 41.936 35.941 41.808C35.2583 41.68 34.917 41.5307 34.917 41.36L36.837 37.232C37.1997 37.2747 37.9357 37.3387 39.045 37.424C40.1757 37.488 41.6157 37.5307 43.365 37.552H47.141C47.5677 37.552 47.877 37.4347 48.069 37.2C48.261 36.9653 48.357 36.6773 48.357 36.336V36.016C48.357 35.12 47.9517 34.672 47.141 34.672H41.061Z" fill="white"/>
</svg>
