<svg width="64" height="64" viewBox="0 0 64 64" fill="none" xmlns="http://www.w3.org/2000/svg">
<circle cx="32" cy="32" r="32" fill="#607990"/>
<path d="M30.5642 36.36C30.5642 37.0533 30.8309 37.5867 31.3642 37.96C31.9242 38.3067 32.6976 38.48 33.6842 38.48H35.3242C37.0309 38.48 38.3509 38.3733 39.2842 38.16C40.2442 37.9467 40.9509 37.72 41.4042 37.48C41.8842 37.2133 42.2309 37 42.4442 36.84L45.2842 41.56C45.2842 41.6933 45.0309 41.96 44.5242 42.36C44.0442 42.76 43.2709 43.1333 42.2042 43.48C41.1376 43.8267 39.7109 44 37.9242 44H30.8042C28.1376 44 26.1109 43.3467 24.7242 42.04C23.3376 40.7067 22.6576 38.84 22.6842 36.44V36.24H19.7242V33.04H22.6842L22.7242 31.4H19.7242V28.2H22.7242V27.88C22.7509 25.6667 23.4709 23.88 24.8842 22.52C26.2976 21.16 28.1909 20.48 30.5642 20.48H37.6842C39.2842 20.48 40.5509 20.6533 41.4842 21C42.4442 21.3467 43.1242 21.72 43.5242 22.12C43.9509 22.52 44.1642 22.8 44.1642 22.96L42.1242 27.56C41.7776 27.32 41.3509 27.08 40.8442 26.84C40.3642 26.5733 39.7109 26.36 38.8842 26.2C38.0842 26.04 37.0309 25.96 35.7242 25.96H33.6842C32.7242 25.96 31.9642 26.12 31.4042 26.44C30.8442 26.7333 30.5642 27.2667 30.5642 28.04V28.2H37.3242V31.4H30.5642V33.04H37.3242V36.24H30.5642V36.36Z" fill="white"/>
</svg>
