<svg width="64" height="64" viewBox="0 0 64 64" fill="none" xmlns="http://www.w3.org/2000/svg">
<circle cx="32" cy="32" r="32" fill="#607990"/>
<path d="M21.3356 44L23.3356 40.16V34.56H20.4156V29.88H23.3356V27.92C23.3356 25.36 23.9756 23.48 25.2556 22.28C26.5623 21.0533 28.6423 20.44 31.4956 20.44H32.6156C34.989 20.44 36.8023 20.5467 38.0556 20.76C39.309 20.9467 39.9356 21.1467 39.9356 21.36L38.7356 26.36C38.469 26.28 37.9623 26.2 37.2156 26.12C36.4956 26.0133 35.6556 25.96 34.6956 25.96H34.2556C32.1223 25.96 31.0556 26.9067 31.0556 28.8V29.88H36.0156V34.56H31.0556V35.64C31.0556 36.3067 31.0023 36.8933 30.8956 37.4C30.8156 37.9067 30.7356 38.2667 30.6556 38.48H32.6956C36.1356 38.48 38.6823 38.44 40.3356 38.36C41.989 38.2533 42.9223 38.1467 43.1356 38.04L45.1756 43.16C45.1756 43.3733 44.6156 43.5733 43.4956 43.76C42.3756 43.92 40.4823 44 37.8156 44H21.3356Z" fill="white"/>
</svg>
