<svg width="64" height="64" viewBox="0 0 64 64" fill="none" xmlns="http://www.w3.org/2000/svg">
<circle cx="32" cy="32" r="32" fill="#607990"/>
<path d="M27.3934 34.84C24.7001 34.84 22.7401 34.3333 21.5134 33.32C20.2868 32.3067 19.6734 30.68 19.6734 28.44V27C19.6734 25.8267 19.8868 24.7467 20.3134 23.76C20.7668 22.7733 21.5268 21.9867 22.5934 21.4C23.6601 20.7867 25.1268 20.48 26.9934 20.48H29.2334V18H34.8334V20.48H37.8734C39.6868 20.48 41.1534 20.5733 42.2734 20.76C43.3934 20.9467 43.9534 21.1467 43.9534 21.36L42.7534 26.32C42.1934 26.2667 41.1268 26.2 39.5534 26.12C38.0068 26.0133 36.1001 25.96 33.8334 25.96L29.8734 25.88H28.9934C27.9801 25.88 27.4734 26.4133 27.4734 27.48V27.76C27.4734 28.8533 27.9934 29.4 29.0334 29.4H36.2334C37.9401 29.4 39.3934 29.5733 40.5934 29.92C41.7934 30.2667 42.7134 30.9067 43.3534 31.84C43.9934 32.7467 44.3134 34.0933 44.3134 35.88V37.32C44.3134 39.32 43.7934 40.9333 42.7534 42.16C41.7401 43.3867 39.9668 44 37.4334 44H34.8334V46.4H29.2334V44H24.9934C23.1801 44 21.8468 43.92 20.9934 43.76C20.1401 43.6 19.7134 43.4133 19.7134 43.2L22.1134 38.04C22.5668 38.0933 23.4868 38.1733 24.8734 38.28C26.2868 38.36 28.0868 38.4133 30.2734 38.44H34.9934C35.5268 38.44 35.9134 38.2933 36.1534 38C36.3934 37.7067 36.5134 37.3467 36.5134 36.92V36.52C36.5134 35.4 36.0068 34.84 34.9934 34.84H27.3934Z" fill="white"/>
</svg>
