<svg width="328" height="226" viewBox="0 0 328 226" fill="none" xmlns="http://www.w3.org/2000/svg">
<g clip-path="url(#clip0_0_156)">
<g filter="url(#filter0_f_0_156)">
<ellipse cx="176.429" cy="368.515" rx="176.429" ry="368.515" transform="matrix(0.575754 0.817623 -0.820645 0.571438 363.84 -295.106)" fill="#8927C6"/>
</g>
<g filter="url(#filter1_f_0_156)">
<ellipse cx="311.5" cy="-30" rx="195.5" ry="133" fill="#95CEE7" fill-opacity="0.8"/>
</g>
<g filter="url(#filter2_f_0_156)">
<ellipse cx="78" cy="225" rx="168" ry="74" fill="#D242BB" fill-opacity="0.8"/>
</g>
<g filter="url(#filter3_f_0_156)">
<ellipse cx="336" cy="244.5" rx="164" ry="164.5" fill="#F63190" fill-opacity="0.8"/>
</g>
</g>
<defs>
<filter id="filter0_f_0_156" x="-216.111" y="-255.547" width="758.221" height="630.555" filterUnits="userSpaceOnUse" color-interpolation-filters="sRGB">
<feFlood flood-opacity="0" result="BackgroundImageFix"/>
<feBlend mode="normal" in="SourceGraphic" in2="BackgroundImageFix" result="shape"/>
<feGaussianBlur stdDeviation="30" result="effect1_foregroundBlur_0_156"/>
</filter>
<filter id="filter1_f_0_156" x="36" y="-243" width="551" height="426" filterUnits="userSpaceOnUse" color-interpolation-filters="sRGB">
<feFlood flood-opacity="0" result="BackgroundImageFix"/>
<feBlend mode="normal" in="SourceGraphic" in2="BackgroundImageFix" result="shape"/>
<feGaussianBlur stdDeviation="40" result="effect1_foregroundBlur_0_156"/>
</filter>
<filter id="filter2_f_0_156" x="-150" y="91" width="456" height="268" filterUnits="userSpaceOnUse" color-interpolation-filters="sRGB">
<feFlood flood-opacity="0" result="BackgroundImageFix"/>
<feBlend mode="normal" in="SourceGraphic" in2="BackgroundImageFix" result="shape"/>
<feGaussianBlur stdDeviation="30" result="effect1_foregroundBlur_0_156"/>
</filter>
<filter id="filter3_f_0_156" x="92" y="0" width="488" height="489" filterUnits="userSpaceOnUse" color-interpolation-filters="sRGB">
<feFlood flood-opacity="0" result="BackgroundImageFix"/>
<feBlend mode="normal" in="SourceGraphic" in2="BackgroundImageFix" result="shape"/>
<feGaussianBlur stdDeviation="40" result="effect1_foregroundBlur_0_156"/>
</filter>
<clipPath id="clip0_0_156">
<path d="M0 32C0 16.9151 0 9.37258 4.68629 4.68629C9.37258 0 16.9151 0 32 0H296C311.085 0 318.627 0 323.314 4.68629C328 9.37258 328 16.9151 328 32V194C328 209.085 328 216.627 323.314 221.314C318.627 226 311.085 226 296 226H32C16.9151 226 9.37258 226 4.68629 221.314C0 216.627 0 209.085 0 194V32Z" fill="white"/>
</clipPath>
</defs>
</svg>
