<svg width="64" height="64" viewBox="0 0 64 64" fill="none" xmlns="http://www.w3.org/2000/svg">
<circle cx="32" cy="32" r="32" fill="url(#paint0_linear_1127_15365)"/>
<path d="M43.9434 30.4552C43.2288 30.8727 42.6613 31.5016 42.3191 32.2552L36.9252 32.2142C36.8195 31.7228 36.6401 31.2502 36.3931 30.8125C35.8 29.793 34.8858 28.9988 33.7934 28.5543C32.701 28.1097 31.492 28.0397 30.3556 28.3554L25.7828 22.6503C26.3959 21.9331 26.7358 21.0222 26.7423 20.0786C26.7489 19.1351 26.4216 18.2196 25.8184 17.494C25.2153 16.7683 24.375 16.2793 23.4461 16.1133C22.5173 15.9473 21.5596 16.115 20.7424 16.5868C19.9253 17.0586 19.3012 17.8041 18.9805 18.6915C18.6598 19.5789 18.6632 20.5512 18.99 21.4363C19.3168 22.3215 19.9461 23.0627 20.7665 23.5288C21.5869 23.9949 22.5457 24.156 23.4734 23.9836L28.0462 29.6887C27.2047 30.515 26.6608 31.597 26.4996 32.7653C26.3384 33.9337 26.5691 35.1225 27.1555 36.1458C27.411 36.5786 27.7306 36.9703 28.1033 37.3075L26.2409 40.6152C25.4172 40.5347 24.5889 40.7118 23.87 41.1219C23.1848 41.5175 22.6324 42.1073 22.2825 42.8168C21.9326 43.5264 21.8009 44.3237 21.9042 45.1081C22.0075 45.8925 22.341 46.6286 22.8626 47.2234C23.3843 47.8182 24.0705 48.2449 24.8347 48.4497C25.5989 48.6545 26.4066 48.628 27.1557 48.3737C27.9049 48.1194 28.5618 47.6487 29.0434 47.021C29.525 46.3934 29.8097 45.637 29.8614 44.8476C29.9132 44.0582 29.7296 43.2711 29.3341 42.586C29.1492 42.2757 28.9232 41.9919 28.6622 41.7422L30.4047 38.627C31.7667 38.9876 33.2161 38.7946 34.4364 38.0901C35.6566 37.3856 36.5485 36.2269 36.9172 34.867L42.0845 34.9156C42.2948 35.7266 42.7544 36.4511 43.3985 36.9869C44.0426 37.5227 44.8386 37.8427 45.6744 37.9018C46.5101 37.9609 47.3433 37.7561 48.0564 37.3162C48.7694 36.8764 49.3264 36.2238 49.6487 35.4505C49.971 34.6771 50.0423 33.8221 49.8526 33.0061C49.663 32.19 49.2218 31.4541 48.5915 30.9022C47.9611 30.3503 47.1734 30.0103 46.3394 29.9301C45.5055 29.8499 44.6674 30.0336 43.9434 30.4552ZM26.5366 45.7407C26.3083 45.8726 26.0459 45.9337 25.7828 45.9165C25.5196 45.8992 25.2675 45.8043 25.0583 45.6438C24.8491 45.4833 24.6922 45.2643 24.6074 45.0146C24.5226 44.7649 24.5138 44.4956 24.5821 44.2409C24.6503 43.9862 24.7926 43.7574 24.9909 43.5835C25.1891 43.4097 25.4345 43.2985 25.6959 43.2641C25.9574 43.2297 26.2232 43.2735 26.4597 43.3902C26.6962 43.5068 26.8928 43.691 27.0247 43.9193C27.2015 44.2256 27.2494 44.5895 27.1579 44.9311C27.0664 45.2727 26.8429 45.5639 26.5366 45.7407ZM22.0814 18.906C22.3098 18.7741 22.5721 18.7129 22.8353 18.7302C23.0984 18.7474 23.3505 18.8423 23.5597 19.0029C23.769 19.1634 23.9259 19.3824 24.0106 19.6321C24.0954 19.8818 24.1042 20.151 24.036 20.4058C23.9677 20.6605 23.8255 20.8892 23.6272 21.0631C23.4289 21.237 23.1835 21.3482 22.9221 21.3826C22.6606 21.417 22.3949 21.3731 22.1583 21.2565C21.9218 21.1399 21.7252 20.9557 21.5934 20.7273C21.4165 20.4211 21.3686 20.0571 21.4602 19.7156C21.5517 19.374 21.7751 19.0828 22.0814 18.906ZM33.1076 35.7886C32.6508 36.0523 32.1261 36.1746 31.5998 36.1401C31.0736 36.1056 30.5693 35.9158 30.1509 35.5948C29.7325 35.2737 29.4186 34.8358 29.2491 34.3363C29.0796 33.8369 29.0619 33.2984 29.1985 32.789C29.335 32.2795 29.6195 31.822 30.016 31.4743C30.4125 31.1265 30.9033 30.9041 31.4262 30.8353C31.9491 30.7665 32.4807 30.8542 32.9537 31.0875C33.4267 31.3208 33.8199 31.6891 34.0837 32.1458C34.4373 32.7583 34.5331 33.4862 34.3501 34.1693C34.167 34.8525 33.7201 35.4349 33.1076 35.7886ZM46.6101 35.074C46.3817 35.2059 46.1193 35.2671 45.8562 35.2498C45.5931 35.2326 45.3409 35.1377 45.1317 34.9771C44.9225 34.8166 44.7656 34.5976 44.6808 34.3479C44.5961 34.0982 44.5872 33.829 44.6555 33.5742C44.7238 33.3195 44.866 33.0908 45.0643 32.9169C45.2625 32.743 45.5079 32.6318 45.7694 32.5974C46.0308 32.563 46.2966 32.6069 46.5331 32.7235C46.7696 32.8401 46.9662 33.0243 47.0981 33.2527C47.2749 33.5589 47.3228 33.9229 47.2313 34.2644C47.1398 34.606 46.9163 34.8972 46.6101 35.074Z" fill="white"/>
<defs>
<linearGradient id="paint0_linear_1127_15365" x1="64" y1="32" x2="-4.57776e-09" y2="32" gradientUnits="userSpaceOnUse">
<stop stopColor="#652E88"/>
<stop offset="1" stopColor="#F63190"/>
</linearGradient>
</defs>
</svg>
