<svg width="64" height="64" viewBox="0 0 64 64" fill="none" xmlns="http://www.w3.org/2000/svg">
<path d="M32 64C49.6731 64 64 49.6731 64 32C64 14.3269 49.6731 0 32 0C14.3269 0 0 14.3269 0 32C0 49.6731 14.3269 64 32 64Z" fill="#1969FF"/>
<path d="M30.0595 10.1763C31.1376 9.60791 32.7781 9.60791 33.8562 10.1763L44.8572 15.976C45.5065 16.3182 45.8631 16.8283 45.927 17.3549H45.9375V46.5069C45.9232 47.0813 45.5632 47.6518 44.8572 48.024L33.8562 53.8237C32.7781 54.3921 31.1376 54.3921 30.0595 53.8237L19.0585 48.024C18.3555 47.6534 18.0181 47.0789 18.0014 46.5069C17.9996 46.4482 17.9995 46.3998 18.0013 46.36L18.0014 17.5512C17.9997 17.5106 17.9997 17.4703 18.0013 17.4301L18.0014 17.3549H18.0063C18.0551 16.8225 18.3955 16.3255 19.0585 15.976L30.0595 10.1763ZM44.1875 33.5625L33.8528 39.0287C32.7763 39.5982 31.1382 39.5982 30.0617 39.0287L19.75 33.5747V46.4168L30.0617 51.842C30.6711 52.168 31.3047 52.4857 31.9217 52.4995L31.9572 52.5C32.573 52.502 33.1709 52.1889 33.7771 51.8925L44.1875 46.3701V33.5625ZM16.2765 45.875C16.2765 46.9925 16.4052 47.7271 16.6608 48.2445C16.8727 48.6734 17.1905 49.0012 17.771 49.4001L17.8041 49.4227C17.9315 49.5093 18.0718 49.6001 18.2426 49.7068L18.444 49.8312L19.0625 50.2078L18.1754 51.6875L17.4831 51.2657L17.3668 51.1936C17.1666 51.0689 17.0007 50.9619 16.846 50.8565C15.1918 49.7314 14.5749 48.5047 14.5627 45.9527L14.5625 45.875H16.2765ZM31.125 25.8125C31.045 25.84 30.9699 25.8719 30.9015 25.9081L19.9173 31.7265C19.9058 31.7326 19.8948 31.7386 19.8843 31.7446L19.875 31.75L19.8922 31.7599L19.9173 31.7735L30.9015 37.5919C30.9699 37.6281 31.045 37.66 31.125 37.6875V25.8125ZM32.875 25.8125V37.6875C32.9551 37.66 33.0301 37.6281 33.0985 37.5919L44.0827 31.7735C44.0942 31.7674 44.1052 31.7614 44.1157 31.7554L44.125 31.75L44.1078 31.7401L44.0827 31.7265L33.0985 25.9081C33.0301 25.8719 32.9551 25.84 32.875 25.8125ZM44.1875 19.4375L34.3125 24.625L44.1875 29.8125V19.4375ZM19.75 19.4375V29.8125L29.625 24.625L19.75 19.4375ZM33.0889 11.7267C32.5172 11.4244 31.4828 11.4244 30.9111 11.7267L19.9173 17.539C19.9058 17.5451 19.8948 17.5511 19.8843 17.5571L19.875 17.5625L19.8923 17.5724L19.9173 17.586L30.9111 23.3983C31.4828 23.7006 32.5172 23.7006 33.0889 23.3983L44.0826 17.586C44.0942 17.5799 44.1052 17.5739 44.1157 17.5679L44.125 17.5625L44.1077 17.5526L44.0826 17.539L33.0889 11.7267ZM45.8246 12.3125L46.5169 12.7343L46.6332 12.8064C46.8334 12.9311 46.9993 13.0382 47.1541 13.1434C48.8082 14.2686 49.4252 15.4953 49.4373 18.0473L49.4375 18.125H47.7235C47.7235 17.0074 47.5948 16.2729 47.3392 15.7554C47.1274 15.3266 46.8095 14.9988 46.2291 14.6L46.1959 14.5773C46.0686 14.4907 45.9283 14.3999 45.7574 14.2932L45.556 14.1688L44.9375 13.7922L45.8246 12.3125Z" fill="white"/>
</svg>
