<svg width="64" height="64" viewBox="0 0 64 64" fill="none" xmlns="http://www.w3.org/2000/svg">
<path d="M32 64C49.6731 64 64 49.6731 64 32C64 14.3269 49.6731 0 32 0C14.3269 0 0 14.3269 0 32C0 49.6731 14.3269 64 32 64Z" fill="black"/>
<path fill-rule="evenodd" clip-rule="evenodd" d="M19.7472 40.8208C19.8677 40.6883 20.0144 40.5825 20.1781 40.51C20.3416 40.4376 20.5187 40.4001 20.6976 40.4L50.0224 40.424C50.1474 40.4243 50.2695 40.4608 50.3739 40.5291C50.4786 40.5974 50.561 40.6947 50.6112 40.8089C50.6616 40.9232 50.6776 41.0497 50.6575 41.1729C50.6373 41.2961 50.5818 41.4108 50.4976 41.5031L44.2528 48.3792C44.1323 48.5116 43.9854 48.6175 43.8218 48.69C43.6579 48.7625 43.4808 48.7999 43.3016 48.7999L13.9776 48.776C13.8527 48.7756 13.7306 48.7392 13.6261 48.6708C13.5216 48.6025 13.4391 48.5052 13.3888 48.391C13.3385 48.2767 13.3224 48.1502 13.3426 48.027C13.3628 47.9038 13.4183 47.7891 13.5024 47.6968L19.7472 40.8208ZM50.4976 35.0968C50.5818 35.1891 50.6373 35.3038 50.6575 35.427C50.6776 35.5502 50.6616 35.6768 50.6112 35.791C50.561 35.9052 50.4786 36.0025 50.3739 36.0708C50.2695 36.1391 50.1474 36.1756 50.0224 36.176L20.6984 36.2C20.5194 36.2 20.3422 36.1625 20.1784 36.09C20.0146 36.0176 19.8677 35.9116 19.7472 35.7792L13.5024 28.8991C13.4183 28.8068 13.3628 28.6921 13.3426 28.5689C13.3224 28.4457 13.3385 28.3192 13.3888 28.2049C13.4391 28.0907 13.5216 27.9934 13.6261 27.9251C13.7306 27.8568 13.8527 27.8203 13.9776 27.82L43.3024 27.796C43.4814 27.7961 43.6584 27.8336 43.8221 27.906C43.9858 27.9785 44.1325 28.0843 44.2528 28.2168L50.4976 35.0968ZM19.7472 15.6208C19.8677 15.4883 20.0144 15.3825 20.1781 15.31C20.3416 15.2376 20.5187 15.2001 20.6976 15.2L50.0224 15.224C50.1474 15.2242 50.2695 15.2607 50.3739 15.3291C50.4786 15.3974 50.561 15.4946 50.6112 15.6089C50.6616 15.7232 50.6776 15.8496 50.6575 15.9729C50.6373 16.0961 50.5818 16.2108 50.4976 16.3032L44.2528 23.1792C44.1323 23.3116 43.9854 23.4176 43.8218 23.49C43.6579 23.5625 43.4808 23.6 43.3016 23.6L13.9776 23.576C13.8527 23.5756 13.7306 23.5392 13.6261 23.4708C13.5216 23.4025 13.4391 23.3052 13.3888 23.191C13.3385 23.0768 13.3224 22.9502 13.3426 22.827C13.3628 22.7038 13.4183 22.5891 13.5024 22.4968L19.7472 15.6208Z" fill="url(#paint0_linear_1127_15363)"/>
<defs>
<linearGradient id="paint0_linear_1127_15363" x1="14.4672" y1="49.5328" x2="49.5328" y2="14.4671" gradientUnits="userSpaceOnUse">
<stop stopColor="#9945FF"/>
<stop offset="0.2" stopColor="#7962E7"/>
<stop offset="1" stopColor="#00D18C"/>
</linearGradient>
</defs>
</svg>
