<svg xmlns="http://www.w3.org/2000/svg" width="90" height="91" viewBox="0 0 90 91" version="1.1"><path d="M 35.727 28.953 C 25.854 41.234, 23.990 44.859, 24.022 51.718 C 24.105 69.786, 45.221 79.525, 58.684 67.704 C 65.184 61.997, 67.727 52.254, 64.863 44.037 C 63.852 41.137, 46.805 18.850, 45.155 18.270 C 44.795 18.143, 40.552 22.951, 35.727 28.953 M 42.112 29.318 C 37.144 37.357, 38.477 42.046, 47.540 48.416 C 51.282 51.046, 54.175 54.064, 55.667 56.892 L 57.984 61.284 59.492 57.674 C 61.258 53.446, 61.416 49.225, 59.952 45.373 C 58.926 42.676, 46.534 26.789, 44.998 26.203 C 44.570 26.040, 43.272 27.442, 42.112 29.318 M 31.457 42.425 C 26.807 49.522, 29.510 60.670, 36.886 64.816 C 40.644 66.928, 47.072 67.677, 50.418 66.393 C 54.647 64.770, 50.855 57.334, 43.120 52.081 C 39.193 49.415, 36.583 46.736, 35.211 43.962 L 33.163 39.822 31.457 42.425" stroke="none" fill="#f2f6fc" fill-rule="evenodd"/><path d="M 31 1.875 C 19.401 5.602, 10.120 13.933, 4.181 25.948 C 0.555 33.285, 0.500 33.577, 0.500 45.448 C 0.500 56.901, 0.656 57.823, 3.631 64 C 7.852 72.760, 11.368 77.136, 18.500 82.505 C 26.170 88.278, 34.665 91, 45.016 91 C 58.265 91, 68.595 86.633, 77.616 77.218 C 82.129 72.508, 89 60.259, 89 56.925 C 89 55.931, 89.450 54.840, 90 54.500 C 90.553 54.158, 91 49.637, 91 44.382 C 91 38.303, 90.640 35.105, 90 35.500 C 89.450 35.840, 89 35.304, 88.999 34.309 C 88.998 31.801, 83.819 21.274, 80.364 16.756 C 75.915 10.939, 66.251 4.214, 59.145 1.989 C 51.059 -0.542, 38.677 -0.592, 31 1.875 M 35.727 28.953 C 25.854 41.234, 23.990 44.859, 24.022 51.718 C 24.105 69.786, 45.221 79.525, 58.684 67.704 C 65.184 61.997, 67.727 52.254, 64.863 44.037 C 63.852 41.137, 46.805 18.850, 45.155 18.270 C 44.795 18.143, 40.552 22.951, 35.727 28.953 M 42.112 29.318 C 37.144 37.357, 38.477 42.046, 47.540 48.416 C 51.282 51.046, 54.175 54.064, 55.667 56.892 L 57.984 61.284 59.492 57.674 C 61.258 53.446, 61.416 49.225, 59.952 45.373 C 58.926 42.676, 46.534 26.789, 44.998 26.203 C 44.570 26.040, 43.272 27.442, 42.112 29.318 M 0.365 45.500 C 0.368 51, 0.536 53.122, 0.738 50.216 C 0.941 47.311, 0.939 42.811, 0.734 40.216 C 0.528 37.622, 0.363 40, 0.365 45.500 M 31.457 42.425 C 26.807 49.522, 29.510 60.670, 36.886 64.816 C 40.644 66.928, 47.072 67.677, 50.418 66.393 C 54.647 64.770, 50.855 57.334, 43.120 52.081 C 39.193 49.415, 36.583 46.736, 35.211 43.962 L 33.163 39.822 31.457 42.425" stroke="none" fill="#4aa3fc" fill-rule="evenodd"/></svg>