<svg width="64" height="64" viewBox="0 0 64 64" fill="none" xmlns="http://www.w3.org/2000/svg">
<path d="M32 64C49.6731 64 64 49.6731 64 32C64 14.3269 49.6731 0 32 0C14.3269 0 0 14.3269 0 32C0 49.6731 14.3269 64 32 64Z" fill="#DD1438"/>
<path d="M50.1406 16.3935C49.3429 14.4699 48.1563 12.732 46.6553 11.2888C45.141 9.87316 43.3798 8.7476 41.4591 7.96805C40.1549 7.44876 38.7848 7.11317 37.3882 6.9709C34.7368 6.60275 32.0353 6.91672 29.5389 7.88316C27.0426 8.84959 24.8339 10.4365 23.1215 12.4941C21.4092 14.5516 20.2498 17.0119 19.7528 19.6422C19.2558 22.2725 19.4377 24.9862 20.2813 27.5266V27.5724C19.1095 28.3005 18.039 29.1802 17.0978 30.1888C15.6446 31.7121 14.4986 33.5011 13.7221 35.4581C12.975 37.4177 12.5996 39.4993 12.6152 41.5964C12.6199 43.6789 13.056 45.7377 13.8959 47.6433C14.6969 49.565 15.8831 51.3023 17.3814 52.7479C18.9003 54.1619 20.6642 55.2872 22.5866 56.0686C24.3361 56.7591 26.195 57.1309 28.0754 57.1664H28.359C30.8526 57.1854 33.3151 56.6136 35.545 55.4978C37.775 54.382 39.7091 52.7539 41.1887 50.7468C42.6683 48.7396 43.6517 46.4107 44.058 43.9504C44.4644 41.4902 44.2822 38.9687 43.5266 36.5924C44.7725 35.8369 45.9084 34.9135 46.9022 33.848C48.3678 32.3308 49.5265 30.5446 50.3144 28.5879C51.0682 26.6266 51.4467 24.5413 51.4305 22.4403C51.4227 20.3573 50.9835 18.2984 50.1406 16.3935ZM36.3453 17.5278C36.2303 17.0332 36.1781 16.526 36.1898 16.0183C36.761 16.1136 37.3195 16.2732 37.8548 16.494C38.6076 16.8184 39.277 17.3096 39.8125 17.9303C40.33 18.5389 40.7329 19.2364 41.0017 19.9886C41.2509 20.7309 41.3686 21.5111 41.3493 22.2939C41.2638 23.7551 40.6415 25.1332 39.6021 26.1636L36.3453 17.5278ZM40.0686 27.3894C40.1692 27.298 40.2699 27.1973 40.3613 27.0967C40.9895 26.4321 41.4779 25.6481 41.7976 24.7914C42.1041 23.9415 42.2469 23.0413 42.2184 22.1384C42.2068 21.2547 42.0039 20.384 41.6238 19.5861C41.2359 18.818 40.7157 18.1243 40.0869 17.537C39.4677 16.9716 38.7435 16.5334 37.9554 16.2471C37.3825 16.0534 36.7849 15.9425 36.1807 15.9178C36.2131 14.9191 36.4694 13.9406 36.9308 13.0544C37.6254 13.1843 38.3014 13.3994 38.9434 13.6948C40.0603 14.2108 41.0693 14.9341 41.9165 15.8263C42.7057 16.743 43.342 17.7809 43.801 18.9C44.2104 20.0158 44.4119 21.197 44.3956 22.3854C44.4131 23.5705 44.1498 24.7429 43.6272 25.8068C43.1998 26.8787 42.5296 27.8369 41.6695 28.6061C41.3836 28.8591 41.0777 29.0886 40.7547 29.2922L40.0686 27.3894ZM41.2304 30.454C41.6751 30.1267 42.0941 29.7658 42.4837 29.3746C44.2707 27.4231 45.2515 24.8667 45.2282 22.2208C45.2076 20.929 44.921 19.6554 44.3865 18.4792C43.8726 17.3129 43.1218 16.2661 42.1818 15.4054C41.2719 14.5521 40.2025 13.8869 39.0349 13.4477C38.3646 13.2142 37.6717 13.0517 36.9674 12.9629C37.2624 12.4098 37.6386 11.9041 38.0835 11.4626C38.4242 11.114 38.805 10.807 39.2178 10.5478C39.53 10.6544 39.8355 10.7797 40.1327 10.9228C41.6165 11.5515 42.9509 12.4868 44.048 13.6673C45.1687 14.8247 46.0542 16.1886 46.6553 17.6833C47.2214 19.1796 47.5067 20.7674 47.4969 22.3671C47.4256 23.9391 47.0821 25.4868 46.4815 26.9411C45.8364 28.3392 44.9368 29.6049 43.8285 30.6736C43.2544 31.2535 42.616 31.7662 41.9257 32.2013L41.2304 30.454ZM24.5901 53.3974C24.3342 53.3119 24.0836 53.211 23.8399 53.0956C22.3559 52.4669 21.0217 51.5316 19.9246 50.3511C18.8287 49.1937 17.9653 47.8365 17.3814 46.3534C16.8152 44.8572 16.5299 43.2694 16.5397 41.6695C16.61 40.0975 16.9536 38.5497 17.5552 37.0956C18.1999 35.6947 19.0995 34.4259 20.2081 33.354C20.7416 32.8131 21.3268 32.326 21.9554 31.8994L22.6507 33.7291C22.2549 34.0275 21.879 34.3514 21.5255 34.6988C20.6345 35.663 19.9386 36.7907 19.4763 38.0195C18.9959 39.2426 18.7597 40.5479 18.781 41.8617C18.8026 43.1533 19.0891 44.4268 19.6227 45.6033C20.6739 47.918 22.5976 49.7232 24.9743 50.6255C25.5683 50.8377 26.1808 50.9939 26.8039 51.0921C26.5092 51.6137 26.1461 52.0937 25.7244 52.5192C25.3804 52.8535 24.9999 53.1481 24.5901 53.3974ZM25.0566 50.3146C23.9396 49.7985 22.9307 49.0753 22.0835 48.183C21.2964 47.2682 20.6603 46.2337 20.1989 45.1184C19.7903 43.9993 19.5888 42.8151 19.6044 41.6238C19.5869 40.4387 19.8502 39.2663 20.3727 38.2025C20.8002 37.1306 21.4703 36.1724 22.3305 35.4031C22.562 35.1902 22.8064 34.9916 23.0623 34.8086L23.785 36.7662L23.6112 36.94C22.983 37.6046 22.4946 38.3885 22.175 39.2453C21.8684 40.0951 21.7256 40.9953 21.7541 41.8983C21.7658 42.782 21.9686 43.6527 22.3488 44.4506C22.7366 45.2187 23.2569 45.9124 23.8856 46.4998C24.5049 47.0651 25.2291 47.5034 26.0172 47.7897C26.5399 47.9677 27.0848 48.0724 27.6364 48.1007C27.595 49.0967 27.3258 50.07 26.8496 50.9457C26.2302 50.803 25.6288 50.5912 25.0566 50.3146ZM27.5357 46.454C27.6328 46.9542 27.6757 47.4633 27.6638 47.9726C27.1438 47.8704 26.6351 47.7173 26.1452 47.5152C25.3924 47.1908 24.723 46.6997 24.1875 46.079C23.67 45.4703 23.2671 44.7729 22.9983 44.0206C22.7491 43.2783 22.6314 42.4982 22.6507 41.7153C22.7361 40.3126 23.3125 38.9848 24.279 37.9646L27.5357 46.454ZM14.4722 47.3688C13.7977 45.5128 13.4539 43.5529 13.4568 41.5781C13.5471 39.6172 13.9837 37.6876 14.7467 35.8788C15.5378 34.0865 16.665 32.4624 18.0675 31.0944C18.8893 30.2769 19.8115 29.5669 20.8119 28.9812L21.3242 30.3351C20.5187 30.8545 19.7786 31.4689 19.1195 32.1647C17.9463 33.4471 17.044 34.953 16.4666 36.5924C15.8908 38.2066 15.6059 39.9102 15.625 41.6238C15.6954 43.3215 16.0735 44.9921 16.741 46.5547C18.1271 49.6234 20.6535 52.0317 23.785 53.2694C24.0046 53.3516 24.2332 53.4157 24.462 53.4889C23.4468 54.0846 22.2992 54.4179 21.1229 54.4586C20.6978 54.4607 20.2739 54.4115 19.8605 54.3122C19.0959 53.7719 18.3852 53.1592 17.7381 52.4826C16.3179 51.0422 15.2066 49.327 14.4722 47.4421V47.3688ZM49.235 28.0115C48.4439 29.8039 47.3167 31.4279 45.9142 32.7959C45.0489 33.6862 44.0673 34.4555 42.996 35.0829L42.4837 33.7291C43.3591 33.1982 44.1591 32.5521 44.8622 31.808C46.0502 30.5512 46.9713 29.0668 47.57 27.4444C48.1457 25.8301 48.4307 24.1266 48.4117 22.4129C48.3412 20.7152 47.9631 19.0445 47.2956 17.482C45.9096 14.4134 43.383 12.005 40.2516 10.7673C39.968 10.6576 39.6661 10.5752 39.3368 10.4838C40.7829 9.62913 42.5003 9.35768 44.1395 9.72449C44.9019 10.2675 45.6124 10.88 46.2618 11.5541C47.6745 12.9936 48.7794 14.7054 49.5094 16.5856C50.1833 18.4417 50.527 20.4015 50.5249 22.3763C50.4415 24.3393 50.011 26.272 49.2533 28.0847L49.235 28.0115Z" fill="white"/>
</svg>
