<svg width="64" height="64" viewBox="0 0 64 64" fill="none" xmlns="http://www.w3.org/2000/svg">
<circle cx="32" cy="32" r="32" fill="url(#paint0_linear_8307_19927)"/>
<path fill-rule="evenodd" clip-rule="evenodd" d="M29.7925 17.4245C30.4664 17.045 31.2267 16.8457 32.0002 16.8457C32.7736 16.8457 33.5339 17.045 34.2078 17.4245C34.8818 17.8039 35.4465 18.3506 35.8477 19.0119L35.852 19.019L48.557 40.229L48.5691 40.2497C48.9621 40.9302 49.17 41.7017 49.1722 42.4874C49.1744 43.2731 48.9708 44.0458 48.5817 44.7284C48.1926 45.4111 47.6315 45.9799 46.9543 46.3784C46.2771 46.7769 45.5073 46.9911 44.7216 46.9997L44.7052 46.9999L19.2787 46.9998C18.493 46.9912 17.7232 46.7769 17.046 46.3784C16.3688 45.9799 15.8077 45.4111 15.4186 44.7284C15.0295 44.0458 14.8259 43.2731 14.8281 42.4874C14.8303 41.7017 15.0382 40.9302 15.4312 40.2497L15.4434 40.229L28.1484 19.019L29.4351 19.7898L28.1527 19.0119C28.5538 18.3506 29.1185 17.8039 29.7925 17.4245ZM30.7195 20.5648L18.0242 41.7586C17.8964 41.9833 17.8289 42.2372 17.8281 42.4958C17.8274 42.7577 17.8953 43.0153 18.025 43.2428C18.1547 43.4704 18.3417 43.66 18.5674 43.7928C18.7912 43.9245 19.0452 43.9958 19.3047 43.9998H44.6956C44.9551 43.9958 45.2091 43.9245 45.4329 43.7928C45.6586 43.66 45.8456 43.4703 45.9753 43.2428C46.1051 43.0153 46.1729 42.7577 46.1722 42.4958C46.1715 42.2372 46.1039 41.9833 45.9762 41.7586L33.2827 20.5678L33.2808 20.5648C33.1473 20.3457 32.9597 20.1645 32.7361 20.0386C32.5114 19.9121 32.258 19.8457 32.0002 19.8457C31.7424 19.8457 31.4889 19.9121 31.2643 20.0386C31.0406 20.1645 30.8531 20.3457 30.7195 20.5648ZM30.5002 39.4998C30.5002 38.6714 31.1717 37.9998 32.0002 37.9998H32.0152C32.8436 37.9998 33.5152 38.6714 33.5152 39.4998C33.5152 40.3283 32.8436 40.9998 32.0152 40.9998H32.0002C31.1717 40.9998 30.5002 40.3283 30.5002 39.4998ZM33.5002 27.4998C33.5002 26.6714 32.8286 25.9998 32.0002 25.9998C31.1717 25.9998 30.5002 26.6714 30.5002 27.4998V33.4998C30.5002 34.3283 31.1717 34.9998 32.0002 34.9998C32.8286 34.9998 33.5002 34.3283 33.5002 33.4998V27.4998Z" fill="white"/>
<defs>
<linearGradient id="paint0_linear_8307_19927" x1="49.4222" y1="31.1111" x2="28.2221" y2="-1.45991" gradientUnits="userSpaceOnUse">
<stop stop-color="#F63190"/>
<stop offset="0.473958" stop-color="#9A47CF"/>
<stop offset="1" stop-color="#95CEE7"/>
</linearGradient>
</defs>
</svg>
